<svg width="60" height="60" viewBox="0 0 60 60" fill="none" xmlns="http://www.w3.org/2000/svg">
<path fill-rule="evenodd" clip-rule="evenodd" d="M26.8112 0V7.23512L29.1781 27.7775C29.1757 27.7783 29.1733 27.7792 29.1709 27.78L16.1577 11.6487L11.0417 6.53268L8.87024 8.70411L8.87067 8.70453L6.53264 11.0426L11.6486 16.1586L27.7997 28.9724C27.7933 28.9845 27.7871 28.9967 27.7809 29.009L7.23512 26.8109L0 26.8109V29.8817V29.8818V33.1888H7.23512L27.6261 30.8394C27.6353 30.8699 27.6451 30.9001 27.6555 30.9301L11.6486 43.8429L6.5326 48.9589L8.70365 51.13L8.70329 51.1303L11.0417 53.4688L16.1578 48.3528L28.8716 32.3278C28.911 32.3479 28.951 32.3671 28.9916 32.3852L26.8113 52.7646L26.8113 59.9997H29.8817V59.9999H33.1888V52.7647L30.8482 32.4499C30.8907 32.4344 30.9327 32.4178 30.9741 32.4001L43.8423 48.3516L48.9583 53.4676L51.1297 51.2962L51.1293 51.2958L53.4674 48.9577L48.3514 43.8417L32.2817 31.0924C32.2945 31.0623 32.3068 31.032 32.3185 31.0013L52.7649 33.1888H60V30.1179H60V26.8111H52.7649L32.2924 29.1698C32.2864 29.1553 32.2803 29.1409 32.274 29.1266L48.3515 16.1568L53.4675 11.0408L51.2965 8.86979L51.2968 8.86952L48.9583 6.53106L43.8423 11.6471L30.9918 27.8443C30.9893 27.8432 30.9867 27.8421 30.9842 27.841L33.1888 7.23512V0H30.1183H30.1179H26.8112Z" fill="white"/>
</svg>
