<?xml version="1.0" standalone="no"?>
<!DOCTYPE svg PUBLIC "-//W3C//DTD SVG 1.1//EN" "http://www.w3.org/Graphics/SVG/1.1/DTD/svg11.dtd" >
<svg xmlns="http://www.w3.org/2000/svg" xmlns:xlink="http://www.w3.org/1999/xlink" version="1.1">
<metadata>
Created by FontForge 20190801 at Fri Jul 15 18:41:04 2022
 By www-data
Copyright (c) 2019 Monotype Imaging Inc. All rights reserved.
</metadata>
<defs>
<font id="HelveticaNowDisplayRegular" horiz-adv-x="0" >
  <font-face 
    font-family="HelveticaNowDisplayRegular"
    font-weight="400"
    font-stretch="normal"
    units-per-em="2048"
    panose-1="2 11 5 4 3 2 2 2 2 4"
    ascent="1792"
    descent="-256"
    x-height="1057"
    cap-height="1458"
    bbox="-737 -659 2550 2140"
    underline-thickness="102"
    underline-position="-614"
    unicode-range="U+000D-FEFF"
  />
<missing-glyph horiz-adv-x="1296" 
d="M1163 0h-1030v1458h1030v-1458zM305 1303v-1147h686v1147h-686z" />
    <glyph glyph-name="fi" unicode="fi" horiz-adv-x="1044" 
d="M205 1057v108q0 297 295 297q45 0 104 -4v-139h-94q-141 0 -141 -150v-112h225v-144h-225v-913h-164v913h-174v144h174zM752 1217v200h174v-200h-174zM922 0h-164v1057h164v-1057z" />
    <glyph glyph-name="fl" unicode="fl" horiz-adv-x="1024" 
d="M205 1057v108q0 297 295 297q45 0 104 -4v-139h-94q-141 0 -141 -150v-112h225v-144h-225v-913h-164v913h-174v144h174zM737 0v1458h164v-1458h-164z" />
    <glyph glyph-name=".notdef" horiz-adv-x="1296" 
d="M1163 0h-1030v1458h1030v-1458zM305 1303v-1147h686v1147h-686z" />
    <glyph glyph-name=".null" 
 />
    <glyph glyph-name="nonmarkingreturn" horiz-adv-x="681" 
 />
    <glyph glyph-name="NULL" 
 />
    <glyph glyph-name="NULL" 
 />
    <glyph glyph-name="CR" unicode="&#xd;" horiz-adv-x="389" 
 />
    <glyph glyph-name="space" unicode=" " horiz-adv-x="389" 
 />
    <glyph glyph-name="exclam" unicode="!" horiz-adv-x="391" 
d="M246 381h-107l-28 676v401h172v-401zM299 0h-207v205h207v-205z" />
    <glyph glyph-name="quotedbl" unicode="&#x22;" horiz-adv-x="823" 
d="M283 936h-127l-23 522h172zM668 936h-127l-23 522h172z" />
    <glyph glyph-name="numbersign" unicode="#" horiz-adv-x="1294" 
d="M1233 1020l-29 -139h-205l-63 -303h207l-29 -140h-205l-90 -438h-164l90 438h-313l-90 -438h-164l90 438h-207l29 140h205l63 303h-206l28 139h205l90 438h164l-90 -438h313l90 438h164l-90 -438h207zM459 578h313l64 303h-314z" />
    <glyph glyph-name="dollar" unicode="$" horiz-adv-x="1265" 
d="M1214 395q0 -188 -131 -302q-130 -113 -366 -124v-207h-144v209q-240 18 -375 148q-136 131 -137 362h179q6 -319 333 -352v555l-20 4q-220 51 -332 149q-110 97 -110 273q0 167 123 268q125 103 339 113v205h144v-211q446 -43 461 -451h-177q-11 134 -76 205
q-66 72 -208 90v-508l43 -10q239 -52 348 -153q106 -99 106 -263zM289 1110q0 -102 61 -159q61 -56 223 -97v481q-140 -8 -212 -66q-72 -59 -72 -159zM717 651v-526q319 22 319 270q0 99 -72 157t-247 99z" />
    <glyph glyph-name="percent" unicode="%" horiz-adv-x="1820" 
d="M643 713q-89 -119 -258 -119q-170 0 -256 119q-88 113 -88 321q0 212 88 327q89 116 256 116t256 -116q88 -115 88 -327q0 -203 -86 -321zM600 0h-158l779 1458h157zM199 1034q0 -311 186 -311t186 311q0 314 -186 314t-186 -314zM1694 100q-88 -118 -258 -118
q-171 0 -256 118q-88 113 -88 322q0 212 88 327t256 115t256 -115t88 -327q0 -204 -86 -322zM1249 422q0 -311 187 -311q186 0 186 311q0 313 -186 313q-187 0 -187 -313z" />
    <glyph glyph-name="ampersand" unicode="&#x26;" horiz-adv-x="1347" 
d="M1065 315l283 -315h-222l-153 172q-174 -205 -471 -205q-201 0 -320 119q-121 117 -121 287q0 143 79 241q81 101 261 201q-92 104 -134 189q-40 81 -40 165q0 134 99 230q97 92 260 92q146 0 252 -84q104 -83 104 -231q0 -217 -299 -390l303 -337q41 120 41 256h166
q-6 -222 -88 -390zM584 1343q-82 0 -133 -48q-52 -49 -52 -126q0 -106 148 -274q118 63 170 129q53 67 53 145q0 75 -53 125q-52 49 -133 49zM512 123q228 0 352 172l-366 412q-144 -78 -202 -148q-60 -72 -60 -178q0 -109 75 -183q77 -75 201 -75z" />
    <glyph glyph-name="quotesingle" unicode="'" horiz-adv-x="438" 
d="M283 936h-127l-23 522h172z" />
    <glyph glyph-name="parenleft" unicode="(" horiz-adv-x="563" 
d="M543 -401h-154q-287 398 -287 1001q0 605 287 1002h154q-143 -229 -205 -467q-62 -239 -62 -535t62 -532q62 -240 205 -469z" />
    <glyph glyph-name="parenright" unicode=")" horiz-adv-x="563" 
d="M174 -401h-154q143 229 205 469q62 236 62 532t-62 535q-62 238 -205 467h154q287 -397 287 -1002q0 -603 -287 -1001z" />
    <glyph glyph-name="asterisk" unicode="*" horiz-adv-x="987" 
d="M494 924l-195 -269l-102 82l196 273l-311 100l43 123l303 -98v323h131v-323l303 98l43 -123l-311 -100l197 -273l-103 -82z" />
    <glyph glyph-name="plus" unicode="+" horiz-adv-x="1083" 
d="M623 803h378v-148h-378v-379h-160v379h-381v148h381v379h160v-379z" />
    <glyph glyph-name="comma" unicode="," horiz-adv-x="391" 
d="M92 0v205h207v-223q0 -247 -186 -265l-21 -2v111l14 2q76 7 76 139v33h-90z" />
    <glyph glyph-name="hyphen" unicode="-" horiz-adv-x="755" 
d="M674 504h-592v147h592v-147z" />
    <glyph glyph-name="period" unicode="." horiz-adv-x="391" 
d="M299 0h-207v205h207v-205z" />
    <glyph glyph-name="slash" unicode="/" horiz-adv-x="743" 
d="M190 0h-159l522 1458h160z" />
    <glyph glyph-name="zero" unicode="0" horiz-adv-x="1261" 
d="M1026 164q-134 -197 -395 -197q-264 0 -395 197q-134 199 -134 565t134 565q131 197 395 197q261 0 395 -197q133 -197 133 -565t-133 -565zM283 729q0 -606 348 -606t348 606t-348 606t-348 -606z" />
    <glyph glyph-name="one" unicode="1" horiz-adv-x="731" 
d="M459 1458h139v-1458h-172v1087h-332v136l33 2q155 10 231 61q77 51 101 172z" />
    <glyph glyph-name="two" unicode="2" horiz-adv-x="1122" 
d="M289 156h770v-156h-963l4 80q12 178 82 309q69 129 236 225l184 107q140 83 198 160t58 188q0 122 -77 194t-212 72q-305 0 -305 -313h-170q-2 224 125 346q127 123 354 123q207 0 336 -117q129 -122 129 -305q0 -283 -331 -475l-156 -90q-135 -82 -195 -159
q-59 -76 -67 -189z" />
    <glyph glyph-name="three" unicode="3" horiz-adv-x="1175" 
d="M860 776q244 -128 244 -366q0 -199 -139 -320q-137 -123 -363 -123q-245 0 -378 127t-132 346h170q4 -156 92 -236q88 -81 248 -81q148 0 235 78t87 209q0 132 -89 212q-87 78 -243 78h-109v144h99q146 0 224 65q79 66 79 183q0 115 -79 179t-214 64q-138 0 -218 -70
q-81 -70 -87 -208h-172q1 197 130 316q127 118 347 118q210 0 339 -106q128 -105 128 -289q0 -208 -199 -320z" />
    <glyph glyph-name="four" unicode="4" horiz-adv-x="1191" 
d="M954 520h197v-155h-197v-365h-172v365h-731v165l717 928h186v-938zM782 520v713l-551 -713h551z" />
    <glyph glyph-name="five" unicode="5" horiz-adv-x="1185" 
d="M608 950q234 0 365 -137t131 -354q0 -216 -137 -353q-139 -139 -369 -139q-210 0 -346 121q-138 120 -150 318h172q12 -130 103 -207q89 -76 221 -76q144 0 235 93q91 92 91 243q0 150 -91 242q-92 94 -235 94q-214 0 -299 -177h-160l123 840h754v-155h-615l-69 -459
q118 106 276 106z" />
    <glyph glyph-name="six" unicode="6" horiz-adv-x="1234" 
d="M645 950q230 0 365 -139q133 -139 133 -352q0 -214 -135 -353q-139 -139 -367 -139q-190 0 -322 103q-117 95 -167 255q-50 161 -50 398q0 363 141 565q141 203 402 203q191 0 318 -105q126 -104 159 -288h-168q-24 115 -105 176q-80 61 -204 61q-365 0 -371 -583
q59 87 163 143q103 55 208 55zM408 217q91 -94 233 -94q143 0 231 94q91 97 91 242q0 144 -91 241q-89 95 -231 95q-140 0 -233 -93q-93 -98 -93 -243q0 -149 93 -242z" />
    <glyph glyph-name="seven" unicode="7" horiz-adv-x="1017" 
d="M41 1303v155h936v-135q-503 -564 -524 -1323h-179q10 375 133 693q122 316 371 610h-737z" />
    <glyph glyph-name="eight" unicode="8" horiz-adv-x="1200" 
d="M858 782q127 -49 199 -144q71 -93 71 -224q0 -205 -145 -326t-383 -121t-383 121t-145 326q0 131 71 224q72 95 199 144q-211 91 -211 310q0 186 133 294q134 105 336 105t336 -105q133 -108 133 -294q0 -219 -211 -310zM815 1272q-82 63 -215 63q-132 0 -215 -63
q-84 -66 -84 -180q0 -115 84 -181q83 -63 215 -63t215 63q84 66 84 181q0 114 -84 180zM346 201q96 -78 254 -78t254 78q94 76 94 213q0 139 -94 215t-254 76t-254 -76t-94 -215q0 -137 94 -213z" />
    <glyph glyph-name="nine" unicode="9" horiz-adv-x="1234" 
d="M915 1372q119 -96 168 -255q50 -161 50 -398q0 -359 -139 -564q-138 -204 -394 -204q-198 0 -326 104t-161 289h168q24 -114 107 -176t212 -62q355 0 361 584q-59 -87 -163 -143q-103 -55 -208 -55q-230 0 -363 139q-135 139 -135 352q0 215 137 352q135 140 365 140
q189 0 321 -103zM362 741q88 -94 232 -94q142 0 233 94q93 93 93 242q0 146 -93 244q-92 92 -233 92q-144 0 -232 -94q-90 -96 -90 -242t90 -242z" />
    <glyph glyph-name="colon" unicode=":" horiz-adv-x="391" 
d="M299 801h-207v205h207v-205zM299 0h-207v205h207v-205z" />
    <glyph glyph-name="semicolon" unicode=";" horiz-adv-x="391" 
d="M92 799v205h207v-205h-207zM182 0h-90v205h207v-223q0 -247 -186 -265l-21 -2v111l14 2q76 7 76 139v33z" />
    <glyph glyph-name="less" unicode="&#x3c;" horiz-adv-x="1083" 
d="M1001 1210v-176l-299 -123q-236 -97 -448 -180q16 -6 448 -182l299 -123v-176l-919 395v170z" />
    <glyph glyph-name="equal" unicode="=" horiz-adv-x="1083" 
d="M1001 831h-919v148h919v-148zM1001 479h-919v148h919v-148z" />
    <glyph glyph-name="greater" unicode="&#x3e;" horiz-adv-x="1083" 
d="M82 1034v176l919 -395v-170l-919 -395v176l299 123q432 176 448 182q-212 83 -448 180z" />
    <glyph glyph-name="question" unicode="?" horiz-adv-x="1038" 
d="M582 381h-162q0 154 37 244q33 81 166 200q98 87 127 129q12 16 24 39q29 53 29 109q0 233 -271 233q-151 0 -226 -74q-76 -75 -87 -251h-168q1 234 127 358q124 123 348 123q212 0 331 -100q120 -101 120 -287q0 -106 -51 -188q-51 -83 -164 -179q-120 -102 -154 -174
q-21 -47 -26 -182zM604 0h-207v205h207v-205z" />
    <glyph glyph-name="at" unicode="@" horiz-adv-x="1896" 
d="M956 1491q383 0 625 -217q244 -220 244 -555q0 -244 -94 -393q-97 -154 -275 -154q-101 0 -167 45t-87 129q-86 -180 -287 -180q-172 0 -274 123t-102 336t102 336q101 122 274 122q171 0 254 -137v111h160v-559q0 -187 133 -187q99 0 153 107t54 293q0 274 -194 458
q-195 183 -519 183t-526 -207q-203 -209 -203 -531q0 -323 209 -524q207 -199 533 -199q205 0 374 68v-139q-177 -68 -382 -68q-400 0 -644 242q-245 245 -245 620q0 383 245 629q246 248 639 248zM934 301q111 0 175 88q65 89 65 236q0 146 -65 235q-64 88 -175 88
q-114 0 -176 -86t-62 -237q0 -152 62 -238t176 -86z" />
    <glyph glyph-name="A" unicode="A" horiz-adv-x="1425" 
d="M1395 0h-183l-170 424h-663l-168 -424h-180l581 1458h193zM446 596l-6 -16h541l-8 18q-58 141 -266 674q-128 -341 -261 -676z" />
    <glyph glyph-name="B" unicode="B" horiz-adv-x="1294" 
d="M991 758q252 -96 252 -348q0 -191 -124 -300q-125 -110 -349 -110h-637v1458h606q211 0 328 -105t117 -276q0 -218 -193 -319zM727 1303h-422v-482h422q141 0 215 66t74 184q0 109 -75 170q-76 62 -214 62zM305 156h457q152 0 230 65q79 66 79 189q0 258 -311 258h-455
v-512z" />
    <glyph glyph-name="C" unicode="C" horiz-adv-x="1435" 
d="M745 -33q-296 0 -485 207q-188 206 -188 555t188 555q189 207 485 207q235 0 402 -128q166 -127 219 -374h-174q-92 344 -447 344q-223 0 -358 -159q-135 -162 -135 -445t135 -442q135 -162 358 -162q170 0 299 104q130 101 158 301h172q-28 -271 -207 -415
q-181 -148 -422 -148z" />
    <glyph glyph-name="D" unicode="D" horiz-adv-x="1411" 
d="M133 1458h492q332 0 524 -192q190 -191 190 -537q0 -340 -190 -534q-195 -195 -524 -195h-492v1458zM305 156h320q258 0 396 151q138 152 138 422q0 271 -138 422q-138 152 -396 152h-320v-1147z" />
    <glyph glyph-name="E" unicode="E" horiz-adv-x="1198" 
d="M1147 1458v-155h-842v-465h760v-156h-760v-526h834v-156h-1006v1458h1014z" />
    <glyph glyph-name="F" unicode="F" horiz-adv-x="1138" 
d="M1098 1458v-155h-793v-465h711v-156h-711v-682h-172v1458h965z" />
    <glyph glyph-name="G" unicode="G" horiz-adv-x="1529" 
d="M797 594v156h620v-750h-141l-37 197q-162 -230 -477 -230q-314 0 -500 211q-190 208 -190 551q0 341 188 553q186 209 504 209q261 0 430 -139t207 -371h-178q-27 162 -156 258q-124 94 -303 94q-233 0 -373 -164q-139 -163 -139 -440t139 -440q140 -164 373 -164
q207 0 352 133q146 134 146 336h-465z" />
    <glyph glyph-name="H" unicode="H" horiz-adv-x="1423" 
d="M1118 831v627h172v-1458h-172v672h-813v-672h-172v1458h172v-627h813z" />
    <glyph glyph-name="I" unicode="I" horiz-adv-x="438" 
d="M305 0h-172v1458h172v-1458z" />
    <glyph glyph-name="J" unicode="J" horiz-adv-x="1062" 
d="M831 88q-121 -121 -327 -121q-209 0 -326 121q-117 122 -117 326v96h168v-96q0 -141 72 -216t203 -75t203 75q71 74 71 216v1044h172v-1044q0 -207 -119 -326z" />
    <glyph glyph-name="K" unicode="K" horiz-adv-x="1359" 
d="M1102 1458h227l-622 -594l622 -864h-211l-536 750l-277 -265v-485h-172v1458h172v-766z" />
    <glyph glyph-name="L" unicode="L" horiz-adv-x="1079" 
d="M305 1458v-1302h733v-156h-905v1458h172z" />
    <glyph glyph-name="M" unicode="M" horiz-adv-x="1718" 
d="M1034 653l326 805h225v-1458h-168v467q0 461 6 743q-48 -130 -129 -331l-360 -879h-148l-362 879q-81 201 -129 331q6 -282 6 -743v-467h-168v1458h225l338 -829q69 -167 166 -420q115 305 172 444z" />
    <glyph glyph-name="N" unicode="N" horiz-adv-x="1425" 
d="M1122 967v491h170v-1458h-209l-483 752q-213 338 -303 493q6 -287 6 -753v-492h-170v1458h209l483 -751q204 -325 303 -494q-6 286 -6 754z" />
    <glyph glyph-name="O" unicode="O" horiz-adv-x="1540" 
d="M1278 178q-192 -211 -508 -211t-506 211q-192 207 -192 551q0 341 192 553q191 209 506 209q316 0 508 -209q190 -212 190 -553q0 -343 -190 -551zM393 289q141 -164 377 -164t377 164q141 162 141 440t-141 440q-141 164 -377 164t-377 -164q-141 -162 -141 -440
t141 -440z" />
    <glyph glyph-name="P" unicode="P" horiz-adv-x="1292" 
d="M133 1458h606q233 0 358 -121q126 -122 126 -327q0 -206 -126 -328q-125 -121 -358 -121h-434v-561h-172v1458zM305 717h434q153 0 229 75t76 218t-76 218t-229 75h-434v-586z" />
    <glyph glyph-name="Q" unicode="Q" horiz-adv-x="1540" 
d="M1468 729q0 -349 -198 -561l188 -199l-104 -104l-199 209q-169 -107 -385 -107q-316 0 -506 211q-192 207 -192 551q0 341 192 553q191 209 506 209q316 0 508 -209q190 -212 190 -553zM770 125q154 0 268 72l-184 194l104 105l193 -203q137 163 137 436q0 278 -141 440
q-141 164 -377 164t-377 -164q-141 -162 -141 -440t141 -440q141 -164 377 -164z" />
    <glyph glyph-name="R" unicode="R" horiz-adv-x="1323" 
d="M1204 422l15 -236q11 -125 53 -186h-178q-46 67 -47 195l-7 155q-6 148 -65 210q-60 63 -195 63h-475v-623h-172v1458h617q227 0 359 -104q134 -105 134 -293q0 -133 -64 -224q-64 -90 -175 -128q183 -57 200 -287zM305 778h465q136 0 216 71q79 70 79 202q0 125 -83 188
q-84 64 -232 64h-445v-525z" />
    <glyph glyph-name="S" unicode="S" horiz-adv-x="1265" 
d="M668 -33q-286 0 -445 129q-161 130 -162 385h179q6 -358 428 -358q177 0 273 70q95 69 95 202q0 105 -79 163q-78 57 -275 101l-129 29q-220 51 -332 149q-110 97 -110 273q0 174 135 278q134 103 362 103q156 0 268 -37q115 -38 177 -103t93 -145q31 -79 32 -172h-177
q-12 157 -101 229q-88 72 -292 72q-155 0 -236 -59q-83 -60 -83 -166q0 -107 71 -166q67 -58 271 -104l129 -29q239 -52 348 -153q106 -99 106 -263q0 -199 -145 -313q-147 -115 -401 -115z" />
    <glyph glyph-name="T" unicode="T" horiz-adv-x="1251" 
d="M41 1458h1169v-155h-495v-1303h-178v1303h-496v155z" />
    <glyph glyph-name="U" unicode="U" horiz-adv-x="1372" 
d="M1110 119q-150 -150 -424 -150t-424 150q-149 149 -149 422v917h172v-917q0 -416 401 -416t401 416v917h173v-917q0 -272 -150 -422z" />
    <glyph glyph-name="V" unicode="V" horiz-adv-x="1343" 
d="M801 535l332 923h180l-541 -1458h-192l-549 1458h182l338 -923q92 -260 125 -363q30 103 125 363z" />
    <glyph glyph-name="W" unicode="W" horiz-adv-x="1957" 
d="M1550 739l199 719h178l-414 -1458h-192l-209 743q-82 293 -133 494q-51 -201 -133 -494l-209 -743h-193l-413 1458h178l199 -719q91 -322 137 -522q89 340 139 526l199 715h192l199 -715q83 -302 139 -526q46 200 137 522z" />
    <glyph glyph-name="X" unicode="X" horiz-adv-x="1308" 
d="M1249 1458l-493 -704l522 -754h-201l-217 315q-50 69 -207 303q-92 -135 -209 -303l-221 -315h-192l526 748l-498 710h201l199 -289q130 -187 196 -290q31 48 201 292l201 287h192z" />
    <glyph glyph-name="Y" unicode="Y" horiz-adv-x="1347" 
d="M909 1118l213 340h195l-557 -872v-586h-172v586l-557 872h196l215 -342q135 -211 234 -377q132 223 233 379z" />
    <glyph glyph-name="Z" unicode="Z" horiz-adv-x="1228" 
d="M678 156h500v-156h-1127v156l643 825q56 74 256 326q-164 -4 -418 -4h-444v155h1075v-155l-647 -826q-40 -52 -256 -325q164 4 418 4z" />
    <glyph glyph-name="bracketleft" unicode="[" horiz-adv-x="647" 
d="M606 -401h-473v2003h473v-144h-309v-1716h309v-143z" />
    <glyph glyph-name="backslash" unicode="\" horiz-adv-x="743" 
d="M713 0h-160l-522 1458h159z" />
    <glyph glyph-name="bracketright" unicode="]" horiz-adv-x="647" 
d="M514 -401h-473v143h309v1716h-309v144h473v-2003z" />
    <glyph glyph-name="asciicircum" unicode="^" horiz-adv-x="890" 
d="M356 1458h179l346 -618h-174l-211 389l-50 90q-3 -3 -8 -13q-6 -12 -18 -33q-23 -40 -25 -44l-211 -389h-174z" />
    <glyph glyph-name="underscore" unicode="_" horiz-adv-x="856" 
d="M858 -348h-860v143h860v-143z" />
    <glyph glyph-name="grave" unicode="`" horiz-adv-x="819" 
d="M608 1217h-145l-252 294h221z" />
    <glyph glyph-name="a" unicode="a" horiz-adv-x="1067" 
d="M987 133h60v-133q-40 -6 -91 -6q-166 0 -178 151q-111 -170 -344 -170q-174 0 -273 81q-100 82 -100 229q0 286 392 327l151 17q166 18 166 145q0 88 -54 127t-184 39q-138 0 -197 -46q-62 -48 -69 -163h-164q21 350 430 350q398 0 398 -307v-590q0 -51 57 -51zM442 115
q130 0 230 80q98 77 98 223v125q-45 -35 -139 -45l-154 -19q-132 -16 -189 -61t-57 -129q0 -80 54 -128q52 -46 157 -46z" />
    <glyph glyph-name="b" unicode="b" horiz-adv-x="1204" 
d="M641 1081q224 0 358 -149q134 -152 134 -404q0 -249 -134 -401q-135 -152 -358 -152q-235 0 -362 189v-164h-156v1458h164v-553q128 176 354 176zM621 123q153 0 246 111q94 112 94 303q0 185 -92 291t-248 106t-248 -107t-92 -299q0 -190 92 -297q91 -108 248 -108z" />
    <glyph glyph-name="c" unicode="c" horiz-adv-x="1067" 
d="M561 -25q-219 0 -354 152q-135 151 -135 401q0 254 135 404q130 149 354 149q187 0 309 -102t146 -281h-170q-18 113 -97 174q-80 62 -188 62q-145 0 -231 -106t-86 -300q0 -192 87 -299q87 -106 230 -106q109 0 189 63t98 176h168q-27 -177 -151 -282
q-125 -105 -304 -105z" />
    <glyph glyph-name="d" unicode="d" horiz-adv-x="1204" 
d="M918 905v553h163v-1458h-155v164q-128 -189 -363 -189q-222 0 -356 152q-135 151 -135 401q0 254 135 404q130 149 356 149q227 0 355 -176zM336 227q91 -104 248 -104q156 0 247 108q93 108 93 297q0 187 -93 297q-92 109 -247 109q-153 0 -247 -112q-93 -111 -93 -302
q0 -187 92 -293z" />
    <glyph glyph-name="e" unicode="e" horiz-adv-x="1116" 
d="M1044 528v-57h-802q12 -172 96 -259t229 -87q219 0 281 197h170q-44 -161 -160 -253q-118 -94 -295 -94q-219 0 -354 150q-137 151 -137 403q0 250 135 402q133 151 352 151q227 0 356 -157q129 -158 129 -396zM559 932q-129 0 -211 -81q-81 -79 -102 -233h622
q-12 141 -94 227q-83 87 -215 87z" />
    <glyph glyph-name="f" unicode="f" horiz-adv-x="655" 
d="M604 1319h-94q-141 0 -141 -150v-112h225v-144h-225v-913h-164v913h-174v144h174v108q0 297 295 297q45 0 104 -4v-139z" />
    <glyph glyph-name="g" unicode="g" horiz-adv-x="1204" 
d="M926 903v154h155v-1016q0 -218 -127 -342q-128 -125 -364 -125q-197 0 -316 90q-118 90 -135 250h164q30 -201 287 -201q328 0 328 328v102q-124 -168 -355 -168q-222 0 -356 152q-135 151 -135 401q0 254 135 404q130 149 356 149q236 0 363 -178zM584 123
q156 0 247 108q93 110 93 297t-93 297q-92 109 -247 109q-154 0 -247 -111t-93 -295t93 -295q92 -110 247 -110z" />
    <glyph glyph-name="h" unicode="h" horiz-adv-x="1105" 
d="M610 1081q176 0 275 -96q98 -95 98 -270v-715h-164v698q0 236 -241 236q-114 0 -203 -86q-88 -85 -88 -250v-598h-164v1458h164v-547q122 170 323 170z" />
    <glyph glyph-name="i" unicode="i" horiz-adv-x="409" 
d="M291 1217h-174v200h174v-200zM287 0h-164v1057h164v-1057z" />
    <glyph glyph-name="j" unicode="j" horiz-adv-x="409" 
d="M291 1217h-174v200h174v-200zM43 -408q-58 0 -88 2v142h68q100 0 100 90v1231h164v-1245q0 -220 -244 -220z" />
    <glyph glyph-name="k" unicode="k" horiz-adv-x="1032" 
d="M1022 0h-191l-356 567l-188 -176v-391h-164v1458h164v-874l489 473h217l-401 -381z" />
    <glyph glyph-name="l" unicode="l" horiz-adv-x="409" 
d="M287 0h-164v1458h164v-1458z" />
    <glyph glyph-name="m" unicode="m" horiz-adv-x="1720" 
d="M1235 1081q173 0 267 -99q95 -100 95 -265v-717h-163v700q0 234 -222 234q-116 0 -193 -93q-77 -94 -77 -263v-578h-164v700q0 234 -221 234q-114 0 -192 -93t-78 -263v-578h-164v1057h156v-156q105 180 305 180q236 0 325 -198q111 198 326 198z" />
    <glyph glyph-name="n" unicode="n" horiz-adv-x="1105" 
d="M610 1081q176 0 275 -96q98 -95 98 -270v-715h-164v698q0 236 -241 236q-114 0 -203 -86q-88 -85 -88 -250v-598h-164v1057h156v-158q121 182 331 182z" />
    <glyph glyph-name="o" unicode="o" horiz-adv-x="1167" 
d="M952 127q-146 -152 -368 -152q-223 0 -369 152q-143 149 -143 401q0 253 143 402q145 151 369 151q223 0 368 -151q144 -150 144 -402q0 -251 -144 -401zM336 231q92 -108 248 -108t247 108q93 108 93 297q0 191 -93 299q-92 107 -247 107q-156 0 -248 -107t-92 -299
q0 -190 92 -297z" />
    <glyph glyph-name="p" unicode="p" horiz-adv-x="1204" 
d="M641 1081q224 0 358 -149q134 -152 134 -404q0 -249 -134 -401q-135 -152 -358 -152q-225 0 -354 177v-553h-164v1458h156v-164q127 188 362 188zM621 123q153 0 246 111q94 112 94 303q0 185 -92 291t-248 106t-248 -107t-92 -299q0 -190 92 -297q91 -108 248 -108z" />
    <glyph glyph-name="q" unicode="q" horiz-adv-x="1204" 
d="M926 893v164h155v-1458h-163v553q-129 -177 -355 -177q-222 0 -356 152q-135 151 -135 401q0 254 135 404q130 149 356 149q236 0 363 -188zM336 227q91 -104 248 -104q156 0 247 108q93 108 93 297q0 187 -93 297q-92 109 -247 109q-153 0 -247 -112q-93 -111 -93 -302
q0 -187 92 -293z" />
    <glyph glyph-name="r" unicode="r" horiz-adv-x="724" 
d="M618 1073q36 0 56 -2v-158h-41q-165 0 -255 -80q-91 -81 -91 -231v-602h-164v1057h156v-187q107 203 339 203z" />
    <glyph glyph-name="s" unicode="s" horiz-adv-x="956" 
d="M496 -25q-425 0 -449 361h166q15 -120 79 -169q65 -50 204 -50q254 0 254 164q0 70 -53 108q-52 37 -189 64l-98 18q-330 61 -330 311q0 137 103 218t282 81q419 0 430 -350h-164q-6 116 -69 162q-64 47 -197 47q-106 0 -164 -41q-57 -41 -57 -115q0 -70 49 -104
q50 -35 164 -59l94 -19q195 -39 279 -110q85 -72 85 -201q0 -151 -111 -233q-112 -83 -308 -83z" />
    <glyph glyph-name="t" unicode="t" horiz-adv-x="636" 
d="M586 1057v-144h-217v-686q0 -90 120 -90h97v-137q-68 -6 -117 -6q-264 0 -264 219v700h-174v144h174v299h164v-299h217z" />
    <glyph glyph-name="u" unicode="u" horiz-adv-x="1105" 
d="M819 459v598h164v-1057h-156v158q-122 -183 -331 -183q-175 0 -275 97q-98 95 -98 270v715h164v-699q0 -235 241 -235q114 0 203 86q88 85 88 250z" />
    <glyph glyph-name="v" unicode="v" horiz-adv-x="1021" 
d="M662 588l174 469h176l-416 -1057h-172l-414 1057h178l174 -471q127 -342 150 -410q43 123 150 412z" />
    <glyph glyph-name="w" unicode="w" horiz-adv-x="1593" 
d="M1257 580l150 477h176l-352 -1057h-172l-156 489q-74 241 -106 359q-41 -150 -109 -359l-153 -489h-173l-352 1057h176l150 -477q52 -164 115 -385q70 248 112 385l148 477h172l147 -477q33 -109 62 -205t41 -135.5t12 -40.5q20 76 112 381z" />
    <glyph glyph-name="x" unicode="x" horiz-adv-x="1015" 
d="M985 1057l-383 -516l404 -541h-193l-57 80q-168 238 -248 344q-128 -173 -252 -346l-55 -78h-191l404 541l-383 516h192l82 -113q143 -193 205 -287q185 260 205 287l80 113h190z" />
    <glyph glyph-name="y" unicode="y" horiz-adv-x="980" 
d="M643 618l150 439h178l-447 -1223q-46 -133 -129 -187q-84 -55 -215 -55q-37 0 -98 7v137h96q142 0 193 131l37 98l-398 1092h180l150 -441q98 -290 152 -456q62 197 151 458z" />
    <glyph glyph-name="z" unicode="z" horiz-adv-x="997" 
d="M502 143h424v-143h-854v123l483 622q3 4 33.5 41.5t48.5 61.5q13 17 26 33.5t20 25t9 11.5q-113 -5 -225 -5h-375v144h805v-123l-483 -623q-7 -9 -35.5 -44t-46.5 -58q-13 -17 -26.5 -33.5t-20.5 -25t-9 -11.5q91 4 226 4z" />
    <glyph glyph-name="braceleft" unicode="{" horiz-adv-x="706" 
d="M666 -401h-138q-278 0 -278 256v544q0 65 -39 96t-129 33v144q89 1 129 34q39 32 39 95v545q0 256 278 256h138v-144h-131q-121 0 -121 -121v-561q0 -85 -38 -128q-37 -41 -122 -46v-4q85 -5 122 -46q38 -43 38 -128v-561q0 -121 121 -121h131v-143z" />
    <glyph glyph-name="bar" unicode="|" horiz-adv-x="413" 
d="M281 -401h-148v2033h148v-2033z" />
    <glyph glyph-name="braceright" unicode="}" horiz-adv-x="706" 
d="M178 -401h-137v143h131q121 0 121 121v561q0 85 38 128q37 41 122 46v4q-85 5 -122 46q-38 43 -38 128v561q0 121 -121 121h-131v144h137q279 0 279 -256v-545q0 -63 39 -95q40 -33 129 -34v-144q-90 -2 -129 -33t-39 -96v-544q0 -256 -279 -256z" />
    <glyph glyph-name="asciitilde" unicode="~" horiz-adv-x="1083" 
d="M739 588q-85 0 -221 78q-112 65 -174 65q-101 0 -119 -133h-143q11 135 79 211q69 76 183 76q77 0 229 -80q120 -64 166 -64q97 0 119 133h143q-11 -135 -78 -210q-69 -76 -184 -76z" />
    <glyph glyph-name="uni00A0" unicode="&#xa0;" horiz-adv-x="389" 
 />
    <glyph glyph-name="exclamdown" unicode="&#xa1;" horiz-adv-x="391" 
d="M299 995h-207v205h207v-205zM283 -258h-172v401l28 676h107l37 -676v-401z" />
    <glyph glyph-name="cent" unicode="&#xa2;" horiz-adv-x="1067" 
d="M631 926v-795q179 39 217 231h168q-23 -158 -126 -260q-102 -101 -259 -122v-218h-144v218q-191 27 -303 174q-112 146 -112 374q0 231 111 378t304 171v209h144v-209q158 -18 261 -119q101 -100 124 -260h-170q-18 91 -76 152q-57 60 -139 76zM244 528q0 -168 65 -268
q66 -102 178 -129v795q-114 -24 -179 -127q-64 -101 -64 -271z" />
    <glyph glyph-name="sterling" unicode="&#xa3;" horiz-adv-x="1124" 
d="M481 510q0 -188 -190 -354h782v-156h-987v156q117 83 169 161q52 79 52 193q0 35 -6 65h-240v142h195q-1 8 -35 71q-94 182 -94 316q0 174 123 280q122 107 325 107q243 0 367 -123q125 -124 131 -334h-178q-12 152 -89 227q-75 74 -239 74q-128 0 -196 -62
q-70 -64 -70 -169q0 -83 80 -254q49 -110 59 -133h449v-142h-412q4 -47 4 -65z" />
    <glyph glyph-name="currency" unicode="&#xa4;" horiz-adv-x="1196" 
d="M1124 1174l-159 -160q98 -117 98 -285q0 -165 -98 -285l159 -159l-106 -107l-164 164q-116 -70 -250 -70q-144 0 -256 76l-170 -170l-106 107l166 166q-93 127 -93 278q0 152 93 279l-166 166l106 106l170 -170q112 76 256 76q134 0 250 -70l164 164zM399 934
q-82 -82 -82 -205t82 -205q79 -82 205 -82q125 0 207 82q80 83 80 205t-80 205q-82 82 -207 82q-126 0 -205 -82z" />
    <glyph glyph-name="yen" unicode="&#xa5;" horiz-adv-x="1347" 
d="M1122 1458h195l-467 -731h268v-141h-358v-154h358v-139h-358v-293h-172v293h-359v139h359v154h-359v141h269l-467 731h196l215 -342q135 -211 234 -377q132 223 233 379z" />
    <glyph glyph-name="brokenbar" unicode="&#xa6;" horiz-adv-x="413" 
d="M281 815h-148v817h148v-817zM281 -418h-148v817h148v-817z" />
    <glyph glyph-name="section" unicode="&#xa7;" horiz-adv-x="1157" 
d="M1106 414q0 -206 -252 -305q121 -105 121 -238q0 -137 -101 -217t-276 -80q-190 0 -292 90q-100 89 -105 260h164q6 -113 64 -161q59 -48 171 -48q211 0 211 156q0 87 -104 160q-24 16 -109 67l-176 105q-193 115 -277 215t-84 233q0 206 252 305q-120 104 -120 238
q0 138 100 217q101 80 276 80q190 0 292 -90q101 -90 106 -260h-164q-6 113 -65 161q-58 48 -171 48q-211 0 -211 -156q0 -89 105 -158q24 -18 108 -69l176 -105q193 -115 277 -215q84 -101 84 -233zM733 195q103 23 157 83t54 136q0 82 -55 146q-54 63 -187 147l-180 108
q-25 15 -88 55q-101 -22 -156 -83t-55 -136q0 -81 56 -146q55 -65 186 -147l180 -108q25 -15 88 -55z" />
    <glyph glyph-name="dieresis" unicode="&#xa8;" horiz-adv-x="819" 
d="M317 1217h-174v200h174v-200zM676 1217h-174v200h174v-200z" />
    <glyph glyph-name="copyright" unicode="&#xa9;" horiz-adv-x="1677" 
d="M1386 188q-219 -221 -548 -221t-547 221q-219 219 -219 541q0 319 219 543q218 221 547 221t548 -221q220 -225 220 -543q0 -321 -220 -541zM838 96q272 0 450 183q178 179 178 450t-178 453t-450 182q-271 0 -449 -182t-178 -453t178 -450q178 -183 449 -183zM846 268
q-184 0 -295 127q-113 125 -113 334q0 211 111 336t297 125q157 0 259 -87q101 -86 122 -237h-150q-17 94 -79 144q-63 51 -152 51q-121 0 -190 -88q-68 -87 -68 -244t68 -243q69 -87 190 -87q89 0 153 52q63 51 78 145h150q-23 -150 -125 -239q-103 -89 -256 -89z" />
    <glyph glyph-name="ordfeminine" unicode="&#xaa;" horiz-adv-x="962" 
d="M893 662h49v-125q-51 -7 -82 -7q-158 0 -170 138q-96 -152 -305 -152q-149 0 -237 71q-87 71 -87 197q0 252 342 287l136 14q73 7 109 37q34 28 34 86q0 72 -46 106t-153 34q-118 0 -168 -40q-51 -41 -57 -139h-160q17 308 385 308q357 0 357 -269v-495q0 -51 53 -51z
M406 643q118 0 197 69t79 191v103q-40 -32 -121 -39l-131 -15q-203 -21 -203 -161q0 -70 46 -109q47 -39 133 -39z" />
    <glyph glyph-name="guillemotleft" unicode="&#xab;" horiz-adv-x="1034" 
d="M481 147l-348 285v191l348 284v-190l-233 -189l233 -190v-191zM553 623l348 284v-190l-233 -189l233 -190v-191l-348 285v191z" />
    <glyph glyph-name="logicalnot" unicode="&#xac;" horiz-adv-x="1083" 
d="M82 717v147h919v-526h-159v379h-760z" />
    <glyph glyph-name="uni00AD" unicode="&#xad;" horiz-adv-x="755" 
d="M674 504h-592v147h592v-147z" />
    <glyph glyph-name="registered" unicode="&#xae;" horiz-adv-x="1165" 
d="M227 1350q145 141 357 141q210 0 356 -141q143 -140 143 -344t-143 -344q-147 -142 -356 -142q-210 0 -357 142q-145 141 -145 344t145 344zM584 616q169 0 282 113q115 115 115 277q0 163 -115 278q-113 113 -282 113q-172 0 -285 -113q-115 -115 -115 -278
q0 -162 115 -277q113 -113 285 -113zM778 907l6 -76q1 -43 25 -79h-92q-20 26 -21 79l-4 54q-4 43 -19 59q-15 17 -52 17h-142v-209h-90v520h221q85 0 134 -38t49 -108q0 -89 -76 -122q55 -21 61 -97zM479 1042h139q82 0 82 74t-90 74h-131v-148z" />
    <glyph glyph-name="overscore" unicode="&#xaf;" horiz-adv-x="819" 
d="M707 1217h-594v137h594v-137z" />
    <glyph glyph-name="degree" unicode="&#xb0;" horiz-adv-x="688" 
d="M530 1047q-77 -74 -186 -74t-186 74q-76 73 -76 178t76 178q78 72 186 72t186 -72q76 -73 76 -178t-76 -178zM344 1096q55 0 92 37t37 92t-37 91q-38 36 -92 36q-55 0 -92 -36t-37 -91q0 -54 38 -92q37 -37 91 -37z" />
    <glyph glyph-name="plusminus" unicode="&#xb1;" horiz-adv-x="1083" 
d="M621 1182v-353h380v-147h-380v-350h-160v350h-379v147h379v353h160zM1001 0h-919v147h919v-147z" />
    <glyph glyph-name="two.sups" unicode="&#xb2;" horiz-adv-x="681" 
d="M184 1210h467v-129h-631l3 58q6 131 66 218q60 86 202 144l57 23q146 60 146 164q0 129 -158 129q-78 0 -118 -42q-40 -41 -40 -112h-147q2 130 81 206q80 77 228 77q144 0 223 -72q80 -72 80 -182q0 -185 -233 -287l-72 -31q-76 -31 -109 -67q-35 -38 -45 -97z" />
    <glyph glyph-name="three.sups" unicode="&#xb3;" horiz-adv-x="714" 
d="M537 1532q65 -22 103 -77t38 -130q0 -117 -88 -189q-90 -73 -236 -73q-156 0 -244 77q-89 78 -90 216h150q0 -170 184 -170q79 0 126 38q46 37 46 105q0 137 -180 137h-55v113h59q160 0 160 125q0 55 -41 87t-113 32q-146 0 -157 -129h-150q7 119 89 186q81 66 218 66
q139 0 221 -62q80 -61 80 -166q0 -125 -120 -186z" />
    <glyph glyph-name="acute" unicode="&#xb4;" horiz-adv-x="819" 
d="M356 1217h-145l176 294h221z" />
    <glyph glyph-name="uni00B5" unicode="&#xb5;" horiz-adv-x="1105" 
d="M819 459v598h164v-1057h-156v158q-122 -183 -331 -183q-118 0 -209 74v-450h-164v1458h164v-699q0 -235 241 -235q114 0 203 86q88 85 88 250z" />
    <glyph glyph-name="paragraph" unicode="&#xb6;" horiz-adv-x="1083" 
d="M670 0h-152v743q-204 0 -327 94q-121 93 -121 259q0 362 483 362h397v-1458h-151v1303h-129v-1303z" />
    <glyph glyph-name="middot" unicode="&#xb7;" horiz-adv-x="391" 
d="M299 627h-207v204h207v-204z" />
    <glyph glyph-name="cedilla" unicode="&#xb8;" horiz-adv-x="819" 
d="M412 -88h18q84 0 134 -45t50 -117q0 -196 -280 -196q-64 0 -125 12v94q61 -8 119 -8q59 0 94 24t35 70q0 84 -117 84q-33 0 -57 -2v78l82 104h133z" />
    <glyph glyph-name="one.sups" unicode="&#xb9;" horiz-adv-x="444" 
d="M262 1927h131v-846h-157v605h-205v110q99 0 150 28q52 28 81 103z" />
    <glyph glyph-name="ordmasculine" unicode="&#xba;" horiz-adv-x="1062" 
d="M532 516q-200 0 -325 131t-125 348q0 220 125 351t325 131q199 0 324 -131t125 -351q0 -217 -125 -348t-324 -131zM328 748q79 -93 204 -93q126 0 205 93q76 88 76 247q0 160 -76 251t-205 91q-130 0 -206 -91t-76 -251q0 -157 78 -247z" />
    <glyph glyph-name="guillemotright" unicode="&#xbb;" horiz-adv-x="1034" 
d="M367 528l-234 189v190l348 -284v-191l-348 -285v191zM553 717v190l348 -284v-191l-348 -285v191l233 190z" />
    <glyph glyph-name="onequarter" unicode="&#xbc;" horiz-adv-x="1501" 
d="M393 1458v-846h-157v605h-205v110q99 0 150 28q52 28 81 103h131zM238 0l778 1458h153l-778 -1458h-153zM1348 334h122v-129h-122v-205h-156v205h-426v149l424 492h158v-512zM1198 334v340l-293 -340h293z" />
    <glyph glyph-name="onehalf" unicode="&#xbd;" horiz-adv-x="1562" 
d="M393 1458v-846h-157v605h-205v110q99 0 150 28q52 28 81 103h131zM238 0l778 1458h153l-778 -1458h-153zM1065 129h467v-129h-631l2 57q6 129 67 218q61 88 201 145l58 22q145 60 145 164q0 129 -157 129q-77 0 -118 -42q-40 -41 -40 -111h-148q1 128 81 205t229 77
q145 0 223 -71q80 -72 80 -183q0 -184 -234 -286l-71 -31q-74 -30 -109 -68t-45 -96z" />
    <glyph glyph-name="threequarters" unicode="&#xbe;" horiz-adv-x="1695" 
d="M678 856q0 -117 -88 -189q-90 -73 -236 -73q-156 0 -244 77q-89 78 -90 216h150q0 -170 184 -170q79 0 126 38q46 37 46 105q0 137 -180 137h-55v113h59q160 0 160 125q0 55 -41 87t-113 32q-146 0 -157 -129h-150q7 119 89 186q81 66 218 66q139 0 221 -62
q80 -61 80 -166q0 -59 -32 -107q-34 -51 -88 -79q65 -22 103 -77t38 -130zM438 0l779 1458h153l-778 -1458h-154zM1542 334h123v-129h-123v-205h-156v205h-425v149l423 492h158v-512zM1393 334v340l-293 -340h293z" />
    <glyph glyph-name="questiondown" unicode="&#xbf;" horiz-adv-x="1038" 
d="M641 995h-207v205h207v-205zM512 -291q-210 0 -331 101q-120 100 -120 286q0 104 52 188t163 179q120 102 154 174q23 50 27 182h161q0 -156 -36 -244q-33 -81 -166 -200q-10 -10 -17 -15q-87 -79 -118 -129l-15 -24q-30 -53 -30 -109q0 -233 270 -233q150 0 226 75
q77 75 87 250h168q-1 -234 -127 -358q-124 -123 -348 -123z" />
    <glyph glyph-name="Agrave" unicode="&#xc0;" horiz-adv-x="1425" 
d="M596 1841l176 -295h-145l-252 295h221zM1395 0h-183l-170 424h-663l-168 -424h-180l581 1458h193zM446 596l-6 -16h541l-8 18q-58 141 -266 674q-128 -341 -261 -676z" />
    <glyph glyph-name="Aacute" unicode="&#xc1;" horiz-adv-x="1425" 
d="M809 1841h221l-252 -295h-145zM1395 0h-183l-170 424h-663l-168 -424h-180l581 1458h193zM446 596l-6 -16h541l-8 18q-58 141 -266 674q-128 -341 -261 -676z" />
    <glyph glyph-name="Acircumflex" unicode="&#xc2;" horiz-adv-x="1425" 
d="M899 1546l-192 199l-193 -199h-164l234 295h245l234 -295h-164zM1395 0h-183l-170 424h-663l-168 -424h-180l581 1458h193zM446 596l-6 -16h541l-8 18q-58 141 -266 674q-128 -341 -261 -676z" />
    <glyph glyph-name="Atilde" unicode="&#xc3;" horiz-adv-x="1425" 
d="M557 1649q-57 0 -57 -103h-140q0 252 185 252q65 0 178 -57q84 -45 129 -45q57 0 57 102h140q0 -252 -185 -252q-57 0 -186 60q-89 43 -121 43zM1395 0h-183l-170 424h-663l-168 -424h-180l581 1458h193zM446 596l-6 -16h541l-8 18q-58 141 -266 674q-128 -341 -261 -676
z" />
    <glyph glyph-name="Adieresis" unicode="&#xc4;" horiz-adv-x="1425" 
d="M438 1747h174v-201h-174v201zM797 1747h174v-201h-174v201zM1395 0h-183l-170 424h-663l-168 -424h-180l581 1458h193zM446 596l-6 -16h541l-8 18q-58 141 -266 674q-128 -341 -261 -676z" />
    <glyph glyph-name="Aring" unicode="&#xc5;" horiz-adv-x="1425" 
d="M1395 0h-183l-170 424h-663l-168 -424h-180l547 1370q-132 70 -132 219q0 106 75 178t186 72q110 0 185 -72t75 -178q0 -145 -127 -217zM801 1683q-38 37 -94 37q-57 0 -95 -37q-39 -39 -39 -94t39 -92q39 -39 95 -39q55 0 94 39q39 37 39 92t-39 94zM446 596l-6 -16h541
l-8 18q-58 141 -266 674q-128 -341 -261 -676z" />
    <glyph glyph-name="AE" unicode="&#xc6;" horiz-adv-x="2113" 
d="M2062 1458v-155h-780v-465h698v-156h-698v-526h772v-156h-944v424h-661l-228 -424h-190l788 1458h1243zM922 1303l-390 -723h578v723h-188z" />
    <glyph glyph-name="Ccedilla" unicode="&#xc7;" horiz-adv-x="1435" 
d="M1202 530h172q-24 -247 -182 -393q-155 -143 -377 -166l-80 -92h19q84 0 134 -45t50 -117q0 -196 -281 -196q-63 0 -125 12v94q61 -8 119 -8t94 25q35 24 35 69q0 84 -116 84q-34 0 -58 -2v78l76 96q-271 21 -440 228q-170 206 -170 532q0 349 188 555q189 207 485 207
q235 0 402 -128q166 -127 219 -374h-174q-92 344 -447 344q-223 0 -358 -159q-135 -162 -135 -445t135 -442q135 -162 358 -162q170 0 299 104q130 101 158 301z" />
    <glyph glyph-name="Egrave" unicode="&#xc8;" horiz-adv-x="1198" 
d="M530 1841l177 -295h-146l-252 295h221zM1147 1458v-155h-842v-465h760v-156h-760v-526h834v-156h-1006v1458h1014z" />
    <glyph glyph-name="Eacute" unicode="&#xc9;" horiz-adv-x="1198" 
d="M743 1841h222l-252 -295h-146zM1147 1458v-155h-842v-465h760v-156h-760v-526h834v-156h-1006v1458h1014z" />
    <glyph glyph-name="Ecircumflex" unicode="&#xca;" horiz-adv-x="1198" 
d="M834 1546l-193 199l-192 -199h-164l233 295h246l233 -295h-163zM1147 1458v-155h-842v-465h760v-156h-760v-526h834v-156h-1006v1458h1014z" />
    <glyph glyph-name="Edieresis" unicode="&#xcb;" horiz-adv-x="1198" 
d="M373 1747h174v-201h-174v201zM731 1747h174v-201h-174v201zM1147 1458v-155h-842v-465h760v-156h-760v-526h834v-156h-1006v1458h1014z" />
    <glyph glyph-name="Igrave" unicode="&#xcc;" horiz-adv-x="438" 
d="M283 1546h-133l-183 295h201zM305 0h-172v1458h172v-1458z" />
    <glyph glyph-name="Iacute" unicode="&#xcd;" horiz-adv-x="438" 
d="M469 1841l-182 -295h-133l114 295h201zM305 0h-172v1458h172v-1458z" />
    <glyph glyph-name="Icircumflex" unicode="&#xce;" horiz-adv-x="438" 
d="M102 1841h234l192 -295h-153l-158 201l-154 -201h-153zM305 0h-172v1458h172v-1458z" />
    <glyph glyph-name="Idieresis" unicode="&#xcf;" horiz-adv-x="438" 
d="M154 1546h-174v201h174v-201zM459 1546h-174v201h174v-201zM305 0h-172v1458h172v-1458z" />
    <glyph glyph-name="Eth" unicode="&#xd0;" horiz-adv-x="1449" 
d="M172 1458h492q332 0 524 -192q190 -191 190 -537q0 -340 -190 -534q-195 -195 -524 -195h-492v684h-172v133h172v641zM344 156h320q258 0 396 151q138 152 138 422q0 271 -138 422q-138 152 -396 152h-320v-486h404v-133h-404v-528z" />
    <glyph glyph-name="Ntilde" unicode="&#xd1;" horiz-adv-x="1425" 
d="M563 1649q-57 0 -57 -103h-139q0 252 184 252q65 0 178 -57q84 -45 129 -45q57 0 57 102h140q0 -252 -185 -252q-57 0 -186 60q-87 43 -121 43zM1122 967v491h170v-1458h-209l-483 752q-213 338 -303 493q6 -287 6 -753v-492h-170v1458h209l483 -751q204 -325 303 -494
q-6 286 -6 754z" />
    <glyph glyph-name="Ograve" unicode="&#xd2;" horiz-adv-x="1540" 
d="M836 1579h-146l-252 295h221zM1278 178q-192 -211 -508 -211t-506 211q-192 207 -192 551q0 341 192 553q191 209 506 209q316 0 508 -209q190 -212 190 -553q0 -343 -190 -551zM393 289q141 -164 377 -164t377 164q141 162 141 440t-141 440q-141 164 -377 164
t-377 -164q-141 -162 -141 -440t141 -440z" />
    <glyph glyph-name="Oacute" unicode="&#xd3;" horiz-adv-x="1540" 
d="M842 1579h-146l176 295h222zM1278 178q-192 -211 -508 -211t-506 211q-192 207 -192 551q0 341 192 553q191 209 506 209q316 0 508 -209q190 -212 190 -553q0 -343 -190 -551zM393 289q141 -164 377 -164t377 164q141 162 141 440t-141 440q-141 164 -377 164t-377 -164
q-141 -162 -141 -440t141 -440z" />
    <glyph glyph-name="Ocircumflex" unicode="&#xd4;" horiz-adv-x="1540" 
d="M963 1579l-193 199l-192 -199h-164l233 295h246l233 -295h-163zM264 1282q191 209 506 209q316 0 508 -209q190 -212 190 -553q0 -343 -190 -551q-192 -211 -508 -211t-506 211q-192 207 -192 551q0 341 192 553zM393 289q141 -164 377 -164t377 164q141 162 141 440
t-141 440q-141 164 -377 164t-377 -164q-141 -162 -141 -440t141 -440z" />
    <glyph glyph-name="Otilde" unicode="&#xd5;" horiz-adv-x="1540" 
d="M563 1579h-139q0 252 184 252q66 0 178 -57q84 -45 129 -45q58 0 58 102h139q0 -252 -184 -252q-60 0 -187 59q-89 43 -120 43q-58 0 -58 -102zM1278 178q-192 -211 -508 -211t-506 211q-192 207 -192 551q0 341 192 553q191 209 506 209q316 0 508 -209
q190 -212 190 -553q0 -343 -190 -551zM393 289q141 -164 377 -164t377 164q141 162 141 440t-141 440q-141 164 -377 164t-377 -164q-141 -162 -141 -440t141 -440z" />
    <glyph glyph-name="Odieresis" unicode="&#xd6;" horiz-adv-x="1540" 
d="M676 1579h-174v201h174v-201zM1034 1579h-174v201h174v-201zM1278 178q-192 -211 -508 -211t-506 211q-192 207 -192 551q0 341 192 553q191 209 506 209q316 0 508 -209q190 -212 190 -553q0 -343 -190 -551zM393 289q141 -164 377 -164t377 164q141 162 141 440
t-141 440q-141 164 -377 164t-377 -164q-141 -162 -141 -440t141 -440z" />
    <glyph glyph-name="multiply" unicode="&#xd7;" horiz-adv-x="1083" 
d="M850 1141l104 -105l-307 -307l307 -307l-104 -105l-307 308l-310 -308l-104 105l307 307l-307 307l104 105l310 -307z" />
    <glyph glyph-name="Oslash" unicode="&#xd8;" horiz-adv-x="1540" 
d="M1399 1546l108 -96l-190 -215q151 -206 151 -506q0 -343 -190 -551q-192 -211 -508 -211q-264 0 -444 150l-185 -207l-108 96l192 217q-153 201 -153 506q0 341 192 553q191 209 506 209q260 0 447 -152zM252 729q0 -222 92 -373l760 858q-134 119 -334 119
q-236 0 -377 -164q-141 -162 -141 -440zM1288 729q0 215 -90 371l-760 -856q134 -119 332 -119q236 0 377 164q141 162 141 440z" />
    <glyph glyph-name="Ugrave" unicode="&#xd9;" horiz-adv-x="1372" 
d="M752 1546h-146l-252 295h221zM1110 119q-150 -150 -424 -150t-424 150q-149 149 -149 422v917h172v-917q0 -416 401 -416t401 416v917h173v-917q0 -272 -150 -422z" />
    <glyph glyph-name="Uacute" unicode="&#xda;" horiz-adv-x="1372" 
d="M758 1546h-146l176 295h222zM1110 119q-150 -150 -424 -150t-424 150q-149 149 -149 422v917h172v-917q0 -416 401 -416t401 416v917h173v-917q0 -272 -150 -422z" />
    <glyph glyph-name="Ucircumflex" unicode="&#xdb;" horiz-adv-x="1372" 
d="M879 1546l-193 199l-192 -199h-164l233 295h246l233 -295h-163zM1087 541v917h173v-917q0 -272 -150 -422t-424 -150t-424 150q-149 149 -149 422v917h172v-917q0 -416 401 -416t401 416z" />
    <glyph glyph-name="Udieresis" unicode="&#xdc;" horiz-adv-x="1372" 
d="M592 1546h-174v201h174v-201zM950 1546h-174v201h174v-201zM1110 119q-150 -150 -424 -150t-424 150q-149 149 -149 422v917h172v-917q0 -416 401 -416t401 416v917h173v-917q0 -272 -150 -422z" />
    <glyph glyph-name="Yacute" unicode="&#xdd;" horiz-adv-x="1347" 
d="M776 1841h221l-252 -295h-145zM909 1118l213 340h195l-557 -872v-586h-172v586l-557 872h196l215 -342q135 -211 234 -377q132 223 233 379z" />
    <glyph glyph-name="Thorn" unicode="&#xde;" horiz-adv-x="1292" 
d="M305 1178h434q233 0 358 -121q126 -122 126 -328q0 -207 -126 -328q-124 -120 -358 -120h-434v-281h-172v1458h172v-280zM305 436h434q153 0 229 75t76 218t-76 218t-229 75h-434v-586z" />
    <glyph glyph-name="germandbls" unicode="&#xdf;" horiz-adv-x="1122" 
d="M762 791q135 -45 212 -143t77 -224q0 -200 -138 -315t-372 -115q-37 0 -105 6v143q60 -6 105 -6q155 0 246 75q92 75 92 212q0 128 -87 204q-88 77 -247 77h-74v149h70q116 0 189 68t73 182q0 106 -71 175q-70 69 -187 69q-124 0 -191 -76t-67 -203v-1069h-164v1059
q0 201 111 316q111 116 311 116q189 0 309 -109q115 -112 115 -260q0 -226 -207 -331z" />
    <glyph glyph-name="agrave" unicode="&#xe0;" horiz-adv-x="1067" 
d="M432 1511l176 -294h-145l-252 294h221zM987 133h60v-133q-40 -6 -91 -6q-166 0 -178 151q-111 -170 -344 -170q-174 0 -273 81q-100 82 -100 229q0 286 392 327l151 17q166 18 166 145q0 88 -54 127t-184 39q-138 0 -197 -46q-62 -48 -69 -163h-164q21 350 430 350
q398 0 398 -307v-590q0 -51 57 -51zM442 115q130 0 230 80q98 77 98 223v125q-45 -35 -139 -45l-154 -19q-132 -16 -189 -61t-57 -129q0 -80 54 -128q52 -46 157 -46z" />
    <glyph glyph-name="aacute" unicode="&#xe1;" horiz-adv-x="1067" 
d="M641 1511h221l-252 -294h-145zM987 133h60v-133q-40 -6 -91 -6q-166 0 -178 151q-111 -170 -344 -170q-174 0 -273 81q-100 82 -100 229q0 286 392 327l151 17q166 18 166 145q0 88 -54 127t-184 39q-138 0 -197 -46q-62 -48 -69 -163h-164q21 350 430 350
q398 0 398 -307v-590q0 -51 57 -51zM442 115q130 0 230 80q98 77 98 223v125q-45 -35 -139 -45l-154 -19q-132 -16 -189 -61t-57 -129q0 -80 54 -128q52 -46 157 -46z" />
    <glyph glyph-name="acircumflex" unicode="&#xe2;" horiz-adv-x="1067" 
d="M725 1217l-193 198l-192 -198h-164l234 294h245l234 -294h-164zM987 133h60v-133q-40 -6 -91 -6q-166 0 -178 151q-111 -170 -344 -170q-174 0 -273 81q-100 82 -100 229q0 286 392 327l151 17q166 18 166 145q0 88 -54 127t-184 39q-138 0 -197 -46q-62 -48 -69 -163
h-164q21 350 430 350q398 0 398 -307v-590q0 -51 57 -51zM442 115q130 0 230 80q98 77 98 223v125q-45 -35 -139 -45l-154 -19q-132 -16 -189 -61t-57 -129q0 -80 54 -128q52 -46 157 -46z" />
    <glyph glyph-name="atilde" unicode="&#xe3;" horiz-adv-x="1067" 
d="M383 1319q-57 0 -57 -102h-140q0 251 185 251q65 0 178 -57q84 -45 129 -45q57 0 57 102h139q0 -251 -184 -251q-59 0 -186 59q-89 43 -121 43zM987 133h60v-133q-40 -6 -91 -6q-166 0 -178 151q-111 -170 -344 -170q-174 0 -273 81q-100 82 -100 229q0 286 392 327
l151 17q166 18 166 145q0 88 -54 127t-184 39q-138 0 -197 -46q-62 -48 -69 -163h-164q21 350 430 350q398 0 398 -307v-590q0 -51 57 -51zM442 115q130 0 230 80q98 77 98 223v125q-45 -35 -139 -45l-154 -19q-132 -16 -189 -61t-57 -129q0 -80 54 -128q52 -46 157 -46z
" />
    <glyph glyph-name="adieresis" unicode="&#xe4;" horiz-adv-x="1067" 
d="M264 1417h174v-200h-174v200zM623 1417h174v-200h-174v200zM987 133h60v-133q-40 -6 -91 -6q-166 0 -178 151q-111 -170 -344 -170q-174 0 -273 81q-100 82 -100 229q0 286 392 327l151 17q166 18 166 145q0 88 -54 127t-184 39q-138 0 -197 -46q-62 -48 -69 -163h-164
q21 350 430 350q398 0 398 -307v-590q0 -51 57 -51zM442 115q130 0 230 80q98 77 98 223v125q-45 -35 -139 -45l-154 -19q-132 -16 -189 -61t-57 -129q0 -80 54 -128q52 -46 157 -46z" />
    <glyph glyph-name="aring" unicode="&#xe5;" horiz-adv-x="1067" 
d="M719 1278q-78 -72 -187 -72q-108 0 -184 72q-76 69 -76 178t76 178q76 72 184 72q109 0 187 -72q74 -69 74 -178t-74 -178zM627 1550q-38 37 -95 37q-56 0 -94 -37q-39 -39 -39 -94q0 -54 39 -92q39 -39 94 -39q56 0 95 39q39 38 39 92q0 55 -39 94zM987 133h60v-133
q-40 -6 -91 -6q-166 0 -178 151q-111 -170 -344 -170q-174 0 -273 81q-100 82 -100 229q0 286 392 327l151 17q166 18 166 145q0 88 -54 127t-184 39q-138 0 -197 -46q-62 -48 -69 -163h-164q21 350 430 350q398 0 398 -307v-590q0 -51 57 -51zM442 115q130 0 230 80
q98 77 98 223v125q-45 -35 -139 -45l-154 -19q-132 -16 -189 -61t-57 -129q0 -80 54 -128q52 -46 157 -46z" />
    <glyph glyph-name="ae" unicode="&#xe6;" horiz-adv-x="1767" 
d="M1696 528v-57h-764q12 -171 92 -259q80 -87 217 -87q209 0 266 197h162q-38 -162 -150 -253q-115 -94 -282 -94q-257 0 -387 220q-67 -105 -176 -162q-110 -58 -240 -58q-174 0 -273 81q-100 82 -100 229q0 286 392 327l151 17q166 18 166 145q0 88 -54 127t-184 39
q-138 0 -197 -46q-62 -48 -69 -163h-164q21 350 430 350q281 0 363 -155q128 155 338 155q217 0 340 -157q123 -156 123 -396zM1233 932q-123 0 -201 -81t-96 -233h592q-12 143 -90 228q-78 86 -205 86zM442 115q130 0 230 80q98 77 98 223v125q-45 -35 -139 -45l-154 -19
q-132 -16 -189 -61t-57 -129q0 -80 54 -128q52 -46 157 -46z" />
    <glyph glyph-name="ccedilla" unicode="&#xe7;" horiz-adv-x="1067" 
d="M561 123q109 0 189 63t98 176h168q-22 -151 -118 -253q-95 -101 -243 -125l-84 -97h19q84 0 134 -45t50 -116q0 -197 -280 -197q-64 0 -125 12v94q61 -8 118 -8q59 0 95 25q34 24 34 69q0 84 -116 84q-34 0 -58 -2v78l76 96q-203 16 -325 165q-121 148 -121 386
q0 254 135 404q130 149 354 149q187 0 309 -102t146 -281h-170q-18 113 -97 174q-80 62 -188 62q-145 0 -231 -106t-86 -300q0 -192 87 -299q87 -106 230 -106z" />
    <glyph glyph-name="egrave" unicode="&#xe8;" horiz-adv-x="1116" 
d="M459 1511l176 -294h-146l-251 294h221zM1044 528v-57h-802q12 -172 96 -259t229 -87q219 0 281 197h170q-44 -161 -160 -253q-118 -94 -295 -94q-219 0 -354 150q-137 151 -137 403q0 250 135 402q133 151 352 151q227 0 356 -157q129 -158 129 -396zM559 932
q-129 0 -211 -81q-81 -79 -102 -233h622q-12 141 -94 227q-83 87 -215 87z" />
    <glyph glyph-name="eacute" unicode="&#xe9;" horiz-adv-x="1116" 
d="M668 1511h221l-252 -294h-145zM1044 528v-57h-802q12 -172 96 -259t229 -87q219 0 281 197h170q-44 -161 -160 -253q-118 -94 -295 -94q-219 0 -354 150q-137 151 -137 403q0 250 135 402q133 151 352 151q227 0 356 -157q129 -158 129 -396zM559 932q-129 0 -211 -81
q-81 -79 -102 -233h622q-12 141 -94 227q-83 87 -215 87z" />
    <glyph glyph-name="ecircumflex" unicode="&#xea;" horiz-adv-x="1116" 
d="M752 1217l-193 198l-192 -198h-164l233 294h246l233 -294h-163zM1044 528v-57h-802q12 -172 96 -259t229 -87q219 0 281 197h170q-44 -161 -160 -253q-118 -94 -295 -94q-219 0 -354 150q-137 151 -137 403q0 250 135 402q133 151 352 151q227 0 356 -157
q129 -158 129 -396zM559 932q-129 0 -211 -81q-81 -79 -102 -233h622q-12 141 -94 227q-83 87 -215 87z" />
    <glyph glyph-name="edieresis" unicode="&#xeb;" horiz-adv-x="1116" 
d="M291 1417h174v-200h-174v200zM649 1417h174v-200h-174v200zM1044 528v-57h-802q12 -172 96 -259t229 -87q219 0 281 197h170q-44 -161 -160 -253q-118 -94 -295 -94q-219 0 -354 150q-137 151 -137 403q0 250 135 402q133 151 352 151q227 0 356 -157q129 -158 129 -396z
M559 932q-129 0 -211 -81q-81 -79 -102 -233h622q-12 141 -94 227q-83 87 -215 87z" />
    <glyph glyph-name="igrave" unicode="&#xec;" horiz-adv-x="409" 
d="M268 1217h-133l-182 294h201zM287 0h-164v1057h164v-1057z" />
    <glyph glyph-name="iacute" unicode="&#xed;" horiz-adv-x="409" 
d="M274 1217h-133l115 294h201zM287 0h-164v1057h164v-1057z" />
    <glyph glyph-name="icircumflex" unicode="&#xee;" horiz-adv-x="409" 
d="M88 1511h234l192 -294h-154l-157 200l-154 -200h-153zM287 0h-164v1057h164v-1057z" />
    <glyph glyph-name="idieresis" unicode="&#xef;" horiz-adv-x="409" 
d="M139 1217h-174v200h174v-200zM444 1217h-174v200h174v-200zM287 0h-164v1057h164v-1057z" />
    <glyph glyph-name="eth" unicode="&#xf0;" horiz-adv-x="1161" 
d="M983 1329l-223 -69q330 -392 330 -723q0 -261 -140 -412q-136 -150 -366 -150q-223 0 -369 148q-143 143 -143 383q0 241 143 385q141 145 367 145q126 0 221 -69q-68 112 -187 245l-299 -94v137l199 64l-131 139h195l84 -92l319 102v-139zM338 227q91 -104 246 -104
q153 0 247 104q93 102 93 279q0 176 -91 279q-92 104 -249 104q-154 0 -247 -104q-93 -103 -93 -279q0 -179 94 -279z" />
    <glyph glyph-name="ntilde" unicode="&#xf1;" horiz-adv-x="1105" 
d="M408 1319q-58 0 -58 -102h-139q0 251 184 251q66 0 178 -57q84 -45 129 -45q58 0 58 102h139q0 -251 -184 -251q-60 0 -187 59q-87 43 -120 43zM610 1081q176 0 275 -96q98 -95 98 -270v-715h-164v698q0 236 -241 236q-114 0 -203 -86q-88 -85 -88 -250v-598h-164v1057
h156v-158q121 182 331 182z" />
    <glyph glyph-name="ograve" unicode="&#xf2;" horiz-adv-x="1167" 
d="M659 1217h-145l-252 294h221zM952 127q-146 -152 -368 -152q-223 0 -369 152q-143 149 -143 401q0 253 143 402q145 151 369 151q223 0 368 -151q144 -150 144 -402q0 -251 -144 -401zM336 231q92 -108 248 -108t247 108q93 108 93 297q0 191 -93 299q-92 107 -247 107
q-156 0 -248 -107t-92 -299q0 -190 92 -297z" />
    <glyph glyph-name="oacute" unicode="&#xf3;" horiz-adv-x="1167" 
d="M662 1217h-146l176 294h221zM952 127q-146 -152 -368 -152q-223 0 -369 152q-143 149 -143 401q0 253 143 402q145 151 369 151q223 0 368 -151q144 -150 144 -402q0 -251 -144 -401zM336 231q92 -108 248 -108t247 108q93 108 93 297q0 191 -93 299q-92 107 -247 107
q-156 0 -248 -107t-92 -299q0 -190 92 -297z" />
    <glyph glyph-name="ocircumflex" unicode="&#xf4;" horiz-adv-x="1167" 
d="M776 1217l-192 198l-193 -198h-164l234 294h246l233 -294h-164zM215 930q145 151 369 151q223 0 368 -151q144 -150 144 -402q0 -251 -144 -401q-146 -152 -368 -152q-223 0 -369 152q-143 149 -143 401q0 253 143 402zM336 231q92 -108 248 -108t247 108q93 108 93 297
q0 191 -93 299q-92 107 -247 107q-156 0 -248 -107t-92 -299q0 -190 92 -297z" />
    <glyph glyph-name="otilde" unicode="&#xf5;" horiz-adv-x="1167" 
d="M377 1217h-139q0 251 184 251q65 0 178 -57q84 -45 129 -45q57 0 57 102h140q0 -251 -185 -251q-59 0 -186 59q-89 43 -121 43q-57 0 -57 -102zM952 127q-146 -152 -368 -152q-223 0 -369 152q-143 149 -143 401q0 253 143 402q145 151 369 151q223 0 368 -151
q144 -150 144 -402q0 -251 -144 -401zM336 231q92 -108 248 -108t247 108q93 108 93 297q0 191 -93 299q-92 107 -247 107q-156 0 -248 -107t-92 -299q0 -190 92 -297z" />
    <glyph glyph-name="odieresis" unicode="&#xf6;" horiz-adv-x="1167" 
d="M489 1217h-174v200h174v-200zM848 1217h-174v200h174v-200zM952 127q-146 -152 -368 -152q-223 0 -369 152q-143 149 -143 401q0 253 143 402q145 151 369 151q223 0 368 -151q144 -150 144 -402q0 -251 -144 -401zM336 231q92 -108 248 -108t247 108q93 108 93 297
q0 191 -93 299q-92 107 -247 107q-156 0 -248 -107t-92 -299q0 -190 92 -297z" />
    <glyph glyph-name="divide" unicode="&#xf7;" horiz-adv-x="1083" 
d="M625 989h-166v193h166v-193zM1001 655h-919v148h919v-148zM625 276h-166v193h166v-193z" />
    <glyph glyph-name="oslash" unicode="&#xf8;" horiz-adv-x="1165" 
d="M1022 1141l102 -90l-139 -160q111 -150 111 -363q0 -251 -144 -401q-146 -152 -368 -152q-177 0 -305 95l-136 -156l-102 90l141 162q-110 149 -110 362q0 253 143 402q145 151 369 151q178 0 305 -94zM244 528q0 -140 49 -231l493 571q-84 66 -202 66q-156 0 -248 -109
t-92 -297zM924 528q0 131 -50 234l-493 -574q83 -65 203 -65q156 0 247 108q93 110 93 297z" />
    <glyph glyph-name="ugrave" unicode="&#xf9;" horiz-adv-x="1105" 
d="M442 1511l176 -294h-145l-252 294h221zM819 459v598h164v-1057h-156v158q-122 -183 -331 -183q-175 0 -275 97q-98 95 -98 270v715h164v-699q0 -235 241 -235q114 0 203 86q88 85 88 250z" />
    <glyph glyph-name="uacute" unicode="&#xfa;" horiz-adv-x="1105" 
d="M651 1511h221l-251 -294h-146zM819 459v598h164v-1057h-156v158q-122 -183 -331 -183q-175 0 -275 97q-98 95 -98 270v715h164v-699q0 -235 241 -235q114 0 203 86q88 85 88 250z" />
    <glyph glyph-name="ucircumflex" unicode="&#xfb;" horiz-adv-x="1105" 
d="M735 1217l-192 198l-193 -198h-164l234 294h246l233 -294h-164zM819 459v598h164v-1057h-156v158q-122 -183 -331 -183q-175 0 -275 97q-98 95 -98 270v715h164v-699q0 -235 241 -235q114 0 203 86q88 85 88 250z" />
    <glyph glyph-name="udieresis" unicode="&#xfc;" horiz-adv-x="1105" 
d="M274 1417h175v-200h-175v200zM633 1417h174v-200h-174v200zM819 459v598h164v-1057h-156v158q-122 -183 -331 -183q-175 0 -275 97q-98 95 -98 270v715h164v-699q0 -235 241 -235q114 0 203 86q88 85 88 250z" />
    <glyph glyph-name="yacute" unicode="&#xfd;" horiz-adv-x="980" 
d="M600 1511h221l-252 -294h-145zM643 618l150 439h178l-447 -1223q-46 -133 -129 -187q-84 -55 -215 -55q-37 0 -98 7v137h96q142 0 193 131l37 98l-398 1092h180l150 -441q98 -290 152 -456q62 197 151 458z" />
    <glyph glyph-name="thorn" unicode="&#xfe;" horiz-adv-x="1204" 
d="M641 1081q224 0 358 -149q134 -152 134 -404q0 -249 -134 -401q-135 -152 -358 -152q-225 0 -354 177v-553h-164v1859h164v-553q128 176 354 176zM621 123q153 0 246 111q94 112 94 303q0 185 -92 291t-248 106t-248 -107t-92 -299q0 -190 92 -297q91 -108 248 -108z" />
    <glyph glyph-name="ydieresis" unicode="&#xff;" horiz-adv-x="980" 
d="M223 1417h174v-200h-174v200zM582 1417h174v-200h-174v200zM643 618l150 439h178l-447 -1223q-46 -133 -129 -187q-84 -55 -215 -55q-37 0 -98 7v137h96q142 0 193 131l37 98l-398 1092h180l150 -441q98 -290 152 -456q62 197 151 458z" />
    <glyph glyph-name="Amacron" unicode="&#x100;" horiz-adv-x="1425" 
d="M410 1683h594v-137h-594v137zM1395 0h-183l-170 424h-663l-168 -424h-180l581 1458h193zM446 596l-6 -16h541l-8 18q-58 141 -266 674q-128 -341 -261 -676z" />
    <glyph glyph-name="amacron" unicode="&#x101;" horiz-adv-x="1067" 
d="M236 1354h593v-137h-593v137zM987 133h60v-133q-40 -6 -91 -6q-166 0 -178 151q-111 -170 -344 -170q-174 0 -273 81q-100 82 -100 229q0 286 392 327l151 17q166 18 166 145q0 88 -54 127t-184 39q-138 0 -197 -46q-62 -48 -69 -163h-164q21 350 430 350q398 0 398 -307
v-590q0 -51 57 -51zM442 115q130 0 230 80q98 77 98 223v125q-45 -35 -139 -45l-154 -19q-132 -16 -189 -61t-57 -129q0 -80 54 -128q52 -46 157 -46z" />
    <glyph glyph-name="Abreve" unicode="&#x102;" horiz-adv-x="1425" 
d="M707 1536q-135 0 -223 83q-87 83 -93 222h141q6 -84 53 -128t122 -44q74 0 121 44t53 128h141q-10 -139 -96 -222t-219 -83zM1395 0h-183l-170 424h-663l-168 -424h-180l581 1458h193zM446 596l-6 -16h541l-8 18q-58 141 -266 674q-128 -341 -261 -676z" />
    <glyph glyph-name="abreve" unicode="&#x103;" horiz-adv-x="1067" 
d="M532 1206q-134 0 -222 83q-87 83 -93 222h141q6 -84 53 -128t121 -44q75 0 122 44t53 128h141q-10 -139 -96 -222t-220 -83zM987 133h60v-133q-40 -6 -91 -6q-166 0 -178 151q-111 -170 -344 -170q-174 0 -273 81q-100 82 -100 229q0 286 392 327l151 17q166 18 166 145
q0 88 -54 127t-184 39q-138 0 -197 -46q-62 -48 -69 -163h-164q21 350 430 350q398 0 398 -307v-590q0 -51 57 -51zM442 115q130 0 230 80q98 77 98 223v125q-45 -35 -139 -45l-154 -19q-132 -16 -189 -61t-57 -129q0 -80 54 -128q52 -46 157 -46z" />
    <glyph glyph-name="Aogonek" unicode="&#x104;" horiz-adv-x="1425" 
d="M1182 -205q0 -41 28 -63q29 -23 74 -23q62 0 111 21v-133q-57 -23 -140 -23q-97 0 -163 51t-66 139q0 71 58 136t155 100h-27l-170 424h-663l-168 -424h-180l581 1458h193l590 -1458q-213 -105 -213 -205zM446 596l-6 -16h541l-8 18q-58 141 -266 674
q-128 -341 -261 -676z" />
    <glyph glyph-name="aogonek" unicode="&#x105;" horiz-adv-x="1067" 
d="M1047 133v-133q-213 -105 -213 -207q0 -41 28 -62q30 -22 74 -22q62 0 111 21v-133q-57 -23 -140 -23q-97 0 -163 51t-66 135q0 150 209 242q-101 29 -109 143q-111 -170 -344 -170q-174 0 -273 81q-100 82 -100 229q0 286 392 327l151 17q166 18 166 145q0 88 -54 127
t-184 39q-138 0 -197 -46q-62 -48 -69 -163h-164q21 350 430 350q398 0 398 -307v-590q0 -51 57 -51h60zM442 115q130 0 230 80q98 77 98 223v125q-45 -35 -139 -45l-154 -19q-132 -16 -189 -61t-57 -129q0 -80 54 -128q52 -46 157 -46z" />
    <glyph glyph-name="Cacute" unicode="&#x106;" horiz-adv-x="1435" 
d="M817 1579h-145l176 295h221zM745 -33q-296 0 -485 207q-188 206 -188 555t188 555q189 207 485 207q235 0 402 -128q166 -127 219 -374h-174q-92 344 -447 344q-223 0 -358 -159q-135 -162 -135 -445t135 -442q135 -162 358 -162q170 0 299 104q130 101 158 301h172
q-28 -271 -207 -415q-181 -148 -422 -148z" />
    <glyph glyph-name="cacute" unicode="&#x107;" horiz-adv-x="1067" 
d="M639 1217h-145l176 294h221zM561 -25q-219 0 -354 152q-135 151 -135 401q0 254 135 404q130 149 354 149q187 0 309 -102t146 -281h-170q-18 113 -97 174q-80 62 -188 62q-145 0 -231 -106t-86 -300q0 -192 87 -299q87 -106 230 -106q109 0 189 63t98 176h168
q-27 -177 -151 -282q-125 -105 -304 -105z" />
    <glyph glyph-name="Ccircumflex" unicode="&#x108;" horiz-adv-x="1435" 
d="M938 1579l-193 199l-192 -199h-164l234 295h245l234 -295h-164zM1202 530h172q-28 -271 -207 -415q-181 -148 -422 -148q-296 0 -485 207q-188 206 -188 555t188 555q189 207 485 207q235 0 402 -128q166 -127 219 -374h-174q-92 344 -447 344q-223 0 -358 -159
q-135 -162 -135 -445t135 -442q135 -162 358 -162q170 0 299 104q130 101 158 301z" />
    <glyph glyph-name="ccircumflex" unicode="&#x109;" horiz-adv-x="1067" 
d="M754 1217l-193 198l-192 -198h-164l233 294h246l234 -294h-164zM561 123q109 0 189 63t98 176h168q-27 -177 -151 -282q-125 -105 -304 -105q-219 0 -354 152q-135 151 -135 401q0 254 135 404q130 149 354 149q187 0 309 -102t146 -281h-170q-18 113 -97 174
q-80 62 -188 62q-145 0 -231 -106t-86 -300q0 -192 87 -299q87 -106 230 -106z" />
    <glyph glyph-name="Cdotaccent" unicode="&#x10a;" horiz-adv-x="1435" 
d="M831 1579h-176v201h176v-201zM745 -33q-296 0 -485 207q-188 206 -188 555t188 555q189 207 485 207q235 0 402 -128q166 -127 219 -374h-174q-92 344 -447 344q-223 0 -358 -159q-135 -162 -135 -445t135 -442q135 -162 358 -162q170 0 299 104q130 101 158 301h172
q-28 -271 -207 -415q-181 -148 -422 -148z" />
    <glyph glyph-name="cdotaccent" unicode="&#x10b;" horiz-adv-x="1067" 
d="M647 1217h-176v200h176v-200zM561 -25q-219 0 -354 152q-135 151 -135 401q0 254 135 404q130 149 354 149q187 0 309 -102t146 -281h-170q-18 113 -97 174q-80 62 -188 62q-145 0 -231 -106t-86 -300q0 -192 87 -299q87 -106 230 -106q109 0 189 63t98 176h168
q-27 -177 -151 -282q-125 -105 -304 -105z" />
    <glyph glyph-name="Ccaron" unicode="&#x10c;" horiz-adv-x="1435" 
d="M1102 1874l-234 -295h-245l-234 295h164l192 -199l193 199h164zM1202 530h172q-28 -271 -207 -415q-181 -148 -422 -148q-296 0 -485 207q-188 206 -188 555t188 555q189 207 485 207q235 0 402 -128q166 -127 219 -374h-174q-92 344 -447 344q-223 0 -358 -159
q-135 -162 -135 -445t135 -442q135 -162 358 -162q170 0 299 104q130 101 158 301z" />
    <glyph glyph-name="ccaron" unicode="&#x10d;" horiz-adv-x="1067" 
d="M918 1509l-234 -295h-246l-233 295h164l192 -198l193 198h164zM561 123q109 0 189 63t98 176h168q-27 -177 -151 -282q-125 -105 -304 -105q-219 0 -354 152q-135 151 -135 401q0 254 135 404q130 149 354 149q187 0 309 -102t146 -281h-170q-18 113 -97 174
q-80 62 -188 62q-145 0 -231 -106t-86 -300q0 -192 87 -299q87 -106 230 -106z" />
    <glyph glyph-name="Dcaron" unicode="&#x10e;" horiz-adv-x="1411" 
d="M1042 1841l-233 -295h-246l-233 295h164l192 -199l193 199h163zM133 1458h492q332 0 524 -192q190 -191 190 -537q0 -340 -190 -534q-195 -195 -524 -195h-492v1458zM305 156h320q258 0 396 151q138 152 138 422q0 271 -138 422q-138 152 -396 152h-320v-1147z" />
    <glyph glyph-name="dcaron" unicode="&#x10f;" horiz-adv-x="1406" 
d="M918 905v553h163v-1458h-155v164q-128 -189 -363 -189q-222 0 -356 152q-135 151 -135 401q0 254 135 404q130 149 356 149q227 0 355 -176zM1159 1118l78 340h190l-143 -340h-125zM336 227q91 -104 248 -104q156 0 247 108q93 108 93 297q0 187 -93 297
q-92 109 -247 109q-153 0 -247 -112q-93 -111 -93 -302q0 -187 92 -293z" />
    <glyph glyph-name="Dcroat" unicode="&#x110;" horiz-adv-x="1449" 
d="M172 1458h492q332 0 524 -192q190 -191 190 -537q0 -340 -190 -534q-195 -195 -524 -195h-492v684h-172v133h172v641zM344 156h320q258 0 396 151q138 152 138 422q0 271 -138 422q-138 152 -396 152h-320v-486h404v-133h-404v-528z" />
    <glyph glyph-name="dslash" unicode="&#x111;" horiz-adv-x="1255" 
d="M1081 1325h174v-133h-174v-1192h-155v164q-128 -189 -363 -189q-222 0 -356 152q-135 151 -135 401q0 254 135 404q130 149 356 149q227 0 355 -176v287h-238v133h238v133h163v-133zM336 227q91 -104 248 -104q156 0 247 108q93 108 93 297q0 187 -93 297
q-92 109 -247 109q-153 0 -247 -112q-93 -111 -93 -302q0 -187 92 -293z" />
    <glyph glyph-name="Emacron" unicode="&#x112;" horiz-adv-x="1198" 
d="M344 1683h594v-137h-594v137zM1147 1458v-155h-842v-465h760v-156h-760v-526h834v-156h-1006v1458h1014z" />
    <glyph glyph-name="emacron" unicode="&#x113;" horiz-adv-x="1116" 
d="M262 1354h594v-137h-594v137zM1044 528v-57h-802q12 -172 96 -259t229 -87q219 0 281 197h170q-44 -161 -160 -253q-118 -94 -295 -94q-219 0 -354 150q-137 151 -137 403q0 250 135 402q133 151 352 151q227 0 356 -157q129 -158 129 -396zM559 932q-129 0 -211 -81
q-81 -79 -102 -233h622q-12 141 -94 227q-83 87 -215 87z" />
    <glyph glyph-name="Ebreve" unicode="&#x114;" horiz-adv-x="1198" 
d="M641 1536q-134 0 -222 83q-87 83 -93 222h141q6 -85 52 -128q47 -44 122 -44t122 44q46 43 52 128h141q-10 -139 -96 -222t-219 -83zM1147 1458v-155h-842v-465h760v-156h-760v-526h834v-156h-1006v1458h1014z" />
    <glyph glyph-name="ebreve" unicode="&#x115;" horiz-adv-x="1116" 
d="M559 1206q-134 0 -222 83q-87 83 -93 222h141q6 -85 52 -128q47 -44 122 -44t122 44q46 43 52 128h141q-10 -139 -96 -222t-219 -83zM1044 528v-57h-802q12 -172 96 -259t229 -87q219 0 281 197h170q-44 -161 -160 -253q-118 -94 -295 -94q-219 0 -354 150
q-137 151 -137 403q0 250 135 402q133 151 352 151q227 0 356 -157q129 -158 129 -396zM559 932q-129 0 -211 -81q-81 -79 -102 -233h622q-12 141 -94 227q-83 87 -215 87z" />
    <glyph glyph-name="Edotaccent" unicode="&#x116;" horiz-adv-x="1198" 
d="M551 1747h176v-201h-176v201zM1147 1458v-155h-842v-465h760v-156h-760v-526h834v-156h-1006v1458h1014z" />
    <glyph glyph-name="edotaccent" unicode="&#x117;" horiz-adv-x="1116" 
d="M469 1417h176v-200h-176v200zM1044 528v-57h-802q12 -172 96 -259t229 -87q219 0 281 197h170q-44 -161 -160 -253q-118 -94 -295 -94q-219 0 -354 150q-137 151 -137 403q0 250 135 402q133 151 352 151q227 0 356 -157q129 -158 129 -396zM559 932q-129 0 -211 -81
q-81 -79 -102 -233h622q-12 141 -94 227q-83 87 -215 87z" />
    <glyph glyph-name="Eogonek" unicode="&#x118;" horiz-adv-x="1198" 
d="M1147 1458v-155h-842v-465h760v-156h-760v-526h834v-156q-213 -105 -213 -205q0 -41 28 -63q29 -23 74 -23q62 0 111 21v-133q-57 -23 -140 -23q-97 0 -163 51t-66 139q0 71 58 136t155 100h-850v1458h1014z" />
    <glyph glyph-name="eogonek" unicode="&#x119;" horiz-adv-x="1116" 
d="M1044 528v-57h-802q12 -172 96 -259t229 -87q219 0 281 197h170q-66 -252 -293 -324q-211 -100 -211 -203q0 -40 29 -63t73 -23q62 0 111 21v-133q-57 -23 -139 -23q-98 0 -164 51t-66 139q0 61 43 117q43 57 117 96q-199 16 -323 164q-123 147 -123 387q0 250 135 402
q133 151 352 151q227 0 356 -157q129 -158 129 -396zM559 932q-129 0 -211 -81q-81 -79 -102 -233h622q-12 141 -94 227q-83 87 -215 87z" />
    <glyph glyph-name="Ecaron" unicode="&#x11a;" horiz-adv-x="1198" 
d="M997 1841l-233 -295h-246l-233 295h164l192 -199l193 199h163zM1147 1458v-155h-842v-465h760v-156h-760v-526h834v-156h-1006v1458h1014z" />
    <glyph glyph-name="ecaron" unicode="&#x11b;" horiz-adv-x="1116" 
d="M915 1509l-233 -295h-246l-233 295h164l192 -198l193 198h163zM1044 528v-57h-802q12 -172 96 -259t229 -87q219 0 281 197h170q-44 -161 -160 -253q-118 -94 -295 -94q-219 0 -354 150q-137 151 -137 403q0 250 135 402q133 151 352 151q227 0 356 -157
q129 -158 129 -396zM559 932q-129 0 -211 -81q-81 -79 -102 -233h622q-12 141 -94 227q-83 87 -215 87z" />
    <glyph glyph-name="Gcircumflex" unicode="&#x11c;" horiz-adv-x="1529" 
d="M956 1579l-192 199l-193 -199h-163l233 295h246l233 -295h-164zM797 594v156h620v-750h-141l-37 197q-162 -230 -477 -230q-314 0 -500 211q-190 208 -190 551q0 341 188 553q186 209 504 209q261 0 430 -139t207 -371h-178q-27 162 -156 258q-124 94 -303 94
q-233 0 -373 -164q-139 -163 -139 -440t139 -440q140 -164 373 -164q207 0 352 133q146 134 146 336h-465z" />
    <glyph glyph-name="gcircumflex" unicode="&#x11d;" horiz-adv-x="1204" 
d="M776 1217l-192 198l-193 -198h-164l234 294h246l233 -294h-164zM926 903v154h155v-1016q0 -218 -127 -342q-128 -125 -364 -125q-197 0 -316 90q-118 90 -135 250h164q30 -201 287 -201q328 0 328 328v102q-124 -168 -355 -168q-222 0 -356 152q-135 151 -135 401
q0 254 135 404q130 149 356 149q236 0 363 -178zM584 123q156 0 247 108q93 110 93 297t-93 297q-92 109 -247 109q-154 0 -247 -111t-93 -295t93 -295q92 -110 247 -110z" />
    <glyph glyph-name="Gbreve" unicode="&#x11e;" horiz-adv-x="1529" 
d="M764 1569q-134 0 -222 83q-87 82 -93 222h141q6 -85 52 -128q47 -44 122 -44t122 44q46 43 52 128h141q-11 -140 -96 -222q-86 -83 -219 -83zM797 594v156h620v-750h-141l-37 197q-162 -230 -477 -230q-314 0 -500 211q-190 208 -190 551q0 341 188 553q186 209 504 209
q261 0 430 -139t207 -371h-178q-27 162 -156 258q-124 94 -303 94q-233 0 -373 -164q-139 -163 -139 -440t139 -440q140 -164 373 -164q207 0 352 133q146 134 146 336h-465z" />
    <glyph glyph-name="gbreve" unicode="&#x11f;" horiz-adv-x="1204" 
d="M584 1206q-135 0 -223 83q-87 83 -93 222h142q6 -85 52 -128q47 -44 122 -44t122 44q46 43 52 128h141q-11 -139 -96 -222q-86 -83 -219 -83zM926 903v154h155v-1016q0 -218 -127 -342q-128 -125 -364 -125q-197 0 -316 90q-118 90 -135 250h164q30 -201 287 -201
q328 0 328 328v102q-124 -168 -355 -168q-222 0 -356 152q-135 151 -135 401q0 254 135 404q130 149 356 149q236 0 363 -178zM584 123q156 0 247 108q93 110 93 297t-93 297q-92 109 -247 109q-154 0 -247 -111t-93 -295t93 -295q92 -110 247 -110z" />
    <glyph glyph-name="Gdotaccent" unicode="&#x120;" horiz-adv-x="1529" 
d="M674 1780h176v-201h-176v201zM797 594v156h620v-750h-141l-37 197q-162 -230 -477 -230q-314 0 -500 211q-190 208 -190 551q0 341 188 553q186 209 504 209q261 0 430 -139t207 -371h-178q-27 162 -156 258q-124 94 -303 94q-233 0 -373 -164q-139 -163 -139 -440
t139 -440q140 -164 373 -164q207 0 352 133q146 134 146 336h-465z" />
    <glyph glyph-name="gdotaccent" unicode="&#x121;" horiz-adv-x="1204" 
d="M494 1417h176v-200h-176v200zM926 903v154h155v-1016q0 -218 -127 -342q-128 -125 -364 -125q-197 0 -316 90q-118 90 -135 250h164q30 -201 287 -201q328 0 328 328v102q-124 -168 -355 -168q-222 0 -356 152q-135 151 -135 401q0 254 135 404q130 149 356 149
q236 0 363 -178zM584 123q156 0 247 108q93 110 93 297t-93 297q-92 109 -247 109q-154 0 -247 -111t-93 -295t93 -295q92 -110 247 -110z" />
    <glyph glyph-name="uni0122" unicode="&#x122;" horiz-adv-x="1529" 
d="M797 594v156h620v-750h-141l-37 197q-162 -230 -477 -230q-314 0 -500 211q-190 208 -190 551q0 341 188 553q186 209 504 209q261 0 430 -139t207 -371h-178q-27 162 -156 258q-124 94 -303 94q-233 0 -373 -164q-139 -163 -139 -440t139 -440q140 -164 373 -164
q207 0 352 133q146 134 146 336h-465zM788 -289h-104v172h201v-211q0 -79 -40 -119q-41 -41 -132 -47l-29 -2v88l23 2q81 6 81 72v45z" />
    <glyph glyph-name="uni0123" unicode="&#x123;" horiz-adv-x="1204" 
d="M582 1389h104v-172h-201v210q0 80 40 120t132 46l29 2v-88l-22 -2q-82 -6 -82 -71v-45zM926 903v154h155v-1016q0 -218 -127 -342q-128 -125 -364 -125q-197 0 -316 90q-118 90 -135 250h164q30 -201 287 -201q328 0 328 328v102q-124 -168 -355 -168q-222 0 -356 152
q-135 151 -135 401q0 254 135 404q130 149 356 149q236 0 363 -178zM584 123q156 0 247 108q93 110 93 297t-93 297q-92 109 -247 109q-154 0 -247 -111t-93 -295t93 -295q92 -110 247 -110z" />
    <glyph glyph-name="Hcircumflex" unicode="&#x124;" horiz-adv-x="1423" 
d="M905 1546l-192 199l-193 -199h-164l234 295h246l233 -295h-164zM1118 831v627h172v-1458h-172v672h-813v-672h-172v1458h172v-627h813z" />
    <glyph glyph-name="hcircumflex" unicode="&#x125;" horiz-adv-x="1105" 
d="M514 1546h-154l-157 201l-154 -201h-153l192 295h234zM610 1081q176 0 275 -96q98 -95 98 -270v-715h-164v698q0 236 -241 236q-114 0 -203 -86q-88 -85 -88 -250v-598h-164v1458h164v-547q122 170 323 170z" />
    <glyph glyph-name="Hbar" unicode="&#x126;" horiz-adv-x="1501" 
d="M1331 1221h170v-134h-170v-1087h-172v672h-813v-672h-172v1087h-174v134h174v237h172v-237h813v237h172v-237zM346 831h813v256h-813v-256z" />
    <glyph glyph-name="hbar" unicode="&#x127;" horiz-adv-x="1157" 
d="M662 1081q175 0 274 -96q98 -95 98 -270v-715h-164v698q0 236 -241 236q-112 0 -203 -86q-88 -85 -88 -250v-598h-164v1192h-174v133h174v133h164v-133h237v-133h-237v-281q122 170 324 170z" />
    <glyph glyph-name="Itilde" unicode="&#x128;" horiz-adv-x="438" 
d="M49 1546h-115q0 246 152 246q55 0 150 -55q71 -43 104 -43q49 0 49 98h115q0 -246 -152 -246q-45 0 -153 58q-77 41 -101 41q-49 0 -49 -99zM305 0h-172v1458h172v-1458z" />
    <glyph glyph-name="itilde" unicode="&#x129;" horiz-adv-x="409" 
d="M35 1217h-115q0 245 152 245q55 0 149 -55q68 -43 105 -43q49 0 49 98h114q0 -245 -151 -245q-48 0 -154 57q-77 41 -100 41q-49 0 -49 -98zM287 0h-164v1057h164v-1057z" />
    <glyph glyph-name="Imacron" unicode="&#x12a;" horiz-adv-x="438" 
d="M455 1546h-471v137h471v-137zM305 0h-172v1458h172v-1458z" />
    <glyph glyph-name="imacron" unicode="&#x12b;" horiz-adv-x="409" 
d="M440 1217h-471v137h471v-137zM287 0h-164v1057h164v-1057z" />
    <glyph glyph-name="Ibreve" unicode="&#x12c;" horiz-adv-x="438" 
d="M426 1618q-76 -82 -207 -82q-130 0 -209 82q-84 80 -86 203h142q5 -71 45 -111q41 -41 108 -41q68 0 109 41q40 40 45 111h141q-7 -119 -88 -203zM305 0h-172v1458h172v-1458z" />
    <glyph glyph-name="ibreve" unicode="&#x12d;" horiz-adv-x="409" 
d="M412 1288q-76 -82 -207 -82q-129 0 -211 82q-83 83 -84 203h141q5 -71 45 -111q41 -41 109 -41q67 0 108 41q40 40 45 111h142q-7 -119 -88 -203zM287 0h-164v1057h164v-1057z" />
    <glyph glyph-name="Iogonek" unicode="&#x12e;" horiz-adv-x="438" 
d="M264 -295q44 0 72 16v-127q-37 -20 -96 -20q-85 0 -138 48t-53 136q0 69 39 138q40 70 94 104h-49v1458h172v-1458q-127 -90 -127 -201q0 -94 86 -94z" />
    <glyph glyph-name="iogonek" unicode="&#x12f;" horiz-adv-x="409" 
d="M117 1417h174v-200h-174v200zM246 -295q43 0 71 16v-127q-37 -20 -96 -20q-85 0 -137 48q-53 48 -53 136q0 69 39 138q40 70 94 104h-41v1057h164v-1057q-127 -90 -127 -201q0 -94 86 -94z" />
    <glyph glyph-name="Idot" unicode="&#x130;" horiz-adv-x="438" 
d="M305 1546h-174v201h174v-201zM305 0h-172v1458h172v-1458z" />
    <glyph glyph-name="dotlessi" unicode="&#x131;" horiz-adv-x="409" 
d="M287 0h-164v1057h164v-1057z" />
    <glyph glyph-name="IJ" unicode="&#x132;" horiz-adv-x="1501" 
d="M305 0h-172v1458h172v-1458zM1270 88q-121 -121 -328 -121q-209 0 -326 121q-116 120 -116 326v96h168v-96q0 -142 71 -216q72 -75 203 -75t203 75t72 216v1044h172v-1044q0 -207 -119 -326z" />
    <glyph glyph-name="ij" unicode="&#x133;" horiz-adv-x="819" 
d="M291 1217h-174v200h174v-200zM700 1217h-174v200h174v-200zM287 0h-164v1057h164v-1057zM453 -408q-58 0 -88 2v142h67q100 0 100 90v1231h164v-1245q0 -220 -243 -220z" />
    <glyph glyph-name="Jcircumflex" unicode="&#x134;" horiz-adv-x="1062" 
d="M748 1841h233l193 -295h-154l-158 201l-153 -201h-154zM778 414v1044h172v-1044q0 -206 -119 -327q-119 -120 -327 -120q-209 0 -326 119q-117 118 -117 328v96h168v-96q0 -141 72 -216t203 -75t203 75q71 74 71 216z" />
    <glyph glyph-name="jcircumflex" unicode="&#x135;" horiz-adv-x="409" 
d="M88 1511h234l192 -294h-154l-157 200l-154 -200h-153zM123 -174v1231h164v-1245q0 -220 -244 -220q-58 0 -88 2v142h68q100 0 100 90z" />
    <glyph glyph-name="uni0136" unicode="&#x136;" horiz-adv-x="1359" 
d="M1102 1458h227l-622 -594l622 -864h-211l-536 750l-277 -265v-485h-172v1458h172v-766zM702 -260h-104v172h201v-211q0 -80 -40 -120t-132 -46l-29 -2v88l23 2q81 6 81 72v45z" />
    <glyph glyph-name="uni0137" unicode="&#x137;" horiz-adv-x="1032" 
d="M993 1057l-401 -381l430 -676h-191l-356 567l-188 -176v-391h-164v1458h164v-874l489 473h217zM559 -332h-104v172h200v-211q0 -79 -40 -119q-41 -41 -132 -47l-28 -2v88l22 2q82 6 82 72v45z" />
    <glyph glyph-name="kgreenlandic" unicode="&#x138;" horiz-adv-x="1032" 
d="M1022 0h-191l-356 567l-188 -176v-391h-164v1057h164v-473l489 473h217l-401 -381z" />
    <glyph glyph-name="Lacute" unicode="&#x139;" horiz-adv-x="1079" 
d="M322 1841h221l-252 -295h-146zM305 1458v-1302h733v-156h-905v1458h172z" />
    <glyph glyph-name="lacute" unicode="&#x13a;" horiz-adv-x="409" 
d="M455 1841l-183 -295h-133l115 295h201zM287 0h-164v1458h164v-1458z" />
    <glyph glyph-name="uni013B" unicode="&#x13b;" horiz-adv-x="1079" 
d="M305 1458v-1302h733v-156h-905v1458h172zM592 -260h-105v172h201v-211q0 -80 -40 -120t-132 -46l-29 -2v88l23 2q82 6 82 72v45z" />
    <glyph glyph-name="uni013C" unicode="&#x13c;" horiz-adv-x="409" 
d="M123 1458h164v-1458h-164v1458zM106 -332v172h201v-211q0 -79 -40 -119q-41 -41 -132 -47l-29 -2v88l23 2q82 6 82 72v45h-105z" />
    <glyph glyph-name="Lcaron" unicode="&#x13d;" horiz-adv-x="1079" 
d="M305 1458v-1302h733v-156h-905v1458h172zM539 1458h190l-143 -340h-125z" />
    <glyph glyph-name="lcaron" unicode="&#x13e;" horiz-adv-x="612" 
d="M287 0h-164v1458h164v-1458zM489 1118h-124l77 340h191z" />
    <glyph glyph-name="Ldot" unicode="&#x13f;" horiz-adv-x="1079" 
d="M305 1458v-1302h733v-156h-905v1458h172zM657 858h207v-205h-207v205z" />
    <glyph glyph-name="ldot" unicode="&#x140;" horiz-adv-x="808" 
d="M287 0h-164v1458h164v-1458zM717 623h-207v204h207v-204z" />
    <glyph glyph-name="Lslash" unicode="&#x141;" horiz-adv-x="1118" 
d="M344 766v-610h733v-156h-905v688l-172 -78v150l172 78v620h172v-543l383 172v-149z" />
    <glyph glyph-name="lslash" unicode="&#x142;" horiz-adv-x="509" 
d="M338 856l172 96v-155l-172 -97v-700h-164v608l-174 -98v156l174 98v694h164v-602z" />
    <glyph glyph-name="Nacute" unicode="&#x143;" horiz-adv-x="1425" 
d="M815 1841h221l-252 -295h-145zM1122 967v491h170v-1458h-209l-483 752q-213 338 -303 493q6 -287 6 -753v-492h-170v1458h209l483 -751q204 -325 303 -494q-6 286 -6 754z" />
    <glyph glyph-name="nacute" unicode="&#x144;" horiz-adv-x="1105" 
d="M666 1511h221l-252 -294h-146zM610 1081q176 0 275 -96q98 -95 98 -270v-715h-164v698q0 236 -241 236q-114 0 -203 -86q-88 -85 -88 -250v-598h-164v1057h156v-158q121 182 331 182z" />
    <glyph glyph-name="uni0145" unicode="&#x145;" horiz-adv-x="1425" 
d="M1122 967v491h170v-1458h-209l-483 752q-213 338 -303 493q6 -287 6 -753v-492h-170v1458h209l483 -751q204 -325 303 -494q-6 286 -6 754zM719 -260h-105v172h201v-211q0 -80 -40 -120t-132 -46l-29 -2v88l23 2q82 6 82 72v45z" />
    <glyph glyph-name="uni0146" unicode="&#x146;" horiz-adv-x="1105" 
d="M610 1081q176 0 275 -96q98 -95 98 -270v-715h-164v698q0 236 -241 236q-114 0 -203 -86q-88 -85 -88 -250v-598h-164v1057h156v-158q121 182 331 182zM555 -332h-104v172h200v-211q0 -79 -40 -119q-41 -41 -132 -47l-28 -2v88l22 2q82 6 82 72v45z" />
    <glyph glyph-name="Ncaron" unicode="&#x147;" horiz-adv-x="1425" 
d="M1069 1841l-233 -295h-246l-234 295h164l193 -199l192 199h164zM1122 967v491h170v-1458h-209l-483 752q-213 338 -303 493q6 -287 6 -753v-492h-170v1458h209l483 -751q204 -325 303 -494q-6 286 -6 754z" />
    <glyph glyph-name="ncaron" unicode="&#x148;" horiz-adv-x="1105" 
d="M913 1509l-233 -295h-246l-233 295h164l192 -198l193 198h163zM610 1081q176 0 275 -96q98 -95 98 -270v-715h-164v698q0 236 -241 236q-114 0 -203 -86q-88 -85 -88 -250v-598h-164v1057h156v-158q121 182 331 182z" />
    <glyph glyph-name="napostrophe" unicode="&#x149;" horiz-adv-x="1400" 
d="M180 1257h-88v201h203v-219q0 -242 -182 -260l-21 -2v108l14 2q74 11 74 138v32zM905 1081q176 0 275 -96q98 -95 98 -270v-715h-164v698q0 236 -242 236q-113 0 -202 -86q-88 -85 -88 -250v-598h-164v1057h155v-158q121 182 332 182z" />
    <glyph glyph-name="Eng" unicode="&#x14a;" horiz-adv-x="1425" 
d="M1122 967v491h170v-1458q0 -204 -102 -306t-316 -102q-43 0 -104 7v143q50 -6 94 -6q264 0 264 264l-503 752q-202 294 -328 510q6 -291 6 -770v-492h-170v1458h209l508 -751q7 -11 22 -34.5t43 -67t52 -80.5q36 -56 161 -249q-6 259 -6 691z" />
    <glyph glyph-name="eng" unicode="&#x14b;" horiz-adv-x="1105" 
d="M610 1081q176 0 275 -96q98 -95 98 -270v-903q0 -220 -244 -220q-58 0 -88 2v142h68q100 0 100 90v872q0 236 -241 236q-114 0 -203 -86q-88 -85 -88 -250v-598h-164v1057h156v-158q121 182 331 182z" />
    <glyph glyph-name="Omacron" unicode="&#x14c;" horiz-adv-x="1540" 
d="M1067 1579h-594v137h594v-137zM1278 178q-192 -211 -508 -211t-506 211q-192 207 -192 551q0 341 192 553q191 209 506 209q316 0 508 -209q190 -212 190 -553q0 -343 -190 -551zM393 289q141 -164 377 -164t377 164q141 162 141 440t-141 440q-141 164 -377 164
t-377 -164q-141 -162 -141 -440t141 -440z" />
    <glyph glyph-name="omacron" unicode="&#x14d;" horiz-adv-x="1167" 
d="M881 1217h-594v137h594v-137zM952 127q-146 -152 -368 -152q-223 0 -369 152q-143 149 -143 401q0 253 143 402q145 151 369 151q223 0 368 -151q144 -150 144 -402q0 -251 -144 -401zM336 231q92 -108 248 -108t247 108q93 108 93 297q0 191 -93 299q-92 107 -247 107
q-156 0 -248 -107t-92 -299q0 -190 92 -297z" />
    <glyph glyph-name="Obreve" unicode="&#x14e;" horiz-adv-x="1540" 
d="M770 1569q-134 0 -222 83q-87 82 -93 222h141q6 -85 52 -128q47 -44 122 -44t122 44q46 43 52 128h141q-11 -140 -96 -222q-86 -83 -219 -83zM1278 178q-192 -211 -508 -211t-506 211q-192 207 -192 551q0 341 192 553q191 209 506 209q316 0 508 -209q190 -212 190 -553
q0 -343 -190 -551zM393 289q141 -164 377 -164t377 164q141 162 141 440t-141 440q-141 164 -377 164t-377 -164q-141 -162 -141 -440t141 -440z" />
    <glyph glyph-name="obreve" unicode="&#x14f;" horiz-adv-x="1167" 
d="M584 1206q-135 0 -223 83q-87 83 -93 222h142q6 -85 52 -128q47 -44 122 -44t122 44q46 43 52 128h141q-11 -139 -96 -222q-86 -83 -219 -83zM952 127q-146 -152 -368 -152q-223 0 -369 152q-143 149 -143 401q0 253 143 402q145 151 369 151q223 0 368 -151
q144 -150 144 -402q0 -251 -144 -401zM336 231q92 -108 248 -108t247 108q93 108 93 297q0 191 -93 299q-92 107 -247 107q-156 0 -248 -107t-92 -299q0 -190 92 -297z" />
    <glyph glyph-name="Ohungarumlaut" unicode="&#x150;" horiz-adv-x="1540" 
d="M666 1579h-138l177 295h213zM1001 1579h-137l176 295h213zM1278 178q-192 -211 -508 -211t-506 211q-192 207 -192 551q0 341 192 553q191 209 506 209q316 0 508 -209q190 -212 190 -553q0 -343 -190 -551zM393 289q141 -164 377 -164t377 164q141 162 141 440t-141 440
q-141 164 -377 164t-377 -164q-141 -162 -141 -440t141 -440z" />
    <glyph glyph-name="ohungarumlaut" unicode="&#x151;" horiz-adv-x="1167" 
d="M502 1217h-137l176 294h213zM838 1217h-138l177 294h213zM952 127q-146 -152 -368 -152q-223 0 -369 152q-143 149 -143 401q0 253 143 402q145 151 369 151q223 0 368 -151q144 -150 144 -402q0 -251 -144 -401zM336 231q92 -108 248 -108t247 108q93 108 93 297
q0 191 -93 299q-92 107 -247 107q-156 0 -248 -107t-92 -299q0 -190 92 -297z" />
    <glyph glyph-name="OE" unicode="&#x152;" horiz-adv-x="2353" 
d="M2302 1458v-155h-842v-465h760v-156h-760v-526h834v-156h-1006v219q-174 -252 -518 -252q-316 0 -506 211q-192 207 -192 551q0 341 192 553q191 209 506 209q344 0 518 -252v219h1014zM393 289q141 -164 377 -164t377 164q141 162 141 440t-141 440q-141 164 -377 164
t-377 -164q-141 -162 -141 -440t141 -440z" />
    <glyph glyph-name="oe" unicode="&#x153;" horiz-adv-x="1970" 
d="M1898 528v-57h-802q12 -172 96 -259t229 -87q219 0 281 197h170q-44 -161 -160 -253q-118 -94 -295 -94q-279 0 -409 232q-136 -232 -424 -232q-223 0 -369 152q-143 149 -143 401q0 253 143 402q145 151 369 151q289 0 424 -231q129 231 405 231q227 0 356 -157
q129 -156 129 -396zM336 231q92 -108 248 -108t247 108q93 108 93 297q0 191 -93 299q-92 107 -247 107q-156 0 -248 -107t-92 -299q0 -190 92 -297zM1413 932q-129 0 -211 -81q-81 -79 -102 -233h622q-12 141 -94 227q-82 87 -215 87z" />
    <glyph glyph-name="Racute" unicode="&#x154;" horiz-adv-x="1323" 
d="M752 1841h221l-252 -295h-146zM1204 422l15 -236q11 -125 53 -186h-178q-46 67 -47 195l-7 155q-6 148 -65 210q-60 63 -195 63h-475v-623h-172v1458h617q227 0 359 -104q134 -105 134 -293q0 -133 -64 -224q-64 -90 -175 -128q183 -57 200 -287zM305 778h465
q136 0 216 71q79 70 79 202q0 125 -83 188q-84 64 -232 64h-445v-525z" />
    <glyph glyph-name="racute" unicode="&#x155;" horiz-adv-x="724" 
d="M481 1511h201l-182 -294h-133zM279 1057v-187q107 203 339 203q36 0 56 -2v-158h-41q-165 0 -255 -80q-91 -81 -91 -231v-602h-164v1057h156z" />
    <glyph glyph-name="uni0156" unicode="&#x156;" horiz-adv-x="1323" 
d="M1204 422l15 -236q11 -125 53 -186h-178q-46 67 -47 195l-7 155q-6 148 -65 210q-60 63 -195 63h-475v-623h-172v1458h617q227 0 359 -104q134 -105 134 -293q0 -133 -64 -224q-64 -90 -175 -128q183 -57 200 -287zM305 778h465q136 0 216 71q79 70 79 202q0 125 -83 188
q-84 64 -232 64h-445v-525zM709 -260h-105v172h201v-211q0 -80 -40 -120t-132 -46l-29 -2v88l23 2q82 6 82 72v45z" />
    <glyph glyph-name="uni0157" unicode="&#x157;" horiz-adv-x="724" 
d="M618 1073q36 0 56 -2v-158h-41q-165 0 -255 -80q-91 -81 -91 -231v-602h-164v1057h156v-187q107 203 339 203zM211 -332h-105v172h201v-211q0 -79 -40 -119q-41 -41 -132 -47l-29 -2v88l23 2q82 6 82 72v45z" />
    <glyph glyph-name="Rcaron" unicode="&#x158;" horiz-adv-x="1323" 
d="M1006 1841l-234 -295h-246l-233 295h164l192 -199l193 199h164zM1204 422l15 -236q11 -125 53 -186h-178q-46 67 -47 195l-7 155q-6 148 -65 210q-60 63 -195 63h-475v-623h-172v1458h617q227 0 359 -104q134 -105 134 -293q0 -133 -64 -224q-64 -90 -175 -128
q183 -57 200 -287zM305 778h465q136 0 216 71q79 70 79 202q0 125 -83 188q-84 64 -232 64h-445v-525z" />
    <glyph glyph-name="rcaron" unicode="&#x159;" horiz-adv-x="724" 
d="M739 1509l-192 -295h-234l-192 295h153l154 -200l158 200h153zM279 1057v-187q107 203 339 203q36 0 56 -2v-158h-41q-165 0 -255 -80q-91 -81 -91 -231v-602h-164v1057h156z" />
    <glyph glyph-name="Sacute" unicode="&#x15a;" horiz-adv-x="1265" 
d="M686 1579h-145l176 295h221zM668 -33q-286 0 -445 129q-161 130 -162 385h179q6 -358 428 -358q177 0 273 70q95 69 95 202q0 105 -79 163q-78 57 -275 101l-129 29q-220 51 -332 149q-110 97 -110 273q0 174 135 278q134 103 362 103q156 0 268 -37q115 -38 177 -103
t93 -145q31 -79 32 -172h-177q-12 157 -101 229q-88 72 -292 72q-155 0 -236 -59q-83 -60 -83 -166q0 -107 71 -166q67 -58 271 -104l129 -29q239 -52 348 -153q106 -99 106 -263q0 -199 -145 -313q-147 -115 -401 -115z" />
    <glyph glyph-name="sacute" unicode="&#x15b;" horiz-adv-x="956" 
d="M555 1217h-145l176 294h221zM496 -25q-425 0 -449 361h166q15 -120 79 -169q65 -50 204 -50q254 0 254 164q0 70 -53 108q-52 37 -189 64l-98 18q-330 61 -330 311q0 137 103 218t282 81q419 0 430 -350h-164q-6 116 -69 162q-64 47 -197 47q-106 0 -164 -41
q-57 -41 -57 -115q0 -70 49 -104q50 -35 164 -59l94 -19q195 -39 279 -110q85 -72 85 -201q0 -151 -111 -233q-112 -83 -308 -83z" />
    <glyph glyph-name="Scircumflex" unicode="&#x15c;" horiz-adv-x="1265" 
d="M807 1579l-193 199l-192 -199h-164l234 295h245l234 -295h-164zM631 840l129 -29q239 -52 348 -153q106 -99 106 -263q0 -199 -145 -313q-147 -115 -401 -115q-286 0 -445 129q-161 130 -162 385h179q6 -358 428 -358q177 0 273 70q95 69 95 202q0 105 -79 163
q-78 57 -275 101l-129 29q-220 51 -332 149q-110 97 -110 273q0 174 135 278q134 103 362 103q156 0 268 -37q115 -38 177 -103t93 -145q31 -79 32 -172h-177q-12 157 -101 229q-88 72 -292 72q-155 0 -236 -59q-83 -60 -83 -166q0 -107 71 -166q67 -58 271 -104z" />
    <glyph glyph-name="scircumflex" unicode="&#x15d;" horiz-adv-x="956" 
d="M670 1217l-193 198l-192 -198h-164l233 294h246l234 -294h-164zM457 621l94 -19q195 -39 279 -110q85 -72 85 -201q0 -151 -111 -233q-112 -83 -308 -83q-425 0 -449 361h166q15 -120 79 -169q65 -50 204 -50q254 0 254 164q0 70 -53 108q-52 37 -189 64l-98 18
q-330 61 -330 311q0 137 103 218t282 81q419 0 430 -350h-164q-6 116 -69 162q-64 47 -197 47q-106 0 -164 -41q-57 -41 -57 -115q0 -70 49 -104q50 -35 164 -59z" />
    <glyph glyph-name="Scedilla" unicode="&#x15e;" horiz-adv-x="1265" 
d="M1214 395q0 -185 -124 -297t-351 -129l-80 -90h19q84 0 134 -45t50 -117q0 -196 -280 -196q-64 0 -125 12v94q61 -8 118 -8q59 0 95 25q35 24 35 69q0 84 -117 84q-34 0 -58 -2v78l76 96q-254 12 -399 143t-146 369h179q6 -358 428 -358q177 0 273 70q95 69 95 202
q0 105 -79 163q-78 57 -275 101l-129 29q-220 51 -332 149q-110 97 -110 273q0 174 135 278q134 103 362 103q156 0 268 -37q115 -38 177 -103t93 -145q31 -79 32 -172h-177q-12 157 -101 229q-88 72 -292 72q-155 0 -236 -59q-83 -60 -83 -166q0 -107 71 -166
q67 -58 271 -104l129 -29q239 -52 348 -153q106 -99 106 -263z" />
    <glyph glyph-name="scedilla" unicode="&#x15f;" horiz-adv-x="956" 
d="M915 291q0 -135 -91 -216q-90 -80 -257 -95l-80 -93h19q84 0 134 -45t50 -116q0 -197 -280 -197q-64 0 -125 12v94q61 -8 118 -8q59 0 95 25q34 24 34 69q0 84 -116 84q-34 0 -58 -2v78l76 96q-366 28 -387 359h166q15 -120 79 -169q65 -50 204 -50q254 0 254 164
q0 70 -53 108q-52 37 -189 64l-98 18q-330 61 -330 311q0 137 103 218t282 81q419 0 430 -350h-164q-6 116 -69 162q-64 47 -197 47q-106 0 -164 -41q-57 -41 -57 -115q0 -70 49 -104q50 -35 164 -59l94 -19q195 -39 279 -110q85 -72 85 -201z" />
    <glyph glyph-name="Scaron" unicode="&#x160;" horiz-adv-x="1265" 
d="M971 1874l-234 -295h-245l-234 295h164l192 -199l193 199h164zM631 840l129 -29q239 -52 348 -153q106 -99 106 -263q0 -199 -145 -313q-147 -115 -401 -115q-286 0 -445 129q-161 130 -162 385h179q6 -358 428 -358q177 0 273 70q95 69 95 202q0 105 -79 163
q-78 57 -275 101l-129 29q-220 51 -332 149q-110 97 -110 273q0 174 135 278q134 103 362 103q156 0 268 -37q115 -38 177 -103t93 -145q31 -79 32 -172h-177q-12 157 -101 229q-88 72 -292 72q-155 0 -236 -59q-83 -60 -83 -166q0 -107 71 -166q67 -58 271 -104z" />
    <glyph glyph-name="scaron" unicode="&#x161;" horiz-adv-x="956" 
d="M834 1509l-234 -295h-246l-233 295h164l192 -198l193 198h164zM457 621l94 -19q195 -39 279 -110q85 -72 85 -201q0 -151 -111 -233q-112 -83 -308 -83q-425 0 -449 361h166q15 -120 79 -169q65 -50 204 -50q254 0 254 164q0 70 -53 108q-52 37 -189 64l-98 18
q-330 61 -330 311q0 137 103 218t282 81q419 0 430 -350h-164q-6 116 -69 162q-64 47 -197 47q-106 0 -164 -41q-57 -41 -57 -115q0 -70 49 -104q50 -35 164 -59z" />
    <glyph glyph-name="uni0162" unicode="&#x162;" horiz-adv-x="1251" 
d="M715 1303v-1303h-21l-78 -88h19q85 0 134 -45q50 -45 50 -117q0 -196 -280 -196q-63 0 -125 12v94q61 -8 118 -8q60 0 95 24t35 70q0 84 -117 84q-34 0 -58 -2v78l74 94h-24v1303h-496v155h1169v-155h-495z" />
    <glyph glyph-name="uni0163" unicode="&#x163;" horiz-adv-x="636" 
d="M387 -88h19q84 0 134 -45t50 -117q0 -196 -281 -196q-63 0 -125 12v94q61 -8 119 -8q59 0 94 24t35 70q0 84 -117 84q-33 0 -57 -2v78l82 104q-135 39 -135 203v700h-174v144h174v299h164v-299h217v-144h-217v-686q0 -90 120 -90h97v-137q-68 -6 -117 -6h-10z" />
    <glyph glyph-name="Tcaron" unicode="&#x164;" horiz-adv-x="1251" 
d="M983 1841l-233 -295h-246l-234 295h164l193 -199l192 199h164zM41 1458h1169v-155h-495v-1303h-178v1303h-496v155z" />
    <glyph glyph-name="tcaron" unicode="&#x165;" horiz-adv-x="636" 
d="M510 1458h190l-143 -340h-125zM205 1356h164v-299h217v-144h-217v-686q0 -90 120 -90h97v-137q-68 -6 -117 -6q-264 0 -264 219v700h-174v144h174v299z" />
    <glyph glyph-name="Tbar" unicode="&#x166;" horiz-adv-x="1251" 
d="M1210 1458v-155h-495v-496h284v-133h-284v-674h-178v674h-285v133h285v496h-496v155h1169z" />
    <glyph glyph-name="tbar" unicode="&#x167;" horiz-adv-x="636" 
d="M586 1057v-144h-217v-303h215v-133h-215v-250q0 -90 120 -90h97v-137q-68 -6 -117 -6q-264 0 -264 219v264h-172v133h172v303h-174v144h174v299h164v-299h217z" />
    <glyph glyph-name="Utilde" unicode="&#x168;" horiz-adv-x="1372" 
d="M479 1546h-139q0 252 184 252q66 0 178 -57q84 -45 129 -45q58 0 58 102h139q0 -252 -184 -252q-58 0 -187 60q-87 43 -120 43q-58 0 -58 -103zM1110 119q-150 -150 -424 -150t-424 150q-149 149 -149 422v917h172v-917q0 -416 401 -416t401 416v917h173v-917
q0 -272 -150 -422z" />
    <glyph glyph-name="utilde" unicode="&#x169;" horiz-adv-x="1105" 
d="M393 1319q-57 0 -57 -102h-139q0 251 184 251q65 0 178 -57q84 -45 129 -45q57 0 57 102h140q0 -251 -185 -251q-59 0 -186 59q-87 43 -121 43zM819 459v598h164v-1057h-156v158q-122 -183 -331 -183q-175 0 -275 97q-98 95 -98 270v715h164v-699q0 -235 241 -235
q114 0 203 86q88 85 88 250z" />
    <glyph glyph-name="Umacron" unicode="&#x16a;" horiz-adv-x="1372" 
d="M983 1546h-594v137h594v-137zM1110 119q-150 -150 -424 -150t-424 150q-149 149 -149 422v917h172v-917q0 -416 401 -416t401 416v917h173v-917q0 -272 -150 -422z" />
    <glyph glyph-name="umacron" unicode="&#x16b;" horiz-adv-x="1105" 
d="M246 1354h594v-137h-594v137zM819 459v598h164v-1057h-156v158q-122 -183 -331 -183q-175 0 -275 97q-98 95 -98 270v715h164v-699q0 -235 241 -235q114 0 203 86q88 85 88 250z" />
    <glyph glyph-name="Ubreve" unicode="&#x16c;" horiz-adv-x="1372" 
d="M686 1536q-134 0 -222 83q-87 83 -93 222h141q6 -85 52 -128q47 -44 122 -44t122 44q46 43 52 128h141q-11 -139 -96 -222q-86 -83 -219 -83zM1110 119q-150 -150 -424 -150t-424 150q-149 149 -149 422v917h172v-917q0 -416 401 -416t401 416v917h173v-917
q0 -272 -150 -422z" />
    <glyph glyph-name="ubreve" unicode="&#x16d;" horiz-adv-x="1105" 
d="M543 1206q-134 0 -222 83t-94 222h142q6 -85 52 -128q47 -44 122 -44t122 44q46 43 52 128h141q-10 -139 -96 -222t-219 -83zM819 459v598h164v-1057h-156v158q-122 -183 -331 -183q-175 0 -275 97q-98 95 -98 270v715h164v-699q0 -235 241 -235q114 0 203 86
q88 85 88 250z" />
    <glyph glyph-name="Uring" unicode="&#x16e;" horiz-adv-x="1372" 
d="M872 1411q-78 -72 -186 -72t-184 72q-76 69 -76 178t76 178q76 72 184 72t186 -72q74 -72 74 -178t-74 -178zM592 1497q39 -39 94 -39t94 39q39 37 39 92t-39 94q-38 37 -94 37t-94 -37q-39 -39 -39 -94t39 -92zM1110 119q-150 -150 -424 -150t-424 150
q-149 149 -149 422v917h172v-917q0 -416 401 -416t401 416v917h173v-917q0 -272 -150 -422z" />
    <glyph glyph-name="uring" unicode="&#x16f;" horiz-adv-x="1105" 
d="M729 1278q-78 -72 -186 -72q-109 0 -185 72q-75 68 -75 178t75 178q77 72 185 72t186 -72q74 -69 74 -178t-74 -178zM637 1550q-38 37 -94 37t-94 -37q-39 -39 -39 -94q0 -54 39 -92q39 -39 94 -39t94 39q39 38 39 92q0 55 -39 94zM819 459v598h164v-1057h-156v158
q-122 -183 -331 -183q-175 0 -275 97q-98 95 -98 270v715h164v-699q0 -235 241 -235q114 0 203 86q88 85 88 250z" />
    <glyph glyph-name="Uhungarumlaut" unicode="&#x170;" horiz-adv-x="1372" 
d="M582 1546h-138l177 295h213zM918 1546h-138l176 295h213zM1110 119q-150 -150 -424 -150t-424 150q-149 149 -149 422v917h172v-917q0 -416 401 -416t401 416v917h173v-917q0 -272 -150 -422z" />
    <glyph glyph-name="uhungarumlaut" unicode="&#x171;" horiz-adv-x="1105" 
d="M500 1511h213l-252 -294h-137zM1049 1511l-252 -294h-138l177 294h213zM819 459v598h164v-1057h-156v158q-122 -183 -331 -183q-175 0 -275 97q-98 95 -98 270v715h164v-699q0 -235 241 -235q114 0 203 86q88 85 88 250z" />
    <glyph glyph-name="Uogonek" unicode="&#x172;" horiz-adv-x="1372" 
d="M1087 541v917h173v-917q0 -209 -92 -349t-261 -192q-213 -105 -213 -205q0 -40 29 -63t74 -23q61 0 110 21v-133q-57 -23 -139 -23q-98 0 -164 51q-65 50 -65 139q0 58 39 112t106 93q-272 0 -422 150q-149 149 -149 422v917h172v-917q0 -416 401 -416t401 416z" />
    <glyph glyph-name="uogonek" unicode="&#x173;" horiz-adv-x="1105" 
d="M983 1057v-1057q-213 -105 -213 -205q0 -40 29 -63t73 -23q62 0 111 21v-133q-57 -23 -139 -23q-98 0 -164 51t-66 139q0 69 59 136q58 66 154 100v158q-122 -183 -331 -183q-175 0 -275 97q-98 95 -98 270v715h164v-699q0 -235 241 -235q114 0 203 86q88 85 88 250v598
h164z" />
    <glyph glyph-name="Wcircumflex" unicode="&#x174;" horiz-adv-x="1957" 
d="M1171 1546l-192 199l-193 -199h-163l233 295h246l233 -295h-164zM1550 739l199 719h178l-414 -1458h-192l-209 743q-82 293 -133 494q-51 -201 -133 -494l-209 -743h-193l-413 1458h178l199 -719q91 -322 137 -522q89 340 139 526l199 715h192l199 -715q83 -302 139 -526
q46 200 137 522z" />
    <glyph glyph-name="wcircumflex" unicode="&#x175;" horiz-adv-x="1593" 
d="M989 1217l-192 198l-193 -198h-164l234 294h246l233 -294h-164zM1257 580l150 477h176l-352 -1057h-172l-156 489q-74 241 -106 359q-41 -150 -109 -359l-153 -489h-173l-352 1057h176l150 -477q52 -164 115 -385q70 248 112 385l148 477h172l147 -477q33 -109 62 -205
t41 -135.5t12 -40.5q20 76 112 381z" />
    <glyph glyph-name="Ycircumflex" unicode="&#x176;" horiz-adv-x="1347" 
d="M866 1546l-192 199l-193 -199h-164l234 295h246l233 -295h-164zM909 1118l213 340h195l-557 -872v-586h-172v586l-557 872h196l215 -342q135 -211 234 -377q132 223 233 379z" />
    <glyph glyph-name="ycircumflex" unicode="&#x177;" horiz-adv-x="980" 
d="M684 1217l-192 198l-193 -198h-164l234 294h245l234 -294h-164zM643 618l150 439h178l-447 -1223q-46 -133 -129 -187q-84 -55 -215 -55q-37 0 -98 7v137h96q142 0 193 131l37 98l-398 1092h180l150 -441q98 -290 152 -456q62 197 151 458z" />
    <glyph glyph-name="Ydieresis" unicode="&#x178;" horiz-adv-x="1347" 
d="M406 1747h174v-201h-174v201zM764 1747h174v-201h-174v201zM909 1118l213 340h195l-557 -872v-586h-172v586l-557 872h196l215 -342q135 -211 234 -377q132 223 233 379z" />
    <glyph glyph-name="Zacute" unicode="&#x179;" horiz-adv-x="1228" 
d="M727 1841h221l-252 -295h-145zM678 156h500v-156h-1127v156l643 825q56 74 256 326q-164 -4 -418 -4h-444v155h1075v-155l-647 -826q-40 -52 -256 -325q164 4 418 4z" />
    <glyph glyph-name="zacute" unicode="&#x17a;" horiz-adv-x="997" 
d="M608 1511h221l-251 -294h-146zM502 143h424v-143h-854v123l483 622q3 4 33.5 41.5t48.5 61.5q13 17 26 33.5t20 25t9 11.5q-113 -5 -225 -5h-375v144h805v-123l-483 -623q-7 -9 -35.5 -44t-46.5 -58q-13 -17 -26.5 -33.5t-20.5 -25t-9 -11.5q91 4 226 4z" />
    <glyph glyph-name="Zdotaccent" unicode="&#x17b;" horiz-adv-x="1228" 
d="M535 1747h176v-201h-176v201zM678 156h500v-156h-1127v156l643 825q56 74 256 326q-164 -4 -418 -4h-444v155h1075v-155l-647 -826q-40 -52 -256 -325q164 4 418 4z" />
    <glyph glyph-name="zdotaccent" unicode="&#x17c;" horiz-adv-x="997" 
d="M410 1417h176v-200h-176v200zM502 143h424v-143h-854v123l483 622q3 4 33.5 41.5t48.5 61.5q13 17 26 33.5t20 25t9 11.5q-113 -5 -225 -5h-375v144h805v-123l-483 -623q-7 -9 -35.5 -44t-46.5 -58q-13 -17 -26.5 -33.5t-20.5 -25t-9 -11.5q91 4 226 4z" />
    <glyph glyph-name="Zcaron" unicode="&#x17d;" horiz-adv-x="1228" 
d="M981 1841l-233 -295h-246l-234 295h164l193 -199l192 199h164zM678 156h500v-156h-1127v156l643 825q56 74 256 326q-164 -4 -418 -4h-444v155h1075v-155l-647 -826q-40 -52 -256 -325q164 4 418 4z" />
    <glyph glyph-name="zcaron" unicode="&#x17e;" horiz-adv-x="997" 
d="M856 1509l-233 -295h-246l-234 295h164l193 -198l192 198h164zM502 143h424v-143h-854v123l483 622q3 4 33.5 41.5t48.5 61.5q13 17 26 33.5t20 25t9 11.5q-113 -5 -225 -5h-375v144h805v-123l-483 -623q-7 -9 -35.5 -44t-46.5 -58q-13 -17 -26.5 -33.5t-20.5 -25
t-9 -11.5q91 4 226 4z" />
    <glyph glyph-name="uni018F" unicode="&#x18f;" horiz-adv-x="1476" 
d="M731 1491q307 0 492 -209q182 -212 182 -557q0 -342 -180 -549q-180 -209 -488 -209q-315 0 -489 215q-176 214 -176 541v57h1153q-12 267 -142 412q-128 143 -356 143q-169 0 -288 -93q-116 -91 -156 -253h-179q53 228 215 365q163 137 412 137zM737 123q211 0 338 132
q127 131 148 378h-969q17 -226 141 -367q124 -143 342 -143z" />
    <glyph glyph-name="florin" unicode="&#x192;" horiz-adv-x="927" 
d="M772 1464q52 0 105 -6v-143q-49 6 -84 6q-70 0 -105 -35t-47 -115l-55 -370h194v-142h-215l-114 -786q-24 -155 -89 -227q-64 -70 -206 -70q-54 0 -105 6v144q58 -7 84 -7q70 0 105 35t47 115l116 790h-182v142h203l53 366q24 158 88 228q63 69 207 69z" />
    <glyph glyph-name="uni01F4" unicode="&#x1f4;" horiz-adv-x="1529" 
d="M866 1874h221l-251 -295h-146zM797 594v156h620v-750h-141l-37 197q-162 -230 -477 -230q-314 0 -500 211q-190 208 -190 551q0 341 188 553q186 209 504 209q261 0 430 -139t207 -371h-178q-27 162 -156 258q-124 94 -303 94q-233 0 -373 -164q-139 -163 -139 -440
t139 -440q140 -164 373 -164q207 0 352 133q146 134 146 336h-465z" />
    <glyph glyph-name="uni01F5" unicode="&#x1f5;" horiz-adv-x="1204" 
d="M692 1511h221l-251 -294h-146zM926 903v154h155v-1016q0 -218 -127 -342q-128 -125 -364 -125q-197 0 -316 90q-118 90 -135 250h164q30 -201 287 -201q328 0 328 328v102q-124 -168 -355 -168q-222 0 -356 152q-135 151 -135 401q0 254 135 404q130 149 356 149
q236 0 363 -178zM584 123q156 0 247 108q93 110 93 297t-93 297q-92 109 -247 109q-154 0 -247 -111t-93 -295t93 -295q92 -110 247 -110z" />
    <glyph glyph-name="Aringacute" unicode="&#x1fa;" horiz-adv-x="1425" 
d="M1395 0h-183l-170 424h-663l-168 -424h-180l547 1370q-132 70 -132 219q0 96 62 164q61 67 156 82l145 244h221l-221 -258q74 -29 116 -90q42 -62 42 -142q0 -145 -127 -217zM801 1683q-38 37 -94 37q-57 0 -95 -37q-39 -39 -39 -94t39 -92q39 -39 95 -39q55 0 94 39
q39 37 39 92t-39 94zM446 596l-6 -16h541l-8 18q-58 141 -266 674q-128 -341 -261 -676z" />
    <glyph glyph-name="aringacute" unicode="&#x1fb;" horiz-adv-x="1067" 
d="M641 2140h221l-252 -295h-145zM719 1278q-78 -72 -187 -72q-108 0 -184 72q-76 69 -76 178t76 178q76 72 184 72q109 0 187 -72q74 -69 74 -178t-74 -178zM627 1550q-38 37 -95 37q-56 0 -94 -37q-39 -39 -39 -94q0 -54 39 -92q39 -39 94 -39q56 0 95 39q39 38 39 92
q0 55 -39 94zM987 133h60v-133q-40 -6 -91 -6q-166 0 -178 151q-111 -170 -344 -170q-174 0 -273 81q-100 82 -100 229q0 286 392 327l151 17q166 18 166 145q0 88 -54 127t-184 39q-138 0 -197 -46q-62 -48 -69 -163h-164q21 350 430 350q398 0 398 -307v-590q0 -51 57 -51
zM442 115q130 0 230 80q98 77 98 223v125q-45 -35 -139 -45l-154 -19q-132 -16 -189 -61t-57 -129q0 -80 54 -128q52 -46 157 -46z" />
    <glyph glyph-name="AEacute" unicode="&#x1fc;" horiz-adv-x="2113" 
d="M1565 1841h221l-252 -295h-145zM2062 1458v-155h-780v-465h698v-156h-698v-526h772v-156h-944v424h-661l-228 -424h-190l788 1458h1243zM922 1303l-390 -723h578v723h-188z" />
    <glyph glyph-name="aeacute" unicode="&#x1fd;" horiz-adv-x="1767" 
d="M999 1511h222l-252 -294h-146zM1696 528v-57h-764q12 -171 92 -259q80 -87 217 -87q209 0 266 197h162q-38 -162 -150 -253q-115 -94 -282 -94q-257 0 -387 220q-67 -105 -176 -162q-110 -58 -240 -58q-174 0 -273 81q-100 82 -100 229q0 286 392 327l151 17
q166 18 166 145q0 88 -54 127t-184 39q-138 0 -197 -46q-62 -48 -69 -163h-164q21 350 430 350q281 0 363 -155q128 155 338 155q217 0 340 -157q123 -156 123 -396zM1233 932q-123 0 -201 -81t-96 -233h592q-12 143 -90 228q-78 86 -205 86zM442 115q130 0 230 80
q98 77 98 223v125q-45 -35 -139 -45l-154 -19q-132 -16 -189 -61t-57 -129q0 -80 54 -128q52 -46 157 -46z" />
    <glyph glyph-name="Oslashacute" unicode="&#x1fe;" horiz-adv-x="1540" 
d="M872 1874h222l-252 -295h-146zM1399 1546l108 -96l-190 -215q151 -206 151 -506q0 -343 -190 -551q-192 -211 -508 -211q-264 0 -444 150l-185 -207l-108 96l192 217q-153 201 -153 506q0 341 192 553q191 209 506 209q260 0 447 -152zM252 729q0 -222 92 -373l760 858
q-134 119 -334 119q-236 0 -377 -164q-141 -162 -141 -440zM1288 729q0 215 -90 371l-760 -856q134 -119 332 -119q236 0 377 164q141 162 141 440z" />
    <glyph glyph-name="oslashacute" unicode="&#x1ff;" horiz-adv-x="1165" 
d="M692 1511h221l-251 -294h-146zM1022 1141l102 -90l-139 -160q111 -150 111 -363q0 -251 -144 -401q-146 -152 -368 -152q-177 0 -305 95l-136 -156l-102 90l141 162q-110 149 -110 362q0 253 143 402q145 151 369 151q178 0 305 -94zM244 528q0 -140 49 -231l493 571
q-84 66 -202 66q-156 0 -248 -109t-92 -297zM924 528q0 131 -50 234l-493 -574q83 -65 203 -65q156 0 247 108q93 110 93 297z" />
    <glyph glyph-name="uni0218" unicode="&#x218;" horiz-adv-x="1265" 
d="M631 840l129 -29q239 -52 348 -153q106 -99 106 -263q0 -199 -145 -313q-147 -115 -401 -115q-286 0 -445 129q-161 130 -162 385h179q6 -358 428 -358q177 0 273 70q95 69 95 202q0 105 -79 163q-78 57 -275 101l-129 29q-220 51 -332 149q-110 97 -110 273
q0 174 135 278q134 103 362 103q156 0 268 -37q115 -38 177 -103t93 -145q31 -79 32 -172h-177q-12 157 -101 229q-88 72 -292 72q-155 0 -236 -59q-83 -60 -83 -166q0 -107 71 -166q67 -58 271 -104zM676 -293h-105v172h201v-211q0 -80 -40 -120t-132 -46l-29 -2v88l23 2
q82 6 82 72v45z" />
    <glyph glyph-name="uni0219" unicode="&#x219;" horiz-adv-x="956" 
d="M457 621l94 -19q195 -39 279 -110q85 -72 85 -201q0 -151 -111 -233q-112 -83 -308 -83q-425 0 -449 361h166q15 -120 79 -169q65 -50 204 -50q254 0 254 164q0 70 -53 108q-52 37 -189 64l-98 18q-330 61 -330 311q0 137 103 218t282 81q419 0 430 -350h-164
q-6 116 -69 162q-64 47 -197 47q-106 0 -164 -41q-57 -41 -57 -115q0 -70 49 -104q50 -35 164 -59zM504 -356h-105v172h201v-211q0 -80 -40 -120t-132 -46l-29 -2v88l23 2q82 6 82 72v45z" />
    <glyph glyph-name="uni021A" unicode="&#x21a;" horiz-adv-x="1251" 
d="M41 1303v155h1169v-155h-495v-1303h-178v1303h-496zM633 -260h-105v172h201v-211q0 -80 -40 -120t-132 -46l-29 -2v88l23 2q82 6 82 72v45z" />
    <glyph glyph-name="uni021B" unicode="&#x21b;" horiz-adv-x="636" 
d="M586 1057v-144h-217v-686q0 -90 120 -90h97v-137q-68 -6 -117 -6q-264 0 -264 219v700h-174v144h174v299h164v-299h217zM403 -332h-104v172h201v-211q0 -79 -40 -119q-41 -41 -132 -47l-29 -2v88l23 2q81 6 81 72v45z" />
    <glyph glyph-name="uni0237" unicode="&#x237;" horiz-adv-x="409" 
d="M43 -408q-58 0 -88 2v142h68q100 0 100 90v1231h164v-1245q0 -220 -244 -220z" />
    <glyph glyph-name="uni0259" unicode="&#x259;" horiz-adv-x="1116" 
d="M553 1081q220 0 356 -149q135 -150 135 -404q0 -250 -133 -401q-135 -152 -354 -152q-227 0 -356 158q-129 157 -129 395v58h802q-12 172 -96 259t-229 87q-108 0 -183 -51t-104 -146h-172q44 161 164 253q122 93 299 93zM557 125q129 0 211 81q81 79 102 232h-622
q12 -140 94 -226q82 -87 215 -87z" />
    <glyph glyph-name="h.sups" unicode="&#x2b0;" horiz-adv-x="954" 
d="M539 1477q153 0 238 -85t85 -241v-614h-162v596q0 202 -202 202q-103 0 -173 -74q-71 -76 -71 -206v-518h-162v1267h162v-485q102 158 285 158z" />
    <glyph glyph-name="r.sups" unicode="&#x2b3;" horiz-adv-x="651" 
d="M541 1473q28 0 49 -3v-153h-43q-139 0 -216 -72t-77 -205v-503h-162v921h156v-166q89 181 293 181z" />
    <glyph glyph-name="circumflex" unicode="&#x2c6;" horiz-adv-x="819" 
d="M532 1511l234 -294h-164l-192 198l-193 -198h-164l234 294h245z" />
    <glyph glyph-name="caron" unicode="&#x2c7;" horiz-adv-x="819" 
d="M410 1311l192 198h164l-234 -295h-245l-234 295h164z" />
    <glyph glyph-name="uni02C9" unicode="&#x2c9;" horiz-adv-x="819" 
d="M707 1217h-594v137h594v-137z" />
    <glyph glyph-name="breve" unicode="&#x2d8;" horiz-adv-x="819" 
d="M410 1206q-135 0 -223 83q-87 83 -93 222h142q6 -85 52 -128q47 -44 122 -44q74 0 121 44t53 128h141q-11 -139 -96 -222q-86 -83 -219 -83z" />
    <glyph glyph-name="dotaccent" unicode="&#x2d9;" horiz-adv-x="819" 
d="M498 1217h-176v200h176v-200z" />
    <glyph glyph-name="ring" unicode="&#x2da;" horiz-adv-x="819" 
d="M596 1278q-78 -72 -186 -72t-185 72q-75 68 -75 178t75 178q77 72 185 72t186 -72q74 -69 74 -178t-74 -178zM315 1364q39 -39 95 -39q55 0 94 39q39 38 39 92q0 55 -39 94q-38 37 -94 37q-57 0 -95 -37q-39 -39 -39 -94q0 -54 39 -92z" />
    <glyph glyph-name="ogonek" unicode="&#x2db;" horiz-adv-x="819" 
d="M455 -426q-98 0 -164 51t-66 139q0 69 59 136q58 66 154 100h156q-213 -105 -213 -205q0 -40 29 -63t73 -23q61 0 111 21v-133q-57 -23 -139 -23z" />
    <glyph glyph-name="tilde" unicode="&#x2dc;" horiz-adv-x="819" 
d="M205 1217h-139q0 251 184 251q66 0 178 -57q84 -45 129 -45q57 0 57 102h140q0 -251 -185 -251q-59 0 -186 59q-87 43 -121 43q-57 0 -57 -102z" />
    <glyph glyph-name="hungarumlaut" unicode="&#x2dd;" horiz-adv-x="819" 
d="M184 1217h-137l176 294h213zM520 1217h-137l176 294h213z" />
    <glyph glyph-name="s.sups" unicode="&#x2e2;" horiz-adv-x="876" 
d="M449 514q-194 0 -291 77q-96 77 -107 236h162q11 -101 62 -142q53 -42 176 -42q213 0 213 137q0 61 -46 93q-48 34 -157 51l-99 16q-288 46 -288 272q0 126 93 195q94 70 265 70q368 0 375 -303h-158q-6 94 -59 135t-160 41q-194 0 -194 -131q0 -62 43 -95
q42 -32 137 -47l94 -14q163 -24 239 -87t76 -183q0 -134 -100 -206q-102 -73 -276 -73z" />
    <glyph glyph-name="gravecomb" unicode="&#x300;" 
d="M199 1217h-146l-252 294h222z" />
    <glyph glyph-name="acutecomb" unicode="&#x301;" 
d="M-53 1217h-146l176 294h222z" />
    <glyph glyph-name="uni0302" unicode="&#x302;" 
d="M123 1511l233 -294h-163l-193 198l-193 -198h-163l233 294h246z" />
    <glyph glyph-name="tildecomb" unicode="&#x303;" 
d="M-205 1217h-139q0 251 184 251q66 0 178 -57q84 -45 129 -45q58 0 58 102h139q0 -251 -184 -251q-60 0 -187 59q-87 43 -120 43q-58 0 -58 -102z" />
    <glyph glyph-name="uni0304" unicode="&#x304;" 
d="M297 1217h-594v137h594v-137z" />
    <glyph glyph-name="uni0306" unicode="&#x306;" 
d="M-315 1206q-135 0 -223 83q-87 83 -93 222h142q6 -85 52 -128q47 -44 122 -44q74 0 121 44t53 128h141q-10 -139 -96 -222t-219 -83z" />
    <glyph glyph-name="uni0307" unicode="&#x307;" 
d="M88 1217h-176v200h176v-200z" />
    <glyph glyph-name="uni0308" unicode="&#x308;" 
d="M-92 1217h-174v200h174v-200zM266 1217h-174v200h174v-200z" />
    <glyph glyph-name="uni030A" unicode="&#x30a;" 
d="M186 1278q-78 -72 -186 -72t-186 72q-74 69 -74 178t74 178q78 72 186 72t186 -72q74 -69 74 -178t-74 -178zM-94 1364q39 -39 94 -39t94 39q39 38 39 92q0 55 -39 94q-38 37 -94 37t-94 -37q-39 -39 -39 -94q0 -54 39 -92z" />
    <glyph glyph-name="uni030B" unicode="&#x30b;" 
d="M-225 1217h-137l176 294h213zM111 1217h-138l177 294h212z" />
    <glyph glyph-name="uni030C" unicode="&#x30c;" 
d="M-356 1311l192 198h164l-233 -295h-246l-234 295h164z" />
    <glyph glyph-name="uni0312" unicode="&#x312;" 
d="M100 1507l-22 -2q-82 -6 -82 -71v-45h104v-172h-200v210q0 80 40 120t132 46l28 2v-88z" />
    <glyph glyph-name="uni0313" unicode="&#x313;" 
d="M-100 1413v172h200v-211q0 -80 -40 -120t-132 -46l-28 -2v88l22 2q82 6 82 72v45h-104z" />
    <glyph glyph-name="dotbelowcomb" unicode="&#x323;" 
d="M88 -360h-176v200h176v-200z" />
    <glyph glyph-name="uni0324" unicode="&#x324;" 
d="M-92 -360h-174v200h174v-200zM266 -360h-174v200h174v-200z" />
    <glyph glyph-name="uni0325" unicode="&#x325;" 
d="M186 -588q-77 -71 -186 -71t-186 71q-74 72 -74 178q0 107 74 179q77 71 186 71t186 -71q74 -72 74 -179q0 -106 -74 -178zM-94 -504q38 -37 94 -37t94 37q39 39 39 94q0 56 -39 93q-38 38 -94 38t-94 -38q-39 -37 -39 -93q0 -55 39 -94z" />
    <glyph glyph-name="uni0326" unicode="&#x326;" 
d="M-100 -332v172h200v-211q0 -79 -40 -119q-41 -41 -132 -47l-28 -2v88l22 2q82 6 82 72v45h-104z" />
    <glyph glyph-name="uni0327" unicode="&#x327;" 
d="M-203 -88h19q84 0 134 -45t50 -117q0 -196 -281 -196q-63 0 -125 12v94q61 -8 119 -8q60 0 94 24q35 24 35 70q0 84 -116 84q-34 0 -58 -2v78l82 104h133z" />
    <glyph glyph-name="uni0328" unicode="&#x328;" 
d="M45 -426q-98 0 -164 51q-65 50 -65 139q0 71 58 136t155 100h155q-213 -105 -213 -205q0 -40 29 -63t74 -23q60 0 110 21v-133q-57 -23 -139 -23z" />
    <glyph glyph-name="uni032E" unicode="&#x32e;" 
d="M-315 -465q-135 0 -223 83q-87 82 -93 222h142q6 -85 52 -128q47 -44 122 -44q74 0 121 44t53 128h141q-10 -140 -96 -222q-86 -83 -219 -83z" />
    <glyph glyph-name="uni0331" unicode="&#x331;" 
d="M297 -297h-594v137h594v-137z" />
    <glyph glyph-name="uni0335" unicode="&#x335;" 
d="M289 496h-578v133h578v-133z" />
    <glyph glyph-name="uni0337" unicode="&#x337;" 
d="M543 1049l-983 -1137l-103 90l983 1137z" />
    <glyph glyph-name="uni0338" unicode="&#x338;" 
d="M737 1430l-1366 -1541l-108 97l1366 1540z" />
    <glyph glyph-name="uni0394" unicode="&#x394;" horiz-adv-x="1341" 
d="M571 1458h193l526 -1302v-156h-1239v156zM666 1272q-153 -409 -260 -676l-175 -440h879l-178 442q-58 141 -266 674z" />
    <glyph glyph-name="uni03A9" unicode="&#x3a9;" horiz-adv-x="1560" 
d="M672 0h-600v154h348v4q-159 106 -245 270q-87 166 -87 358q0 325 193 512q190 187 501 187t498 -187q186 -186 186 -512q0 -194 -84 -360t-241 -268v-4h348v-154h-598v137q198 105 300 272q101 165 101 377q0 266 -135 406q-135 139 -375 139q-244 0 -382 -139
q-138 -140 -138 -406q0 -205 105 -375t305 -274v-137z" />
    <glyph glyph-name="uni03BC" unicode="&#x3bc;" horiz-adv-x="1105" 
d="M819 459v598h164v-1057h-156v158q-122 -183 -331 -183q-118 0 -209 74v-450h-164v1458h164v-699q0 -235 241 -235q114 0 203 86q88 85 88 250z" />
    <glyph glyph-name="pi" unicode="&#x3c0;" horiz-adv-x="1153" 
d="M1102 1057v-144h-174v-684q0 -49 16 -69q16 -21 64 -21h73v-139q-61 -6 -96 -6q-114 0 -167 52q-54 52 -54 169v698h-395v-913h-164v913h-174v144h1071z" />
    <glyph glyph-name="d.sups" unicode="&#x1d48;" horiz-adv-x="1060" 
d="M807 1319v485h162v-1267h-156v145q-105 -166 -309 -166q-193 0 -307 130q-115 132 -115 349q0 219 115 351q114 131 307 131q201 0 303 -158zM326 743q76 -88 204 -88q127 0 205 90q76 88 76 250q0 160 -76 251t-205 91q-128 0 -204 -93q-76 -92 -76 -255t76 -246z" />
    <glyph glyph-name="t.sups" unicode="&#x1d57;" horiz-adv-x="624" 
d="M563 1458v-133h-190v-569q0 -45 24 -66q23 -20 84 -20h82v-129q-59 -9 -106 -9q-246 0 -246 207v586h-150v133h150v262h162v-262h190z" />
    <glyph glyph-name="Wgrave" unicode="&#x1e80;" horiz-adv-x="1957" 
d="M868 1841l176 -295h-145l-252 295h221zM1550 739l199 719h178l-414 -1458h-192l-209 743q-82 293 -133 494q-51 -201 -133 -494l-209 -743h-193l-413 1458h178l199 -719q91 -322 137 -522q89 340 139 526l199 715h192l199 -715q83 -302 139 -526q46 200 137 522z" />
    <glyph glyph-name="wgrave" unicode="&#x1e81;" horiz-adv-x="1593" 
d="M696 1511l176 -294h-145l-252 294h221zM1257 580l150 477h176l-352 -1057h-172l-156 489q-74 241 -106 359q-41 -150 -109 -359l-153 -489h-173l-352 1057h176l150 -477q52 -164 115 -385q70 248 112 385l148 477h172l147 -477q33 -109 62 -205t41 -135.5t12 -40.5
q20 76 112 381z" />
    <glyph glyph-name="Wacute" unicode="&#x1e82;" horiz-adv-x="1957" 
d="M1081 1841h222l-252 -295h-146zM1550 739l199 719h178l-414 -1458h-192l-209 743q-82 293 -133 494q-51 -201 -133 -494l-209 -743h-193l-413 1458h178l199 -719q91 -322 137 -522q89 340 139 526l199 715h192l199 -715q83 -302 139 -526q46 200 137 522z" />
    <glyph glyph-name="wacute" unicode="&#x1e83;" horiz-adv-x="1593" 
d="M905 1511h221l-252 -294h-145zM1257 580l150 477h176l-352 -1057h-172l-156 489q-74 241 -106 359q-41 -150 -109 -359l-153 -489h-173l-352 1057h176l150 -477q52 -164 115 -385q70 248 112 385l148 477h172l147 -477q33 -109 62 -205t41 -135.5t12 -40.5q20 76 112 381
z" />
    <glyph glyph-name="Wdieresis" unicode="&#x1e84;" horiz-adv-x="1957" 
d="M711 1747h174v-201h-174v201zM1069 1747h174v-201h-174v201zM1550 739l199 719h178l-414 -1458h-192l-209 743q-82 293 -133 494q-51 -201 -133 -494l-209 -743h-193l-413 1458h178l199 -719q91 -322 137 -522q89 340 139 526l199 715h192l199 -715q83 -302 139 -526
q46 200 137 522z" />
    <glyph glyph-name="wdieresis" unicode="&#x1e85;" horiz-adv-x="1593" 
d="M528 1417h174v-200h-174v200zM887 1417h174v-200h-174v200zM1257 580l150 477h176l-352 -1057h-172l-156 489q-74 241 -106 359q-41 -150 -109 -359l-153 -489h-173l-352 1057h176l150 -477q52 -164 115 -385q70 248 112 385l148 477h172l147 -477q33 -109 62 -205
t41 -135.5t12 -40.5q20 76 112 381z" />
    <glyph glyph-name="uni1E9E" unicode="&#x1e9e;" horiz-adv-x="1349" 
d="M1233 1327l-406 -463q220 -18 345 -136q126 -119 126 -304q0 -204 -143 -322q-143 -122 -395 -122q-142 0 -277 30v156q133 -31 269 -31q183 0 278 76q96 77 96 213t-97 208q-99 73 -279 73q-55 0 -132 -7v152l400 473q-127 10 -285 10q-241 0 -345 -102
q-103 -102 -103 -313v-918h-172v918q0 571 620 571q264 0 500 -31v-131z" />
    <glyph glyph-name="Ygrave" unicode="&#x1ef2;" horiz-adv-x="1347" 
d="M563 1841l176 -295h-145l-252 295h221zM909 1118l213 340h195l-557 -872v-586h-172v586l-557 872h196l215 -342q135 -211 234 -377q132 223 233 379z" />
    <glyph glyph-name="ygrave" unicode="&#x1ef3;" horiz-adv-x="980" 
d="M391 1511l176 -294h-145l-252 294h221zM643 618l150 439h178l-447 -1223q-46 -133 -129 -187q-84 -55 -215 -55q-37 0 -98 7v137h96q142 0 193 131l37 98l-398 1092h180l150 -441q98 -290 152 -456q62 197 151 458z" />
    <glyph glyph-name="thinspace" unicode="&#x2009;" horiz-adv-x="409" 
 />
    <glyph glyph-name="uni2011" unicode="&#x2011;" horiz-adv-x="755" 
d="M674 504h-592v147h592v-147z" />
    <glyph glyph-name="endash" unicode="&#x2013;" horiz-adv-x="1083" 
d="M1001 504h-919v147h919v-147z" />
    <glyph glyph-name="emdash" unicode="&#x2014;" horiz-adv-x="1968" 
d="M1886 504h-1804v147h1804v-147z" />
    <glyph glyph-name="quoteleft" unicode="&#x2018;" horiz-adv-x="387" 
d="M295 1352l-14 -2q-74 -11 -74 -138v-32h88v-201h-203v219q0 242 182 260l21 2v-108z" />
    <glyph glyph-name="quoteright" unicode="&#x2019;" horiz-adv-x="387" 
d="M92 1257v201h203v-219q0 -242 -182 -260l-21 -2v108l14 2q74 11 74 138v32h-88z" />
    <glyph glyph-name="quotesinglbase" unicode="&#x201a;" horiz-adv-x="387" 
d="M92 0v201h203v-219q0 -243 -182 -261l-21 -2v109l14 2q74 11 74 137v33h-88z" />
    <glyph glyph-name="quotedblleft" unicode="&#x201c;" horiz-adv-x="669" 
d="M92 977v219q0 242 182 260l21 2v-108l-14 -2q-74 -8 -74 -138v-32h88v-201h-203zM578 1350l-15 -2q-74 -8 -74 -138v-32h89v-201h-203v219q0 242 182 260l21 2v-108z" />
    <glyph glyph-name="quotedblright" unicode="&#x201d;" horiz-adv-x="669" 
d="M180 1257h-88v201h203v-219q0 -242 -182 -260l-21 -2v108l14 2q74 11 74 138v32zM375 1257v201h203v-219q0 -242 -183 -260l-20 -2v108l14 2q74 11 74 138v32h-88z" />
    <glyph glyph-name="quotedblbase" unicode="&#x201e;" horiz-adv-x="669" 
d="M180 0h-88v201h203v-219q0 -243 -182 -261l-21 -2v109l14 2q74 11 74 137v33zM375 0v201h203v-219q0 -243 -183 -261l-20 -2v109l14 2q74 11 74 137v33h-88z" />
    <glyph glyph-name="dagger" unicode="&#x2020;" horiz-adv-x="1169" 
d="M674 1057h454v-156h-454v-1200h-178v1200h-455v156h455v401h178v-401z" />
    <glyph glyph-name="daggerdbl" unicode="&#x2021;" horiz-adv-x="1169" 
d="M1128 1057v-156h-454v-643h454v-156h-454v-401h-178v401h-455v156h455v643h-455v156h455v401h178v-401h454z" />
    <glyph glyph-name="bullet" unicode="&#x2022;" horiz-adv-x="624" 
d="M492 408h-359v354h359v-354z" />
    <glyph glyph-name="ellipsis" unicode="&#x2026;" horiz-adv-x="1312" 
d="M299 0h-207v205h207v-205zM770 0h-207v205h207v-205zM1221 0h-207v205h207v-205z" />
    <glyph glyph-name="perthousand" unicode="&#x2030;" horiz-adv-x="2590" 
d="M643 713q-89 -119 -258 -119q-170 0 -256 119q-88 113 -88 321q0 212 88 327q89 116 256 116t256 -116q88 -115 88 -327q0 -203 -86 -321zM600 0h-158l779 1458h157zM199 1034q0 -311 186 -311t186 311q0 314 -186 314t-186 -314zM1694 100q-88 -118 -258 -118
q-171 0 -256 118q-88 113 -88 322q0 212 88 327t256 115t256 -115t88 -327q0 -204 -86 -322zM2464 100q-88 -118 -258 -118q-171 0 -256 118q-88 113 -88 322q0 212 88 327t256 115t256 -115t88 -327q0 -204 -86 -322zM1249 422q0 -311 187 -311q186 0 186 311
q0 313 -186 313q-187 0 -187 -313zM2019 422q0 -311 187 -311q186 0 186 311q0 313 -186 313q-187 0 -187 -313z" />
    <glyph glyph-name="guilsinglleft" unicode="&#x2039;" horiz-adv-x="614" 
d="M133 623l348 284v-190l-233 -189l233 -190v-191l-348 285v191z" />
    <glyph glyph-name="guilsinglright" unicode="&#x203a;" horiz-adv-x="614" 
d="M133 717v190l348 -284v-191l-348 -285v191l234 190z" />
    <glyph glyph-name="uni203D" unicode="&#x203d;" horiz-adv-x="1038" 
d="M526 1491q212 0 331 -100q120 -101 120 -287q0 -106 -51 -188q-51 -83 -164 -179q-120 -102 -154 -174q-21 -47 -26 -182h-138l-12 635v155h178v-155l-10 -213l23 22q98 87 127 129q12 16 24 39q29 53 29 109q0 233 -271 233q-151 0 -226 -74q-76 -75 -87 -251h-168
q1 234 127 358q124 123 348 123zM614 0h-206v205h206v-205z" />
    <glyph glyph-name="fraction" unicode="&#x2044;" horiz-adv-x="608" 
d="M-8 0h-154l778 1458h154z" />
    <glyph glyph-name="zero.sups" unicode="&#x2070;" horiz-adv-x="770" 
d="M643 1182q-89 -119 -258 -119q-170 0 -256 119q-88 113 -88 321q0 212 88 327q89 116 256 116t256 -116q88 -115 88 -327q0 -203 -86 -321zM199 1503q0 -311 186 -311t186 311q0 314 -186 314t-186 -314z" />
    <glyph glyph-name="four.sups" unicode="&#x2074;" horiz-adv-x="765" 
d="M612 1415h123v-129h-123v-205h-155v205h-426v150l424 491h157v-512zM463 1415v340l-293 -340h293z" />
    <glyph glyph-name="five.sups" unicode="&#x2075;" horiz-adv-x="720" 
d="M397 1651q127 0 205 -83q78 -82 78 -212q0 -131 -90 -212t-228 -81q-130 0 -219 69q-87 68 -102 183h147q30 -129 174 -129q78 0 125 48q48 50 48 122q0 75 -48 126q-47 50 -125 50q-118 0 -161 -96h-148l86 491h504v-129h-385l-37 -203q68 56 176 56z" />
    <glyph glyph-name="six.sups" unicode="&#x2076;" horiz-adv-x="747" 
d="M410 1651q129 0 213 -85q84 -86 84 -210q0 -130 -90 -212q-89 -81 -228 -81q-120 0 -203 61q-135 100 -135 359q0 223 87 343t257 120q123 0 203 -62t98 -168h-149q-27 107 -152 107q-185 0 -200 -271q80 99 215 99zM389 1186q79 0 125 46q47 47 47 120q0 75 -47 124
q-47 48 -125 48q-74 0 -122 -49t-48 -123q0 -72 47 -119t123 -47z" />
    <glyph glyph-name="seven.sups" unicode="&#x2077;" horiz-adv-x="653" 
d="M31 1798v129h592v-131q-156 -144 -224 -309q-70 -169 -71 -406h-162q2 205 84 396q83 192 221 321h-440z" />
    <glyph glyph-name="eight.sups" unicode="&#x2078;" horiz-adv-x="741" 
d="M553 1530q147 -63 147 -217q0 -112 -88 -181t-241 -69t-242 69q-88 69 -88 181q0 158 147 215q-108 68 -108 186q0 105 78 168q79 64 213 64q132 0 211 -64q77 -62 77 -168q0 -121 -106 -184zM481 1800q-44 35 -110 35q-67 0 -111 -35q-43 -34 -43 -94t43 -94
q43 -37 111 -37q67 0 110 37q43 34 43 94t-43 94zM238 1225q47 -41 133 -41q88 0 135 41q47 40 46 105q-2 67 -48 106q-45 39 -133 39t-133 -39q-48 -42 -48 -106q0 -63 48 -105z" />
    <glyph glyph-name="nine.sups" unicode="&#x2079;" horiz-adv-x="747" 
d="M561 1884q135 -102 135 -358q0 -224 -85 -343q-85 -120 -249 -120q-128 0 -210 61q-83 62 -101 168h150q30 -106 161 -106q175 0 191 268q-80 -96 -215 -96q-129 0 -213 85t-84 210q0 131 89 212q88 81 228 81q120 0 203 -62zM358 1485q74 0 122 49q48 50 48 123
q0 72 -47 119t-123 47q-79 0 -125 -46q-47 -47 -47 -120q0 -75 47 -124q47 -48 125 -48z" />
    <glyph glyph-name="plus.sups" unicode="&#x207a;" horiz-adv-x="606" 
d="M369 1563h196v-121h-196v-197h-133v197h-195v121h195v198h133v-198z" />
    <glyph glyph-name="minus.sups" unicode="&#x207b;" horiz-adv-x="606" 
d="M565 1442h-524v121h524v-121z" />
    <glyph glyph-name="parenleft.sups" unicode="&#x207d;" horiz-adv-x="323" 
d="M324 922h-142q-64 142 -92 278q-29 136 -29 303q0 181 27 309q29 135 94 277h142q-125 -276 -125 -586q0 -293 125 -581z" />
    <glyph glyph-name="parenright.sups" unicode="&#x207e;" horiz-adv-x="323" 
d="M141 922h-141q125 288 125 581q0 310 -125 586h141q67 -146 95 -277q26 -123 26 -309q0 -183 -26 -303q-22 -111 -95 -278z" />
    <glyph glyph-name="n.sups" unicode="&#x207f;" horiz-adv-x="954" 
d="M539 1477q153 0 238 -85t85 -241v-614h-162v596q0 202 -202 202q-103 0 -173 -74q-71 -76 -71 -206v-518h-162v921h156v-149q100 168 291 168z" />
    <glyph glyph-name="zero.subs" unicode="&#x2080;" horiz-adv-x="770" 
d="M643 -303q-90 -117 -258 -117q-171 0 -256 117q-88 118 -88 323q0 212 88 327q89 116 256 116t256 -116q88 -115 88 -327q0 -204 -86 -323zM199 20q0 -311 186 -311t186 311q0 314 -186 314t-186 -314z" />
    <glyph glyph-name="one.subs" unicode="&#x2081;" horiz-adv-x="444" 
d="M262 444h131v-845h-157v604h-205v110q99 0 150 28q52 28 81 103z" />
    <glyph glyph-name="two.subs" unicode="&#x2082;" horiz-adv-x="681" 
d="M184 -272h467v-129h-631l3 57q6 131 66 218q60 86 202 144l57 23q146 60 146 164q0 129 -158 129q-78 0 -118 -42q-40 -41 -40 -112h-147q2 130 81 206q80 77 228 77q144 0 223 -72q80 -72 80 -182q0 -187 -233 -287l-72 -31q-76 -31 -109 -67q-35 -38 -45 -96z" />
    <glyph glyph-name="three.subs" unicode="&#x2083;" horiz-adv-x="714" 
d="M537 49q65 -22 103 -77t38 -130q0 -117 -88 -189q-90 -73 -236 -73q-156 0 -244 77q-89 78 -90 216h150q0 -170 184 -170q79 0 126 38q46 37 46 105q0 138 -180 138h-55v112h59q160 0 160 125q0 55 -41 87t-113 32q-146 0 -157 -129h-150q7 119 89 186q81 66 218 66
q139 0 221 -62q80 -61 80 -165q0 -126 -120 -187z" />
    <glyph glyph-name="four.subs" unicode="&#x2084;" horiz-adv-x="765" 
d="M612 -68h123v-129h-123v-204h-155v204h-426v150l424 491h157v-512zM463 -68v340l-293 -340h293z" />
    <glyph glyph-name="five.subs" unicode="&#x2085;" horiz-adv-x="720" 
d="M397 168q127 0 205 -83q78 -82 78 -212q0 -131 -90 -212t-228 -81q-130 0 -219 69q-87 68 -102 183h147q30 -129 174 -129q78 0 125 48q48 50 48 122q0 75 -48 126q-47 50 -125 50q-118 0 -161 -96h-148l86 491h504v-129h-385l-37 -202q67 55 176 55z" />
    <glyph glyph-name="six.subs" unicode="&#x2086;" horiz-adv-x="747" 
d="M410 168q129 0 213 -85t84 -210q0 -130 -90 -212q-89 -81 -228 -81q-118 0 -203 62q-135 102 -135 358q0 223 87 343t257 120q123 0 203 -62t98 -168h-149q-27 107 -152 107q-185 0 -200 -270q79 98 215 98zM389 -297q79 0 125 46q47 47 47 120q0 75 -47 124
q-46 48 -125 48q-74 0 -122 -49q-48 -50 -48 -123q0 -72 47 -119t123 -47z" />
    <glyph glyph-name="seven.subs" unicode="&#x2087;" horiz-adv-x="653" 
d="M31 315v129h592v-131q-156 -144 -224 -309q-70 -169 -71 -405h-162q1 204 84 395q83 192 221 321h-440z" />
    <glyph glyph-name="eight.subs" unicode="&#x2088;" horiz-adv-x="741" 
d="M553 47q147 -66 147 -217q0 -112 -88 -181t-241 -69t-242 69q-88 69 -88 181q0 158 147 215q-108 67 -108 186q0 105 78 168q79 64 213 64q132 0 211 -64q77 -62 77 -168q0 -121 -106 -184zM481 317q-44 35 -110 35q-67 0 -111 -35q-43 -34 -43 -94t43 -94
q43 -37 111 -37q67 0 110 37q43 34 43 94t-43 94zM238 -260q45 -39 133 -39q90 0 135 39q47 40 46 105q-2 67 -48 106q-47 41 -133 41t-133 -41q-48 -42 -48 -106q0 -63 48 -105z" />
    <glyph glyph-name="nine.subs" unicode="&#x2089;" horiz-adv-x="747" 
d="M561 401q135 -102 135 -358q0 -224 -85 -343q-85 -120 -249 -120q-127 0 -210 62t-101 168h150q30 -107 161 -107q175 0 191 268q-80 -96 -215 -96q-129 0 -213 85q-84 86 -84 210q0 131 89 212q88 81 228 81q120 0 203 -62zM358 2q74 0 122 49t48 123q0 72 -47 119
t-123 47q-79 0 -125 -46q-47 -47 -47 -120q0 -75 47 -124q47 -48 125 -48z" />
    <glyph glyph-name="plus.subs" unicode="&#x208a;" horiz-adv-x="606" 
d="M369 80h196v-121h-196v-197h-133v197h-195v121h195v199h133v-199z" />
    <glyph glyph-name="minus.subs" unicode="&#x208b;" horiz-adv-x="606" 
d="M565 -41h-524v121h524v-121z" />
    <glyph glyph-name="equal.subs" unicode="&#x208c;" horiz-adv-x="606" 
d="M565 76h-524v112h524v-112zM565 -150h-524v113h524v-113z" />
    <glyph glyph-name="uni208D" unicode="&#x208d;" horiz-adv-x="323" 
d="M324 -563h-142q-64 149 -92 276q-29 139 -29 305q0 182 27 310q28 133 94 276h142q-125 -276 -125 -586q0 -293 125 -581z" />
    <glyph glyph-name="uni208E" unicode="&#x208e;" horiz-adv-x="323" 
d="M141 -565h-141q125 288 125 581q0 310 -125 586h141q68 -147 95 -276q26 -123 26 -310q0 -182 -26 -305q-26 -116 -95 -276z" />
    <glyph glyph-name="n.subs" unicode="&#x2099;" horiz-adv-x="954" 
d="M539 539q153 0 238 -85t85 -241v-614h-162v596q0 202 -202 202q-103 0 -173 -74q-71 -76 -71 -206v-518h-162v921h156v-149q100 168 291 168z" />
    <glyph glyph-name="Euro" unicode="&#x20ac;" horiz-adv-x="1396" 
d="M1165 489h170q-38 -253 -192 -385q-156 -135 -373 -135q-239 0 -399 151q-159 150 -203 415h-168v139h154q-2 20 -2 59q0 21 4 94h-156v142h174q50 248 203 385q154 137 387 137q227 0 372 -125q144 -124 195 -346h-182q-91 315 -387 315q-162 0 -265 -94
q-104 -95 -143 -272h465v-142h-483q-4 -73 -4 -94q0 -43 2 -59h485v-139h-471q35 -201 142 -305q108 -105 280 -105q338 0 395 364z" />
    <glyph glyph-name="uni20B8" unicode="&#x20b8;" horiz-adv-x="1251" 
d="M41 1303v155h1169v-155h-1169zM537 956h-496v156h1169v-156h-495v-956h-178v956z" />
    <glyph glyph-name="uni20B9" unicode="&#x20b9;" horiz-adv-x="1280" 
d="M1210 1458v-137h-231q78 -84 96 -203h135v-137h-135q-24 -162 -154 -250t-335 -88h-193l686 -643h-243l-703 664v135h453q267 0 307 182h-760v137h760q-41 185 -307 185h-453v155h1077z" />
    <glyph glyph-name="uni20BA" unicode="&#x20ba;" horiz-adv-x="1144" 
d="M903 762h180q0 -344 -209 -553q-212 -209 -571 -209h-172v659l-131 -61v141l131 62v153l-131 -61v141l131 62v362h172v-282l404 186v-141l-404 -187v-153l404 186v-141l-404 -187v-581q281 0 440 164q160 163 160 440z" />
    <glyph glyph-name="uni20BC" unicode="&#x20bc;" horiz-adv-x="1437" 
d="M799 1087h4q268 0 395 -121t127 -374v-592h-170v606q0 170 -85 252t-265 82h-6v-733h-168v733h-15q-333 0 -333 -334v-606h-170v592q0 252 123 374q122 121 378 121h17v371h168v-371z" />
    <glyph glyph-name="uni20BF" unicode="&#x20bf;" horiz-adv-x="1294" 
d="M1243 410q0 -183 -113 -291q-113 -109 -319 -119v-238h-152v238h-141v-238h-151v238h-234v1458h234v238h151v-238h141v238h152v-242q177 -18 275 -120q98 -103 98 -257q0 -218 -193 -319q252 -96 252 -348zM727 1303h-422v-482h422q141 0 215 66t74 184q0 109 -75 170
q-76 62 -214 62zM305 156h457q152 0 230 65q79 66 79 189q0 258 -311 258h-455v-512z" />
    <glyph glyph-name="uni2105" unicode="&#x2105;" horiz-adv-x="2019" 
d="M451 594q-188 0 -299 121t-111 319q0 202 110 323q109 120 300 120q159 0 265 -89q105 -88 126 -241h-160q-16 89 -78 142q-61 52 -153 52q-119 0 -181 -81q-63 -82 -63 -226q0 -141 64 -223t180 -82q94 0 156 56t79 153h156q-18 -157 -124 -251q-105 -93 -267 -93z
M696 0h-157l778 1458h158zM1862 102q-116 -120 -306 -120t-303 122q-116 120 -116 318q0 199 116 321q114 121 303 121q191 0 308 -121q114 -125 114 -321q0 -203 -116 -320zM1372 203q68 -84 184 -84q115 0 187 84q69 83 69 219q0 138 -69 221q-72 84 -187 84
q-117 0 -184 -82q-69 -83 -69 -223q0 -136 69 -219z" />
    <glyph glyph-name="uni2113" unicode="&#x2113;" horiz-adv-x="860" 
d="M479 119q96 0 166 53l45 -137q-96 -60 -221 -60q-128 0 -203 73q-73 72 -73 194v176q-64 -13 -132 -19l-20 144q80 6 152 26v580q0 166 75 253q77 89 226 89q276 0 276 -344q0 -237 -106 -413q-107 -177 -308 -263v-221q0 -60 34 -95q35 -36 89 -36zM356 1153v-512
q250 157 250 502q0 205 -119 205q-131 0 -131 -195z" />
    <glyph glyph-name="uni2116" unicode="&#x2116;" horiz-adv-x="2240" 
d="M1812 1479q154 0 250 -105q97 -106 97 -272q0 -167 -97 -273q-95 -104 -250 -104q-158 0 -253 104q-97 106 -97 273q0 166 97 272q96 105 253 105zM1122 967v491h170v-1458h-209l-483 752q-213 338 -303 493q6 -287 6 -753v-492h-170v1458h209l483 -751
q204 -325 303 -494q-6 286 -6 754zM1812 866q91 0 144 64t53 172t-53 173q-52 64 -144 64t-146 -64q-54 -65 -54 -173t53 -172t147 -64z" />
    <glyph glyph-name="uni2117" unicode="&#x2117;" horiz-adv-x="1697" 
d="M301 1272q219 221 547 221q331 0 549 -221q219 -224 219 -543q0 -322 -219 -541q-218 -221 -549 -221q-328 0 -547 221q-219 219 -219 541q0 319 219 543zM848 96q272 0 450 183q179 181 179 450t-179 453q-178 182 -450 182q-271 0 -449 -182t-178 -453t178 -450
q179 -183 449 -183zM571 1165h355q142 0 223 -74q82 -75 82 -202q0 -128 -82 -201q-83 -74 -223 -74h-213v-321h-142v872zM713 745h213q74 0 118 38q43 37 43 106q0 143 -161 143h-213v-287z" />
    <glyph glyph-name="trademark" unicode="&#x2122;" horiz-adv-x="1103" 
d="M217 1376h-166v82h422v-82h-166v-438h-90v438zM838 1178l112 280h103v-520h-88v172q0 108 2 166l-15 -35l-121 -303h-71l-123 303l-14 37q2 -58 2 -168v-172h-88v520h102l117 -289q2 -6 39 -108z" />
    <glyph glyph-name="uni2126" unicode="&#x2126;" horiz-adv-x="1560" 
d="M672 0h-600v154h348v4q-159 106 -245 270q-87 166 -87 358q0 325 193 512q190 187 501 187t498 -187q186 -186 186 -512q0 -194 -84 -360t-241 -268v-4h348v-154h-598v137q198 105 300 272q101 165 101 377q0 266 -135 406q-135 139 -375 139q-244 0 -382 -139
q-138 -140 -138 -406q0 -205 105 -375t305 -274v-137z" />
    <glyph glyph-name="estimated" unicode="&#x212e;" horiz-adv-x="1865" 
d="M330 1276q224 215 604 215q379 0 604 -225q223 -224 223 -557h-1323q-28 0 -28 -27v-360q0 -68 32 -97q200 -196 492 -196q153 0 290 64t226 171h149q-89 -126 -263 -209q-171 -82 -402 -82q-373 0 -602 213q-230 212 -230 543q0 328 228 547zM934 1434q-291 0 -492 -201
q-32 -29 -32 -90v-361q0 -26 28 -26h985q29 0 29 26v361q0 60 -33 90q-205 201 -485 201z" />
    <glyph glyph-name="uni2153" unicode="&#x2153;" horiz-adv-x="1607" 
d="M393 1458v-846h-157v605h-205v110q99 0 150 28q52 28 81 103h131zM238 0l778 1458h153l-778 -1458h-153zM1430 451q65 -22 103 -77t38 -130q0 -118 -88 -190q-89 -72 -236 -72q-159 0 -245 76q-88 77 -89 216h150q0 -170 184 -170q79 0 126 38q46 37 46 106
q0 137 -180 137h-55v113h59q160 0 160 125q0 55 -41 87q-40 31 -113 31q-147 0 -157 -129h-150q7 121 89 187q80 65 218 65q140 0 220 -61q81 -61 81 -166q0 -125 -120 -186z" />
    <glyph glyph-name="uni2154" unicode="&#x2154;" horiz-adv-x="1873" 
d="M184 741h467v-129h-631l3 58q6 131 66 218q60 86 202 144l57 23q146 60 146 164q0 129 -158 129q-78 0 -118 -42q-40 -41 -40 -112h-147q2 130 81 206q80 77 228 77q144 0 223 -72q80 -72 80 -182q0 -187 -233 -287l-72 -31q-76 -31 -109 -67q-35 -38 -45 -97zM524 0
l779 1458h153l-778 -1458h-154zM1696 451q65 -22 103 -77t38 -130q0 -118 -88 -190q-89 -72 -236 -72q-158 0 -244 76q-88 77 -89 216h149q0 -170 184 -170q79 0 126 38q46 37 46 106q0 137 -180 137h-55v113h59q160 0 160 125q0 55 -41 87q-40 31 -112 31q-148 0 -158 -129
h-150q7 121 89 187q80 65 219 65q140 0 220 -61q81 -61 81 -166q0 -125 -121 -186z" />
    <glyph glyph-name="uni2155" unicode="&#x2155;" horiz-adv-x="1554" 
d="M393 612h-157v605h-205v110q99 0 150 28q52 28 81 103h131v-846zM221 0l778 1458h154l-778 -1458h-154zM1231 569q127 0 205 -83q77 -81 77 -212t-90 -212q-89 -80 -227 -80q-132 0 -219 68q-88 69 -103 183h148q30 -129 174 -129q78 0 125 49t47 121q0 76 -47 126
q-48 51 -125 51q-118 0 -162 -97h-147l86 492h504v-129h-385l-37 -203q67 55 176 55z" />
    <glyph glyph-name="uni2156" unicode="&#x2156;" horiz-adv-x="1798" 
d="M184 741h467v-129h-631l3 58q6 131 66 218q60 86 202 144l57 23q146 60 146 164q0 129 -158 129q-78 0 -118 -42q-40 -41 -40 -112h-147q2 130 81 206q80 77 228 77q144 0 223 -72q80 -72 80 -182q0 -187 -233 -287l-72 -31q-76 -31 -109 -67q-35 -38 -45 -97zM479 0
l778 1458h154l-778 -1458h-154zM1485 569q127 0 205 -83q77 -81 77 -212t-90 -212q-89 -80 -227 -80q-132 0 -219 68q-88 69 -103 183h148q30 -129 174 -129q78 0 125 49t47 121q0 76 -47 126q-48 51 -125 51q-118 0 -162 -97h-147l86 492h504v-129h-385l-37 -203
q67 55 176 55z" />
    <glyph glyph-name="uni2157" unicode="&#x2157;" horiz-adv-x="1755" 
d="M678 856q0 -117 -88 -189q-90 -73 -236 -73q-156 0 -244 77q-89 78 -90 216h150q0 -170 184 -170q79 0 126 38q46 37 46 105q0 137 -180 137h-55v113h59q160 0 160 125q0 55 -41 87t-113 32q-146 0 -157 -129h-150q7 119 89 186q81 66 218 66q139 0 221 -62
q80 -61 80 -166q0 -59 -32 -107q-34 -51 -88 -79q65 -22 103 -77t38 -130zM430 0l778 1458h154l-778 -1458h-154zM1436 569q126 0 204 -83q78 -82 78 -212q0 -131 -90 -212q-89 -80 -227 -80q-132 0 -219 68q-88 69 -103 183h148q30 -129 174 -129q78 0 125 49t47 121
q0 76 -47 126q-48 51 -125 51q-118 0 -162 -97h-147l86 492h503v-129h-385l-36 -203q67 55 176 55z" />
    <glyph glyph-name="uni2158" unicode="&#x2158;" horiz-adv-x="1789" 
d="M612 817v-205h-155v205h-426v150l424 491h157v-512h123v-129h-123zM471 0l778 1458h154l-778 -1458h-154zM463 946v340l-293 -340h293zM1477 569q126 0 204 -83q78 -82 78 -212q0 -131 -90 -212q-89 -80 -227 -80q-132 0 -219 68q-88 69 -103 183h148q30 -129 174 -129
q78 0 125 49t47 121q0 76 -47 126q-48 51 -125 51q-118 0 -162 -97h-147l86 492h503v-129h-385l-37 -203q67 55 177 55z" />
    <glyph glyph-name="uni2159" unicode="&#x2159;" horiz-adv-x="1564" 
d="M393 612h-157v605h-205v110q99 0 150 28q52 28 81 103h131v-846zM221 0l778 1458h154l-778 -1458h-154zM1227 569q129 0 213 -85q84 -86 84 -210q0 -131 -89 -212q-87 -80 -229 -80q-120 0 -202 61q-136 101 -136 358q0 223 87 343t257 120q124 0 203 -61q80 -62 98 -168
h-149q-27 106 -152 106q-184 0 -200 -270q79 98 215 98zM1206 104q78 0 125 47t47 119q0 75 -47 124q-47 48 -125 48q-74 0 -122 -49t-48 -123q0 -71 47 -118q48 -48 123 -48z" />
    <glyph glyph-name="uni215A" unicode="&#x215a;" horiz-adv-x="1769" 
d="M680 887q0 -131 -90 -212t-227 -81q-131 0 -220 69q-87 68 -102 183h147q30 -129 174 -129q78 0 125 48q48 50 48 122q0 75 -48 126q-47 50 -125 50q-118 0 -161 -96h-148l86 491h504v-129h-385l-37 -203q68 56 176 56q127 0 205 -83t78 -212zM426 0l778 1458h154
l-778 -1458h-154zM1432 569q129 0 213 -85q84 -86 84 -210q0 -130 -90 -212q-87 -80 -228 -80q-121 0 -203 61q-135 100 -135 358q0 223 87 343t257 120q124 0 203 -61q80 -62 98 -168h-149q-27 106 -152 106q-183 0 -200 -270q79 98 215 98zM1411 104q78 0 125 47t47 119
q0 75 -47 124q-46 48 -125 48q-74 0 -122 -49t-48 -123q0 -71 47 -118q48 -48 123 -48z" />
    <glyph glyph-name="oneeighth" unicode="&#x215b;" horiz-adv-x="1609" 
d="M393 1458v-846h-157v605h-205v110q99 0 150 28q52 28 81 103h131zM238 0l778 1458h153l-778 -1458h-153zM1421 449q148 -66 148 -218q0 -112 -88 -181q-87 -68 -242 -68t-242 68q-88 69 -88 181q0 158 148 215q-109 68 -109 187q0 105 78 168t213 63q133 0 211 -63
t78 -168q0 -121 -107 -184zM1350 719q-44 35 -111 35t-111 -35q-43 -34 -43 -94q0 -61 43 -95q42 -36 111 -36t111 36q43 34 43 95q0 60 -43 94zM1106 143q47 -41 133 -41q88 0 135 41q48 40 46 106t-48 105q-45 39 -133 39t-133 -39q-47 -41 -47 -105q0 -65 47 -106z" />
    <glyph glyph-name="threeeighths" unicode="&#x215c;" horiz-adv-x="1810" 
d="M678 856q0 -117 -88 -189q-90 -73 -236 -73q-156 0 -244 77q-89 78 -90 216h150q0 -170 184 -170q79 0 126 38q46 37 46 105q0 137 -180 137h-55v113h59q160 0 160 125q0 55 -41 87t-113 32q-146 0 -157 -129h-150q7 119 89 186q81 66 218 66q139 0 221 -62
q80 -61 80 -166q0 -59 -32 -107q-34 -51 -88 -79q65 -22 103 -77t38 -130zM438 0l779 1458h153l-778 -1458h-154zM1622 449q147 -66 147 -218q0 -112 -88 -181q-87 -68 -241 -68q-155 0 -242 68q-88 69 -88 181q0 158 147 215q-108 67 -108 187q0 105 78 168t213 63
q133 0 211 -63t78 -168q0 -121 -107 -184zM1550 719q-44 35 -110 35q-67 0 -111 -35q-43 -34 -43 -94q0 -61 43 -95q42 -36 111 -36q68 0 110 36q43 34 43 95q0 60 -43 94zM1307 143q47 -41 133 -41q88 0 135 41q48 40 46 106q-1 66 -48 105q-45 39 -133 39t-133 -39
q-47 -41 -47 -105q0 -65 47 -106z" />
    <glyph glyph-name="fiveeighths" unicode="&#x215d;" horiz-adv-x="1814" 
d="M680 887q0 -131 -90 -212t-227 -81q-131 0 -220 69q-87 68 -102 183h147q30 -129 174 -129q78 0 125 48q48 50 48 122q0 75 -48 126q-47 50 -125 50q-118 0 -161 -96h-148l86 491h504v-129h-385l-37 -203q68 56 176 56q127 0 205 -83t78 -212zM442 0l779 1458h153
l-778 -1458h-154zM1626 449q148 -66 148 -218q0 -112 -88 -181q-87 -68 -242 -68t-242 68q-88 69 -88 181q0 158 148 215q-109 68 -109 187q0 105 78 168t213 63q133 0 211 -63t78 -168q0 -121 -107 -184zM1554 719q-44 35 -110 35q-67 0 -111 -35q-43 -34 -43 -94
q0 -61 43 -95q42 -36 111 -36q68 0 110 36q43 34 43 95q0 60 -43 94zM1311 143q47 -41 133 -41q88 0 135 41q48 40 46 106q-1 66 -48 105q-45 39 -133 39t-133 -39q-47 -41 -47 -105q0 -65 47 -106z" />
    <glyph glyph-name="seveneighths" unicode="&#x215e;" horiz-adv-x="1579" 
d="M328 612h-162q2 206 84 396q83 192 221 321h-440v129h592v-131q-156 -144 -224 -309q-70 -169 -71 -406zM207 0l778 1458h154l-779 -1458h-153zM1391 449q147 -66 147 -218q0 -112 -88 -181q-87 -68 -242 -68q-154 0 -241 68q-88 69 -88 181q0 158 147 215
q-108 67 -108 187q0 106 77 168q78 63 213 63q133 0 211 -63t78 -168q0 -121 -106 -184zM1319 719q-44 35 -111 35q-66 0 -110 -35q-43 -34 -43 -94q0 -61 43 -95q42 -36 110 -36q69 0 111 36q43 34 43 95q0 60 -43 94zM1075 143q47 -41 133 -41q88 0 135 41q48 41 47 106
t-49 105q-45 39 -133 39t-133 -39q-47 -41 -47 -105q0 -65 47 -106z" />
    <glyph glyph-name="arrowleft" unicode="&#x2190;" horiz-adv-x="1957" 
d="M498 809h1226v-156h-1228q117 -149 241 -315l258 -338h-211l-551 729l551 729h211l-258 -338q-1 -1 -5 -7t-11.5 -15.5t-15.5 -20.5q-7 -9 -36.5 -46t-50.5 -65q-22 -29 -65 -85t-55 -72z" />
    <glyph glyph-name="arrowup" unicode="&#x2191;" horiz-adv-x="1957" 
d="M250 940l729 551l729 -551v-207l-338 256q-83 64 -185.5 143t-123.5 95v-1227h-168v1223l-305 -234l-338 -256v207z" />
    <glyph glyph-name="arrowright" unicode="&#x2192;" horiz-adv-x="1957" 
d="M963 1458h211l550 -729l-550 -729h-211l258 338q124 166 241 315h-1229v156h1227q-20 26 -60.5 78.5t-60.5 78.5q-21 28 -50 65t-36 46q-8 11 -15.5 20.5t-11.5 15.5t-5 7z" />
    <glyph glyph-name="arrowdown" unicode="&#x2193;" horiz-adv-x="1957" 
d="M1370 469l338 256v-207l-729 -551l-729 551v207l338 -256l305 -233v1222h168v-1227q21 16 123.5 95t185.5 143z" />
    <glyph glyph-name="arrowboth" unicode="&#x2194;" horiz-adv-x="1957" 
d="M1194 1458h213l551 -729l-551 -729h-213l258 338q106 142 242 315h-1430q136 -173 242 -315l258 -338h-213l-551 729l551 729h213l-258 -338q-1 -1 -5 -6.5t-12 -15.5t-16 -21q-7 -9 -36 -46t-50 -65q-20 -26 -60.5 -78.5t-60.5 -78.5h1426q-20 26 -60.5 78.5t-60.5 78.5
q-21 28 -50 65t-36 46q-8 11 -16 21t-12 15.5t-5 6.5z" />
    <glyph glyph-name="arrowupdn" unicode="&#x2195;" horiz-adv-x="1957" 
d="M1061 1518v-1577q90 69 309 237l338 256v-207l-729 -551l-729 551v207l338 -256l305 -233v1568l-305 -233l-338 -256v207l729 551l729 -551v-207l-338 256q-83 64 -185.5 143t-123.5 95z" />
    <glyph glyph-name="uni2196" unicode="&#x2196;" horiz-adv-x="1957" 
d="M1640 1200h-614q-302 0 -430 2l1044 -1009l-116 -127l-1041 1009q2 -128 2 -428v-577l-168 155v1131h1176z" />
    <glyph glyph-name="uni2197" unicode="&#x2197;" horiz-adv-x="1957" 
d="M317 1200l148 156h1175v-1131l-167 -155v577q0 300 2 428l-1041 -1009l-117 127l1045 1009q-128 -2 -430 -2h-615z" />
    <glyph glyph-name="uni2198" unicode="&#x2198;" horiz-adv-x="1957" 
d="M1473 803v577l167 -155v-1131h-1175l-148 156h615q302 0 430 -2l-1045 1009l117 127l1041 -1009q-2 128 -2 428z" />
    <glyph glyph-name="uni2199" unicode="&#x2199;" horiz-adv-x="1957" 
d="M1640 1231l-1044 -1010q128 2 430 2h614l-147 -155h-1176v1130l168 156v-578q0 -300 -2 -428l1041 1010z" />
    <glyph glyph-name="partialdiff" unicode="&#x2202;" horiz-adv-x="1288" 
d="M766 1491q200 0 310 -122t110 -341q0 -312 -101 -577q-103 -270 -286 -394q-137 -90 -297 -90q-184 0 -297 107t-113 282q0 246 170 422q168 172 397 172q117 0 205 -55t123 -147q25 128 25 272q0 158 -64 237q-63 78 -198 78q-94 0 -179 -63t-135 -174h-174
q66 181 202 288q133 105 302 105zM506 123q155 0 266 133t111 295q0 111 -62 178q-61 66 -168 66q-150 0 -264 -129q-115 -132 -115 -299q0 -112 63 -178t169 -66z" />
    <glyph glyph-name="uni2206" unicode="&#x2206;" horiz-adv-x="1341" 
d="M571 1458h193l526 -1302v-156h-1239v156zM666 1272q-153 -409 -260 -676l-175 -440h879l-178 442q-58 141 -266 674z" />
    <glyph glyph-name="product" unicode="&#x220f;" horiz-adv-x="1423" 
d="M133 -401v1859h1157v-1859h-172v1704h-813v-1704h-172z" />
    <glyph glyph-name="summation" unicode="&#x2211;" horiz-adv-x="1177" 
d="M682 -246h444v-155h-1075v155l608 774l-608 775v155h1055v-155h-424q-254 0 -418 4l256 -326l322 -412v-82l-322 -411q-56 -74 -256 -326q164 4 418 4z" />
    <glyph glyph-name="minus" unicode="&#x2212;" horiz-adv-x="1083" 
d="M1001 655h-919v148h919v-148z" />
    <glyph glyph-name="uni2215" unicode="&#x2215;" horiz-adv-x="1083" 
d="M258 0h-176l743 1458h176z" />
    <glyph glyph-name="uni2219" unicode="&#x2219;" horiz-adv-x="1079" 
d="M664 606h-248v246h248v-246z" />
    <glyph glyph-name="radical" unicode="&#x221a;" horiz-adv-x="1452" 
d="M811 219l436 1239h174l-665 -1859h-189l-311 856h-225v151h344l137 -389q114 -318 150 -430q12 36 24 71q4 13 22 65.5t32 91.5q6 16 71 204z" />
    <glyph glyph-name="infinity" unicode="&#x221e;" horiz-adv-x="1626" 
d="M1184 1122q166 0 263 -107t97 -286t-97 -286t-263 -107q-210 0 -371 239q-161 -239 -371 -239q-166 0 -263 107t-97 286t97 286t263 107q209 0 371 -241q162 241 371 241zM442 477q151 0 295 252q-144 252 -295 252q-83 0 -141 -70q-57 -69 -57 -182t57 -182
q58 -70 141 -70zM1184 477q83 0 141 70q57 69 57 182t-57 182q-58 70 -141 70q-151 0 -295 -252q144 -252 295 -252z" />
    <glyph glyph-name="integral" unicode="&#x222b;" horiz-adv-x="798" 
d="M186 -408q-43 0 -104 7v143q49 -6 94 -6q141 0 141 149v1282q0 297 295 297q52 0 105 -6v-143q-49 6 -94 6q-142 0 -142 -150v-1282q0 -297 -295 -297z" />
    <glyph glyph-name="approxequal" unicode="&#x2248;" horiz-adv-x="1083" 
d="M225 764h-143q10 116 82 188t180 72q86 0 227 -57q114 -45 168 -45q101 0 119 112h143q-11 -118 -81 -188q-72 -72 -181 -72q-79 0 -219 55q-122 48 -176 48q-101 0 -119 -113zM225 395h-143q11 118 82 189t180 71q86 0 227 -57q114 -45 168 -45q101 0 119 113h143
q-11 -119 -81 -189q-71 -71 -181 -71q-79 0 -219 55q-120 47 -176 47q-101 0 -119 -113z" />
    <glyph glyph-name="notequal" unicode="&#x2260;" horiz-adv-x="1083" 
d="M1001 979v-137h-342l-84 -226h426v-137h-477l-82 -221l-139 45l66 176h-287v137h338l84 226h-422v137h473l84 225l137 -47l-65 -178h290z" />
    <glyph glyph-name="lessequal" unicode="&#x2264;" horiz-adv-x="1083" 
d="M1001 1210v-176l-299 -119q-232 -93 -438 -163q187 -68 438 -166l299 -119v-176l-919 375v170zM1001 0h-919v147h919v-147z" />
    <glyph glyph-name="greaterequal" unicode="&#x2265;" horiz-adv-x="1083" 
d="M82 1034v176l919 -374v-170l-919 -375v176l299 119q251 98 438 166q-206 70 -438 163zM1001 0h-919v147h919v-147z" />
    <glyph glyph-name="uni2460" unicode="&#x2460;" horiz-adv-x="1957" 
d="M285 1403q284 274 694 274t696 -274q283 -277 283 -674t-283 -672q-287 -276 -696 -276q-412 0 -694 276q-285 273 -285 672q0 398 285 674zM399 164q238 -232 580 -232t580 232q235 229 235 565q0 338 -235 567q-236 230 -580 230t-580 -230q-235 -229 -235 -567
q0 -336 235 -565zM956 1196h144v-932h-166v701q-70 -35 -232 -35v121q116 6 169 34q55 29 85 111z" />
    <glyph glyph-name="uni2461" unicode="&#x2461;" horiz-adv-x="1957" 
d="M285 1403q284 274 694 274t696 -274q283 -277 283 -674t-283 -672q-287 -276 -696 -276q-412 0 -694 276q-285 273 -285 672q0 398 285 674zM399 164q238 -232 580 -232t580 232q235 229 235 565q0 338 -235 567q-236 230 -580 230t-580 -230q-235 -229 -235 -567
q0 -336 235 -565zM1051 664l-78 -33q-83 -38 -121 -77q-38 -40 -49 -103h514v-144h-694l2 64q6 148 72 242q67 95 223 157l63 25q160 66 160 180q0 141 -174 141q-85 0 -128 -46q-44 -47 -44 -122h-162q1 140 88 227q85 85 252 85q156 0 244 -79t88 -202q0 -204 -256 -315z
" />
    <glyph glyph-name="uni2462" unicode="&#x2462;" horiz-adv-x="1957" 
d="M285 1403q284 274 694 274t696 -274q283 -277 283 -674t-283 -672q-287 -276 -696 -276q-412 0 -694 276q-285 273 -285 672q0 398 285 674zM399 164q238 -232 580 -232t580 232q235 229 235 565q0 338 -235 567q-236 230 -580 230t-580 -230q-235 -229 -235 -567
q0 -336 235 -565zM1182 762q73 -24 114 -85t41 -145q0 -128 -96 -207q-95 -79 -260 -79q-175 0 -269 84q-97 86 -98 237h164q0 -186 203 -186q88 0 139 42t51 116q0 149 -198 149h-62v125h66q176 0 176 137q0 60 -46 96q-45 35 -124 35q-165 0 -172 -143h-166q7 135 96 207
t242 72q152 0 242 -69t90 -181q0 -65 -36 -121t-97 -84z" />
    <glyph glyph-name="uni2463" unicode="&#x2463;" horiz-adv-x="1957" 
d="M285 1403q284 274 694 274t696 -274q283 -277 283 -674t-283 -672q-287 -276 -696 -276q-412 0 -694 276q-285 273 -285 672q0 398 285 674zM399 164q238 -232 580 -232t580 232q235 229 235 565q0 338 -235 567q-236 230 -580 230t-580 -230q-235 -229 -235 -567
q0 -336 235 -565zM1008 1217h174v-564h135v-143h-135v-225h-172v225h-467v166zM1018 653v373l-326 -373h326z" />
    <glyph glyph-name="uni2464" unicode="&#x2464;" horiz-adv-x="1957" 
d="M285 1403q284 274 694 274t696 -274q283 -277 283 -674t-283 -672q-287 -276 -696 -276q-412 0 -694 276q-285 273 -285 672q0 398 285 674zM399 164q238 -232 580 -232t580 232q235 229 235 565q0 338 -235 567q-236 230 -580 230t-580 -230q-235 -229 -235 -567
q0 -336 235 -565zM1016 891q140 0 226 -90q85 -89 85 -234t-98 -233t-250 -88q-143 0 -241 75q-97 74 -113 201h161q15 -65 65 -103t128 -38q86 0 137 52t51 134q0 86 -52 139q-53 54 -136 54q-133 0 -180 -105h-162l96 541h553v-143h-422l-41 -224q70 62 193 62z" />
    <glyph glyph-name="uni2465" unicode="&#x2465;" horiz-adv-x="1957" 
d="M285 1403q284 274 694 274t696 -274q283 -277 283 -674t-283 -672q-287 -276 -696 -276q-412 0 -694 276q-285 273 -285 672q0 398 285 674zM399 164q238 -232 580 -232t580 232q235 229 235 565q0 338 -235 567q-236 230 -580 230t-580 -230q-235 -229 -235 -567
q0 -336 235 -565zM1001 891q146 0 238 -92q90 -96 90 -232q0 -145 -98 -233t-252 -88q-132 0 -223 67q-148 112 -148 394q0 247 95 378q96 132 282 132q134 0 223 -68q88 -67 109 -186h-164q-33 118 -168 118q-105 0 -158 -72q-52 -72 -63 -227q91 109 237 109zM844 432
q51 -51 135 -51q86 0 137 51t51 131q0 83 -52 135q-54 54 -136 54q-59 4 -107 -31q-46 -34 -66 -86q-19 -49 -11 -109q7 -55 49 -94z" />
    <glyph glyph-name="uni2466" unicode="&#x2466;" horiz-adv-x="1957" 
d="M285 1403q284 274 694 274t696 -274q283 -277 283 -674t-283 -672q-287 -276 -696 -276q-412 0 -694 276q-285 273 -285 672q0 398 285 674zM399 164q238 -232 580 -232t580 232q235 229 235 565q0 338 -235 567q-236 230 -580 230t-580 -230q-235 -229 -235 -567
q0 -336 235 -565zM1147 1028h-481v143h649v-145q-169 -157 -245 -340q-78 -187 -79 -446h-178q1 224 92 438q87 203 242 350z" />
    <glyph glyph-name="uni2467" unicode="&#x2467;" horiz-adv-x="1957" 
d="M285 1403q284 274 694 274t696 -274q283 -277 283 -674t-283 -672q-287 -276 -696 -276q-412 0 -694 276q-285 273 -285 672q0 398 285 674zM399 164q238 -232 580 -232t580 232q235 229 235 565q0 338 -235 567q-236 230 -580 230t-580 -230q-235 -229 -235 -567
q0 -336 235 -565zM1180 758q161 -69 161 -238q0 -122 -96 -198q-95 -76 -266 -76q-168 0 -265 76q-98 77 -98 198q0 169 162 238q-119 69 -119 203q0 114 86 185t234 71q146 0 232 -71q85 -70 85 -185q0 -135 -116 -203zM1102 1055q-73 61 -188 26q-114 -34 -103 -129
q0 -65 47 -104q46 -39 121 -39q77 0 123 39q47 39 47 104q0 62 -47 103zM831 422q51 -45 148 -45q96 0 147 45q52 44 52 117q0 72 -53 116q-52 43 -146 43t-146 -43q-53 -44 -53 -116q0 -73 51 -117z" />
    <glyph glyph-name="uni2468" unicode="&#x2468;" horiz-adv-x="1957" 
d="M285 1403q284 274 694 274t696 -274q283 -277 283 -674t-283 -672q-287 -276 -696 -276q-412 0 -694 276q-285 273 -285 672q0 398 285 674zM399 164q238 -232 580 -232t580 232q235 229 235 565q0 338 -235 567q-236 230 -580 230t-580 -230q-235 -229 -235 -567
q0 -336 235 -565zM1204 1149q150 -113 150 -395q0 -244 -93 -376t-274 -132q-141 0 -231 66t-111 186h162q33 -117 180 -117q191 0 209 297q-86 -109 -235 -109q-147 0 -236 95q-92 92 -92 229q0 146 98 234q101 90 252 90q130 0 221 -68zM983 709q84 0 135 54t51 136
q0 80 -51 131t-135 51q-85 0 -138 -51q-52 -51 -52 -131q0 -81 53 -136q52 -54 137 -54z" />
    <glyph glyph-name="uni24EA" unicode="&#x24ea;" horiz-adv-x="1957" 
d="M1675 57q-287 -276 -696 -276q-412 0 -694 276q-285 273 -285 672q0 398 285 674q284 274 694 274t696 -274q283 -277 283 -674t-283 -672zM399 164q238 -232 580 -232t580 232q235 229 235 565q0 338 -235 567q-236 230 -580 230t-580 -230q-235 -229 -235 -567
q0 -336 235 -565zM1262 375q-94 -129 -283 -129t-283 129q-96 131 -96 354q0 230 97 358q98 130 282 130t282 -130q97 -128 97 -358q0 -223 -96 -354zM774 729q0 -342 205 -342t205 342q0 344 -205 344t-205 -344z" />
    <glyph glyph-name="uni24FF" unicode="&#x24ff;" horiz-adv-x="1957" 
d="M1475 -94q-224 -125 -496 -125t-496 125q-223 124 -354 346q-129 219 -129 477q0 261 129 479q128 216 354 344q224 125 496 125t496 -125q226 -128 354 -344q129 -217 129 -479q0 -258 -129 -477q-131 -222 -354 -346zM702 373q99 -125 277 -125q177 0 276 125
q99 127 99 356t-97 358q-99 125 -278 125q-182 0 -277 -125q-98 -123 -98 -358q0 -230 98 -356zM1188 729q0 -346 -209 -346t-209 346q0 348 209 348t209 -348z" />
    <glyph glyph-name="filledbox" unicode="&#x25a0;" horiz-adv-x="1957" 
d="M1909 -180h-1860v1818h1860v-1818z" />
    <glyph glyph-name="uni25A1" unicode="&#x25a1;" horiz-adv-x="1957" 
d="M1909 -180h-1860v1818h1860v-1818zM213 1491v-1524h1532v1524h-1532z" />
    <glyph glyph-name="lozenge" unicode="&#x25ca;" horiz-adv-x="1163" 
d="M496 1458h172l444 -729l-444 -729h-172l-445 729zM244 729l338 -565l338 565l-338 565z" />
    <glyph glyph-name="circle" unicode="&#x25cb;" horiz-adv-x="1957" 
d="M1675 57q-287 -276 -696 -276q-412 0 -694 276q-285 273 -285 672q0 398 285 674q284 274 694 274t696 -274q283 -277 283 -674t-283 -672zM399 164q238 -232 580 -232t580 232q235 229 235 565q0 338 -235 567q-236 230 -580 230t-580 -230q-235 -229 -235 -567
q0 -336 235 -565z" />
    <glyph glyph-name="uni25CF" unicode="&#x25cf;" horiz-adv-x="1957" 
d="M1475 -94q-224 -125 -496 -125t-496 125q-223 124 -354 346q-129 219 -129 477q0 261 129 479q128 216 354 344q224 125 496 125t496 -125q226 -128 354 -344q129 -217 129 -479q0 -258 -129 -477q-131 -222 -354 -346z" />
    <glyph glyph-name="uni2776" unicode="&#x2776;" horiz-adv-x="1957" 
d="M1475 -94q-224 -125 -496 -125t-496 125q-223 124 -354 346q-129 219 -129 477q0 261 129 479q128 216 354 344q224 125 496 125t496 -125q226 -128 354 -344q129 -217 129 -479q0 -258 -129 -477q-131 -222 -354 -346zM924 930v-666h174v932h-146q-30 -85 -87 -115
t-167 -30v-121h226z" />
    <glyph glyph-name="uni2777" unicode="&#x2777;" horiz-adv-x="1957" 
d="M1475 -94q-224 -125 -496 -125t-496 125q-223 124 -354 346q-129 219 -129 477q0 261 129 479q128 216 354 344q224 125 496 125t496 -125q226 -128 354 -344q129 -217 129 -479q0 -258 -129 -477q-131 -222 -354 -346zM637 350l-2 -59h686v135h-512q12 122 170 188
l78 33q131 56 192 130q62 76 62 181q0 121 -86 199q-85 78 -242 78q-164 0 -249 -82t-89 -221h156q2 81 48 124q47 44 128 44q178 0 178 -146q0 -121 -162 -184l-63 -25q-154 -62 -220 -156q-67 -96 -73 -239z" />
    <glyph glyph-name="uni2778" unicode="&#x2778;" horiz-adv-x="1957" 
d="M1475 -94q-224 -125 -496 -125t-496 125q-223 124 -354 346q-129 219 -129 477q0 261 129 479q128 216 354 344q224 125 496 125t496 -125q226 -128 354 -344q129 -217 129 -479q0 -258 -129 -477q-131 -222 -354 -346zM981 248q160 0 256 78t96 206q0 84 -44 146
q-43 62 -120 84q66 28 102 82q38 56 38 123q0 113 -87 179t-239 66q-151 0 -237 -70q-87 -71 -95 -200h154q15 143 178 143q82 0 127 -36q47 -38 47 -99q0 -141 -180 -141h-62v-117h58q203 0 203 -155q0 -73 -54 -118q-53 -44 -141 -44q-203 0 -207 188h-156q1 -150 97 -233
q94 -82 266 -82z" />
    <glyph glyph-name="uni2779" unicode="&#x2779;" horiz-adv-x="1957" 
d="M1475 -94q-224 -125 -496 -125t-496 125q-223 124 -354 346q-129 219 -129 477q0 261 129 479q128 216 354 344q224 125 496 125t496 -125q226 -128 354 -344q129 -217 129 -479q0 -258 -129 -477q-131 -222 -354 -346zM1014 514v-225h164v225h135v135h-135v563h-168
l-463 -538v-160h467zM1022 649h-336l336 387v-387z" />
    <glyph glyph-name="uni277A" unicode="&#x277a;" horiz-adv-x="1957" 
d="M1475 -94q-224 -125 -496 -125t-496 125q-223 124 -354 346q-129 219 -129 477q0 261 129 479q128 216 354 344q224 125 496 125t496 -125q226 -128 354 -344q129 -217 129 -479q0 -258 -129 -477q-131 -222 -354 -346zM981 248q151 0 246 88q98 85 98 231q0 143 -84 231
q-84 89 -221 89q-131 0 -201 -68l43 238h424v135h-547l-96 -533h158q51 105 180 105q87 0 139 -55q54 -57 54 -142q0 -82 -54 -138q-52 -54 -139 -54q-158 0 -195 143h-155q18 -122 113 -196t237 -74z" />
    <glyph glyph-name="uni277B" unicode="&#x277b;" horiz-adv-x="1957" 
d="M1475 -94q-224 -125 -496 -125t-496 125q-223 124 -354 346q-129 219 -129 477q0 261 129 479q128 216 354 344q224 125 496 125t496 -125q226 -128 354 -344q129 -217 129 -479q0 -258 -129 -477q-131 -222 -354 -346zM979 248q155 0 250 88q96 88 96 231q0 140 -90 230
q-95 90 -234 90q-147 0 -239 -109v13q18 294 225 294q137 0 170 -118h156q-21 114 -108 180q-86 65 -218 65q-185 0 -279 -129q-96 -131 -96 -376q0 -281 146 -392q89 -67 221 -67zM979 375q-85 0 -137 52q-54 54 -54 136q0 83 55 138t136 55q82 0 139 -55q56 -54 56 -138
q0 -82 -55 -135t-140 -53z" />
    <glyph glyph-name="uni277C" unicode="&#x277c;" horiz-adv-x="1957" 
d="M1475 -94q-224 -125 -496 -125t-496 125q-223 124 -354 346q-129 219 -129 477q0 261 129 479q128 216 354 344q224 125 496 125t496 -125q226 -128 354 -344q129 -217 129 -479q0 -258 -129 -477q-131 -222 -354 -346zM817 244h170q1 257 79 444q76 183 245 340v139
h-641v-135h489q-155 -139 -246 -348q-94 -214 -96 -440z" />
    <glyph glyph-name="uni277D" unicode="&#x277d;" horiz-adv-x="1957" 
d="M1475 -94q-224 -125 -496 -125t-496 125q-223 124 -354 346q-129 219 -129 477q0 261 129 479q128 216 354 344q224 125 496 125t496 -125q226 -128 354 -344q129 -217 129 -479q0 -258 -129 -477q-131 -222 -354 -346zM719 324q94 -76 260 -76q167 0 262 76
q96 74 96 196q0 169 -166 238q121 72 121 203q0 114 -85 183q-84 68 -228 68q-145 0 -229 -68q-86 -69 -86 -183q0 -66 33 -118q36 -56 91 -85q-167 -67 -167 -238q0 -123 98 -196zM1106 846q-52 -41 -127 -41q-78 0 -125 41t-47 106q0 66 47 105q45 39 125 39q81 0 127 -39
q47 -41 47 -105q0 -65 -47 -106zM1128 416q-55 -43 -149 -43q-96 0 -148 43q-55 43 -55 121q0 77 55 122q52 43 148 43q94 0 149 -43q54 -48 54 -122q0 -76 -54 -121z" />
    <glyph glyph-name="uni277E" unicode="&#x277e;" horiz-adv-x="1957" 
d="M1475 -94q-224 -125 -496 -125t-496 125q-223 124 -354 346q-129 219 -129 477q0 261 129 479q128 216 354 344q224 125 496 125t496 -125q226 -128 354 -344q129 -217 129 -479q0 -258 -129 -477q-131 -222 -354 -346zM975 248q185 0 279 129q96 131 96 377
q0 278 -148 391q-85 67 -219 67q-155 0 -250 -88q-96 -88 -96 -231q0 -139 92 -229q91 -91 232 -91q149 0 229 99l10 12v-8q-11 -154 -64 -227q-54 -74 -161 -74q-137 0 -170 119h-156q21 -115 108 -181q86 -65 218 -65zM983 705q-86 0 -140 55q-55 57 -55 139q0 81 55 134
q53 52 140 52q85 0 137 -52q54 -54 54 -134q0 -82 -55 -139q-54 -55 -136 -55z" />
    <glyph glyph-name="uni2E18" unicode="&#x2e18;" horiz-adv-x="1038" 
d="M424 1200h207v-205h-207v205zM819 190h168q-1 -234 -127 -358q-124 -123 -348 -123q-210 0 -331 101q-120 100 -120 286q0 104 52 188t163 179q120 102 154 174q23 50 27 182h137l12 -635v-155h-178v155l10 213l-22 -22q-10 -10 -17 -15q-87 -79 -118 -129l-15 -24
q-30 -53 -30 -109q0 -233 270 -233q150 0 226 75q77 75 87 250z" />
    <glyph glyph-name="uniF8FF" unicode="&#xf8ff;" horiz-adv-x="1507" 
d="M485 1255v-266h-71v647h71v-243q52 77 144 77q80 0 123 -43t43 -120v-318h-72v311q0 105 -109 105q-54 0 -91 -40q-38 -41 -38 -110zM1303 989v647h71v-647h-71zM1053 979q-98 0 -158 68q-59 66 -59 178t59 178q60 67 156 67q99 0 158 -69q59 -70 59 -176v-27h-359
q12 -154 146 -154q98 0 125 89h75q-41 -154 -202 -154zM1051 1403q-122 0 -140 -139h279q-6 64 -43 101q-38 38 -96 38zM1157 981q100 0 159 -70q58 -68 58 -176v-26h-358q12 -154 145 -154q98 0 125 88h76q-41 -154 -203 -154q-98 0 -158 68q-59 66 -59 178t59 178
q60 68 156 68zM969 969l-187 -469h-75l-185 469h80l78 -209q20 -50 65 -185q15 43 68 187l76 207h80zM1157 913q-121 0 -139 -139h278q-6 65 -43 102t-96 37zM494 541h-78v90h78v-90zM209 600h74v-133h96v-64h-96v-305q0 -39 53 -39h43v-61q-20 -2 -51 -2q-119 0 -119 96
v311h-76v64h76v133zM1356 344v-221q0 -83 12 -123h-74q-8 56 -8 61q-49 -71 -151 -71q-79 0 -122 36q-44 36 -44 101q0 130 174 145l67 7q74 6 74 65q0 74 -104 74q-62 0 -89 -21q-28 -21 -32 -71h-72q7 155 193 155q176 0 176 -137zM748 53q45 0 81 28q34 27 45 79h76
q-12 -80 -67 -126t-135 -46q-98 0 -158 66t-60 179q0 114 60 180t158 66q83 0 136 -46q54 -46 64 -124h-76q-8 50 -42 77q-36 28 -82 28q-64 0 -103 -47t-39 -134t39 -133q39 -47 103 -47zM492 0h-72v469h72v-469zM1139 51q59 0 102 36t43 99v54q-22 -14 -61 -19l-68 -8
q-111 -12 -111 -84q0 -78 95 -78z" />
    <glyph glyph-name="uniFEFF" unicode="&#xfeff;" 
 />
    <glyph glyph-name="null" 
 />
    <glyph glyph-name="Adieresis.ss01" horiz-adv-x="1425" 
d="M604 1569q-33 -33 -78 -33q-44 0 -77 33t-33 78q0 44 33 77t77 33q45 0 78 -33t33 -77q0 -45 -33 -78zM965 1569q-33 -33 -78 -33t-78 33t-33 78q0 44 33 77t78 33t78 -33q32 -32 32 -77q0 -46 -32 -78zM1395 0h-183l-170 424h-663l-168 -424h-180l581 1458h193zM446 596
l-6 -16h541l-8 18q-58 141 -266 674q-128 -341 -261 -676z" />
    <glyph glyph-name="Cdotaccent.ss01" horiz-adv-x="1435" 
d="M823 1602q-33 -33 -78 -33q-44 0 -77 33t-33 77q0 45 33 78t77 33q45 0 78 -33t33 -78q0 -44 -33 -77zM745 -33q-296 0 -485 207q-188 206 -188 555t188 555q189 207 485 207q235 0 402 -128q166 -127 219 -374h-174q-92 344 -447 344q-223 0 -358 -159
q-135 -162 -135 -445t135 -442q135 -162 358 -162q170 0 299 104q130 101 158 301h172q-28 -271 -207 -415q-181 -148 -422 -148z" />
    <glyph glyph-name="Edieresis.ss01" horiz-adv-x="1198" 
d="M539 1569q-33 -33 -78 -33t-78 33t-33 78q0 44 33 77t78 33t78 -33q32 -32 32 -77q0 -46 -32 -78zM899 1569q-33 -33 -78 -33t-78 33q-32 32 -32 78q0 45 32 77q33 33 78 33t78 -33t33 -77q0 -45 -33 -78zM1147 1458v-155h-842v-465h760v-156h-760v-526h834v-156h-1006
v1458h1014z" />
    <glyph glyph-name="Edotaccent.ss01" horiz-adv-x="1198" 
d="M719 1569q-33 -33 -78 -33t-78 33t-33 78q0 44 33 77t78 33t78 -33t33 -77q0 -45 -33 -78zM1147 1458v-155h-842v-465h760v-156h-760v-526h834v-156h-1006v1458h1014z" />
    <glyph glyph-name="uni0122.ss01" horiz-adv-x="1529" 
d="M797 594v156h620v-750h-141l-37 197q-162 -230 -477 -230q-314 0 -500 211q-190 208 -190 551q0 341 188 553q186 209 504 209q261 0 430 -139t207 -371h-178q-27 162 -156 258q-124 94 -303 94q-233 0 -373 -164q-139 -163 -139 -440t139 -440q140 -164 373 -164
q207 0 352 133q146 134 146 336h-465zM778 -106q60 0 90 -41q31 -42 31 -113v-6q0 -218 -184 -230l-29 -2v92l23 3q78 6 84 92h-11q-52 0 -82 27t-30 77q0 46 30 73q31 28 78 28z" />
    <glyph glyph-name="Gdotaccent.ss01" horiz-adv-x="1529" 
d="M842 1602q-33 -33 -78 -33t-78 33t-33 77q0 45 33 78t78 33t78 -33q32 -32 32 -78q0 -45 -32 -77zM797 594v156h620v-750h-141l-37 197q-162 -230 -477 -230q-314 0 -500 211q-190 208 -190 551q0 341 188 553q186 209 504 209q261 0 430 -139t207 -371h-178
q-27 162 -156 258q-124 94 -303 94q-233 0 -373 -164q-139 -163 -139 -440t139 -440q140 -164 373 -164q207 0 352 133q146 134 146 336h-465z" />
    <glyph glyph-name="Idieresis.ss01" horiz-adv-x="438" 
d="M137 1569q-33 -33 -78 -33q-44 0 -77 33t-33 78q0 44 33 77t77 33q45 0 78 -33t33 -77q0 -45 -33 -78zM457 1569q-33 -33 -78 -33t-78 33t-33 78q0 44 33 77t78 33t78 -33q32 -32 32 -77q0 -46 -32 -78zM305 0h-172v1458h172v-1458z" />
    <glyph glyph-name="Idotaccent.ss01" horiz-adv-x="438" 
d="M297 1569q-33 -33 -78 -33t-78 33q-32 32 -32 78q0 45 32 77q33 33 78 33t78 -33t33 -77q0 -45 -33 -78zM305 0h-172v1458h172v-1458z" />
    <glyph glyph-name="uni0136.ss01" horiz-adv-x="1359" 
d="M1102 1458h227l-622 -594l622 -864h-211l-536 750l-277 -265v-485h-172v1458h172v-766zM692 -78q60 0 90 -41q31 -42 31 -112v-7q0 -217 -184 -229l-29 -2v92l23 2q78 6 84 92h-11q-51 0 -82 28q-30 27 -30 77q0 46 30 73t78 27z" />
    <glyph glyph-name="uni013B.ss01" horiz-adv-x="1079" 
d="M305 1458v-1302h733v-156h-905v1458h172zM582 -78q60 0 90 -41t30 -112v-7q0 -217 -184 -229l-29 -2v92l23 2q78 6 84 92h-10q-51 0 -82 28t-31 77q0 45 31 73q30 27 78 27z" />
    <glyph glyph-name="Ldot.ss01" horiz-adv-x="1079" 
d="M305 1458v-1302h733v-156h-905v1458h172zM764 637q-54 0 -88 34q-35 35 -35 87q0 49 35 82q33 32 88 32q50 0 83 -32q34 -33 34 -82q0 -52 -34 -86q-35 -35 -83 -35z" />
    <glyph glyph-name="uni0145.ss01" horiz-adv-x="1425" 
d="M1122 967v491h170v-1458h-209l-483 752q-213 338 -303 493q6 -287 6 -753v-492h-170v1458h209l483 -751q204 -325 303 -494q-6 286 -6 754zM709 -78q60 0 90 -41t30 -112v-7q0 -217 -184 -229l-29 -2v92l23 2q78 6 84 92h-10q-51 0 -82 28t-31 77q0 45 31 73q30 27 78 27
z" />
    <glyph glyph-name="Odieresis.ss01" horiz-adv-x="1540" 
d="M668 1602q-33 -33 -78 -33t-78 33t-33 77q0 45 33 78t78 33t78 -33q32 -32 32 -78q0 -45 -32 -77zM1028 1602q-33 -33 -78 -33t-78 33q-32 32 -32 77q0 46 32 78q33 33 78 33t78 -33t33 -78q0 -44 -33 -77zM1278 178q-192 -211 -508 -211t-506 211q-192 207 -192 551
q0 341 192 553q191 209 506 209q316 0 508 -209q190 -212 190 -553q0 -343 -190 -551zM393 289q141 -164 377 -164t377 164q141 162 141 440t-141 440q-141 164 -377 164t-377 -164q-141 -162 -141 -440t141 -440z" />
    <glyph glyph-name="uni0156.ss01" horiz-adv-x="1323" 
d="M1204 422l15 -236q11 -125 53 -186h-178q-46 67 -47 195l-7 155q-6 148 -65 210q-60 63 -195 63h-475v-623h-172v1458h617q227 0 359 -104q134 -105 134 -293q0 -133 -64 -224q-64 -90 -175 -128q183 -57 200 -287zM305 778h465q136 0 216 71q79 70 79 202q0 125 -83 188
q-84 64 -232 64h-445v-525zM698 -78q60 0 90 -41q31 -42 31 -112v-7q0 -217 -184 -229l-29 -2v92l23 2q78 6 84 92h-11q-50 0 -81 28t-31 77q0 45 31 73q30 27 77 27z" />
    <glyph glyph-name="uni0218.ss01" horiz-adv-x="1265" 
d="M631 840l129 -29q239 -52 348 -153q106 -99 106 -263q0 -199 -145 -313q-147 -115 -401 -115q-286 0 -445 129q-161 130 -162 385h179q6 -358 428 -358q177 0 273 70q95 69 95 202q0 105 -79 163q-78 57 -275 101l-129 29q-220 51 -332 149q-110 97 -110 273
q0 174 135 278q134 103 362 103q156 0 268 -37q115 -38 177 -103t93 -145q31 -79 32 -172h-177q-12 157 -101 229q-88 72 -292 72q-155 0 -236 -59q-83 -60 -83 -166q0 -107 71 -166q67 -58 271 -104zM666 -111q60 0 90 -41t30 -112v-6q0 -218 -184 -230l-29 -2v92l23 2
q78 6 84 93h-10q-52 0 -82 27q-31 28 -31 77q0 45 31 73q30 27 78 27z" />
    <glyph glyph-name="uni021A.ss01" horiz-adv-x="1251" 
d="M41 1303v155h1169v-155h-495v-1303h-178v1303h-496zM623 -78q60 0 90 -41t30 -112v-7q0 -217 -184 -229l-29 -2v92l23 2q78 6 84 92h-10q-51 0 -82 28t-31 77q0 45 31 73q30 27 78 27z" />
    <glyph glyph-name="Udieresis.ss01" horiz-adv-x="1372" 
d="M584 1569q-33 -33 -78 -33t-78 33t-33 78q0 44 33 77t78 33t78 -33q32 -32 32 -77q0 -46 -32 -78zM944 1569q-33 -33 -78 -33t-78 33q-32 32 -32 78q0 45 32 77q33 33 78 33t78 -33t33 -77q0 -45 -33 -78zM1110 119q-150 -150 -424 -150t-424 150q-149 149 -149 422v917
h172v-917q0 -416 401 -416t401 416v917h173v-917q0 -272 -150 -422z" />
    <glyph glyph-name="Wdieresis.ss01" horiz-adv-x="1957" 
d="M877 1569q-33 -33 -78 -33t-78 33t-33 78q0 44 33 77t78 33t78 -33q32 -32 32 -77q0 -46 -32 -78zM1237 1569q-33 -33 -78 -33t-78 33q-32 32 -32 78q0 45 32 77q33 33 78 33t78 -33t33 -77q0 -45 -33 -78zM1550 739l199 719h178l-414 -1458h-192l-209 743
q-82 293 -133 494q-51 -201 -133 -494l-209 -743h-193l-413 1458h178l199 -719q91 -322 137 -522q89 340 139 526l199 715h192l199 -715q83 -302 139 -526q46 200 137 522z" />
    <glyph glyph-name="Ydieresis.ss01" horiz-adv-x="1347" 
d="M571 1569q-33 -33 -77 -33q-45 0 -78 33t-33 78q0 44 33 77t78 33q44 0 77 -33t33 -77q0 -45 -33 -78zM932 1569q-33 -33 -78 -33t-78 33t-33 78q0 44 33 77t78 33t78 -33t33 -77q0 -45 -33 -78zM909 1118l213 340h195l-557 -872v-586h-172v586l-557 872h196l215 -342
q135 -211 234 -377q132 223 233 379z" />
    <glyph glyph-name="Zdotaccent.ss01" horiz-adv-x="1228" 
d="M702 1569q-33 -33 -77 -33q-45 0 -78 33t-33 78q0 44 33 77t78 33q44 0 77 -33t33 -77q0 -45 -33 -78zM678 156h500v-156h-1127v156l643 825q56 74 256 326q-164 -4 -418 -4h-444v155h1075v-155l-647 -826q-40 -52 -256 -325q164 4 418 4z" />
    <glyph glyph-name="G.ss03" horiz-adv-x="1525" 
d="M772 618v156h682v-45q0 -362 -184 -559q-185 -203 -506 -203q-312 0 -502 211t-190 551q0 346 192 553q195 209 508 209q272 0 447 -139q173 -136 211 -371h-179q-29 163 -159 257q-131 95 -320 95q-238 0 -379 -157q-141 -158 -141 -447q0 -277 139 -440
q140 -164 373 -164q222 0 353 127q133 129 157 366h-502z" />
    <glyph glyph-name="uni01F4.ss03" horiz-adv-x="1525" 
d="M874 1874h222l-252 -295h-146zM772 618v156h682v-45q0 -362 -184 -559q-185 -203 -506 -203q-312 0 -502 211t-190 551q0 346 192 553q195 209 508 209q272 0 447 -139q173 -136 211 -371h-179q-29 163 -159 257q-131 95 -320 95q-238 0 -379 -157q-141 -158 -141 -447
q0 -277 139 -440q140 -164 373 -164q222 0 353 127q133 129 157 366h-502z" />
    <glyph glyph-name="Gbreve.ss03" horiz-adv-x="1525" 
d="M772 1569q-134 0 -222 83q-87 82 -93 222h141q6 -85 52 -128q47 -44 122 -44t122 44q46 43 52 128h141q-11 -140 -96 -222q-86 -83 -219 -83zM772 618v156h682v-45q0 -362 -184 -559q-185 -203 -506 -203q-312 0 -502 211t-190 551q0 346 192 553q195 209 508 209
q272 0 447 -139q173 -136 211 -371h-179q-29 163 -159 257q-131 95 -320 95q-238 0 -379 -157q-141 -158 -141 -447q0 -277 139 -440q140 -164 373 -164q222 0 353 127q133 129 157 366h-502z" />
    <glyph glyph-name="Gcircumflex.ss03" horiz-adv-x="1525" 
d="M965 1579l-193 199l-192 -199h-164l233 295h246l233 -295h-163zM772 618v156h682v-45q0 -362 -184 -559q-185 -203 -506 -203q-312 0 -502 211t-190 551q0 346 192 553q195 209 508 209q272 0 447 -139q173 -136 211 -371h-179q-29 163 -159 257q-131 95 -320 95
q-238 0 -379 -157q-141 -158 -141 -447q0 -277 139 -440q140 -164 373 -164q222 0 353 127q133 129 157 366h-502z" />
    <glyph glyph-name="uni0122.ss03" horiz-adv-x="1525" 
d="M772 618v156h682v-45q0 -362 -184 -559q-185 -203 -506 -203q-312 0 -502 211t-190 551q0 346 192 553q195 209 508 209q272 0 447 -139q173 -136 211 -371h-179q-29 163 -159 257q-131 95 -320 95q-238 0 -379 -157q-141 -158 -141 -447q0 -277 139 -440
q140 -164 373 -164q222 0 353 127q133 129 157 366h-502zM770 -293h-104v172h200v-211q0 -80 -40 -120t-132 -46l-28 -2v88l22 2q82 6 82 72v45z" />
    <glyph glyph-name="Gdotaccent.ss03" horiz-adv-x="1525" 
d="M682 1780h176v-201h-176v201zM772 618v156h682v-45q0 -362 -184 -559q-185 -203 -506 -203q-312 0 -502 211t-190 551q0 346 192 553q195 209 508 209q272 0 447 -139q173 -136 211 -371h-179q-29 163 -159 257q-131 95 -320 95q-238 0 -379 -157q-141 -158 -141 -447
q0 -277 139 -440q140 -164 373 -164q222 0 353 127q133 129 157 366h-502z" />
    <glyph glyph-name="uni0122.ss01.ss03" horiz-adv-x="1525" 
d="M772 618v156h682v-45q0 -362 -184 -559q-185 -203 -506 -203q-312 0 -502 211t-190 551q0 346 192 553q195 209 508 209q272 0 447 -139q173 -136 211 -371h-179q-29 163 -159 257q-131 95 -320 95q-238 0 -379 -157q-141 -158 -141 -447q0 -277 139 -440
q140 -164 373 -164q222 0 353 127q133 129 157 366h-502zM760 -111q60 0 90 -41q31 -42 31 -112v-6q0 -218 -185 -230l-28 -2v92l22 2q78 6 84 93h-10q-52 0 -82 27q-31 28 -31 77q0 45 31 73q30 27 78 27z" />
    <glyph glyph-name="Gdotaccent.ss01.ss03" horiz-adv-x="1525" 
d="M850 1602q-33 -33 -78 -33t-78 33q-32 32 -32 77q0 46 32 78q33 33 78 33t78 -33t33 -78q0 -44 -33 -77zM772 618v156h682v-45q0 -362 -184 -559q-185 -203 -506 -203q-312 0 -502 211t-190 551q0 346 192 553q195 209 508 209q272 0 447 -139q173 -136 211 -371h-179
q-29 163 -159 257q-131 95 -320 95q-238 0 -379 -157q-141 -158 -141 -447q0 -277 139 -440q140 -164 373 -164q222 0 353 127q133 129 157 366h-502z" />
    <glyph glyph-name="R.ss04" horiz-adv-x="1294" 
d="M1264 0h-205l-424 590h-330v-590h-172v1458h606q232 0 359 -121q125 -123 125 -313q0 -171 -103 -288q-103 -116 -286 -140zM739 1303h-434v-558h434q147 0 227 75q78 74 78 204t-78 204q-79 75 -227 75z" />
    <glyph glyph-name="Racute.ss04" horiz-adv-x="1294" 
d="M770 1841h221l-252 -295h-145zM1264 0h-205l-424 590h-330v-590h-172v1458h606q232 0 359 -121q125 -123 125 -313q0 -171 -103 -288q-103 -116 -286 -140zM739 1303h-434v-558h434q147 0 227 75q78 74 78 204t-78 204q-79 75 -227 75z" />
    <glyph glyph-name="Rcaron.ss04" horiz-adv-x="1294" 
d="M1024 1841l-233 -295h-246l-234 295h164l193 -199l192 199h164zM1264 0h-205l-424 590h-330v-590h-172v1458h606q232 0 359 -121q125 -123 125 -313q0 -171 -103 -288q-103 -116 -286 -140zM739 1303h-434v-558h434q147 0 227 75q78 74 78 204t-78 204q-79 75 -227 75z
" />
    <glyph glyph-name="uni0156.ss04" horiz-adv-x="1294" 
d="M834 596l430 -596h-205l-424 590h-330v-590h-172v1458h606q232 0 359 -121q125 -123 125 -313q0 -171 -103 -288q-103 -116 -286 -140zM739 1303h-434v-558h434q147 0 227 75q78 74 78 204t-78 204q-79 75 -227 75zM684 -260h-104v172h200v-211q0 -80 -40 -120t-132 -46
l-28 -2v88l22 2q82 6 82 72v45z" />
    <glyph glyph-name="uni0156.ss01.ss04" horiz-adv-x="1294" 
d="M834 596l430 -596h-205l-424 590h-330v-590h-172v1458h606q232 0 359 -121q125 -123 125 -313q0 -171 -103 -288q-103 -116 -286 -140zM739 1303h-434v-558h434q147 0 227 75q78 74 78 204t-78 204q-79 75 -227 75zM674 -78q60 0 90 -41q31 -42 31 -112v-7
q0 -217 -185 -229l-28 -2v92l22 2q78 6 84 92h-10q-51 0 -82 28t-31 77q0 45 31 73q30 27 78 27z" />
    <glyph glyph-name="i.loclTRK" horiz-adv-x="409" 
d="M291 1217h-174v200h174v-200zM287 0h-164v1057h164v-1057z" />
    <glyph glyph-name="adieresis.ss01" horiz-adv-x="1067" 
d="M430 1239q-33 -33 -78 -33t-78 33q-32 32 -32 78t32 78t78 32t78 -32q33 -33 33 -78t-33 -78zM791 1239q-33 -33 -78 -33t-78 33t-33 78t33 78q32 32 78 32t78 -32t32 -78t-32 -78zM987 133h60v-133q-40 -6 -91 -6q-166 0 -178 151q-111 -170 -344 -170q-174 0 -273 81
q-100 82 -100 229q0 286 392 327l151 17q166 18 166 145q0 88 -54 127t-184 39q-138 0 -197 -46q-62 -48 -69 -163h-164q21 350 430 350q398 0 398 -307v-590q0 -51 57 -51zM442 115q130 0 230 80q98 77 98 223v125q-45 -35 -139 -45l-154 -19q-132 -16 -189 -61t-57 -129
q0 -80 54 -128q52 -46 157 -46z" />
    <glyph glyph-name="cdotaccent.ss01" horiz-adv-x="1067" 
d="M639 1239q-33 -33 -78 -33t-78 33q-32 32 -32 78t32 78t78 32t78 -32q33 -33 33 -78t-33 -78zM561 -25q-219 0 -354 152q-135 151 -135 401q0 254 135 404q130 149 354 149q187 0 309 -102t146 -281h-170q-18 113 -97 174q-80 62 -188 62q-145 0 -231 -106t-86 -300
q0 -192 87 -299q87 -106 230 -106q109 0 189 63t98 176h168q-27 -177 -151 -282q-125 -105 -304 -105z" />
    <glyph glyph-name="edieresis.ss01" horiz-adv-x="1116" 
d="M457 1239q-33 -33 -78 -33t-78 33t-33 78t33 78q32 32 78 32t78 -32t32 -78t-32 -78zM817 1239q-33 -33 -78 -33q-44 0 -77 33t-33 78t33 78q32 32 77 32q46 0 78 -32q33 -33 33 -78t-33 -78zM1044 528v-57h-802q12 -172 96 -259t229 -87q219 0 281 197h170
q-44 -161 -160 -253q-118 -94 -295 -94q-219 0 -354 150q-137 151 -137 403q0 250 135 402q133 151 352 151q227 0 356 -157q129 -158 129 -396zM559 932q-129 0 -211 -81q-81 -79 -102 -233h622q-12 141 -94 227q-83 87 -215 87z" />
    <glyph glyph-name="edotaccent.ss01" horiz-adv-x="1116" 
d="M637 1239q-33 -33 -78 -33t-78 33q-32 32 -32 78t32 78t78 32t78 -32q33 -33 33 -78t-33 -78zM1044 528v-57h-802q12 -172 96 -259t229 -87q219 0 281 197h170q-44 -161 -160 -253q-118 -94 -295 -94q-219 0 -354 150q-137 151 -137 403q0 250 135 402q133 151 352 151
q227 0 356 -157q129 -158 129 -396zM559 932q-129 0 -211 -81q-81 -79 -102 -233h622q-12 141 -94 227q-83 87 -215 87z" />
    <glyph glyph-name="uni0123.ss01" horiz-adv-x="1204" 
d="M590 1206q-60 0 -90 41q-31 42 -31 113v6q0 217 184 229l29 2v-92l-23 -2q-78 -6 -84 -92h11q51 0 82 -28q30 -27 30 -76q0 -46 -30 -73q-31 -28 -78 -28zM926 903v154h155v-1016q0 -218 -127 -342q-128 -125 -364 -125q-197 0 -316 90q-118 90 -135 250h164
q30 -201 287 -201q328 0 328 328v102q-124 -168 -355 -168q-222 0 -356 152q-135 151 -135 401q0 254 135 404q130 149 356 149q236 0 363 -178zM584 123q156 0 247 108q93 110 93 297t-93 297q-92 109 -247 109q-154 0 -247 -111t-93 -295t93 -295q92 -110 247 -110z" />
    <glyph glyph-name="gdotaccent.ss01" horiz-adv-x="1204" 
d="M662 1239q-33 -33 -78 -33t-78 33t-33 78t33 78q32 32 78 32t78 -32t32 -78t-32 -78zM926 903v154h155v-1016q0 -218 -127 -342q-128 -125 -364 -125q-197 0 -316 90q-118 90 -135 250h164q30 -201 287 -201q328 0 328 328v102q-124 -168 -355 -168q-222 0 -356 152
q-135 151 -135 401q0 254 135 404q130 149 356 149q236 0 363 -178zM584 123q156 0 247 108q93 110 93 297t-93 297q-92 109 -247 109q-154 0 -247 -111t-93 -295t93 -295q92 -110 247 -110z" />
    <glyph glyph-name="i.ss01" horiz-adv-x="409" 
d="M283 1239q-33 -33 -78 -33t-78 33t-33 78t33 78q32 32 78 32t78 -32t32 -78t-32 -78zM287 0h-164v1057h164v-1057z" />
    <glyph glyph-name="idieresis.ss01" horiz-adv-x="409" 
d="M123 1239q-33 -33 -78 -33t-78 33t-33 78t33 78q32 32 78 32t78 -32q33 -33 33 -78t-33 -78zM442 1239q-33 -33 -77 -33q-45 0 -78 33t-33 78t33 78q32 32 78 32q45 0 77 -32q33 -33 33 -78t-33 -78zM287 0h-164v1057h164v-1057z" />
    <glyph glyph-name="i.loclTRK.ss01" horiz-adv-x="409" 
d="M283 1239q-33 -33 -78 -33t-78 33t-33 78t33 78q32 32 78 32t78 -32t32 -78t-32 -78zM287 0h-164v1057h164v-1057z" />
    <glyph glyph-name="ij.ss01" horiz-adv-x="819" 
d="M283 1239q-33 -33 -78 -33t-78 33t-33 78t33 78q32 32 78 32t78 -32t32 -78t-32 -78zM692 1239q-33 -33 -78 -33q-44 0 -77 33t-33 78t33 78q32 32 77 32q46 0 78 -32q33 -33 33 -78t-33 -78zM287 0h-164v1057h164v-1057zM453 -408q-58 0 -88 2v142h67q100 0 100 90v1231
h164v-1245q0 -220 -243 -220z" />
    <glyph glyph-name="iogonek.ss01" horiz-adv-x="409" 
d="M283 1239q-33 -33 -78 -33t-78 33t-33 78t33 78q32 32 78 32t78 -32t32 -78t-32 -78zM246 -295q43 0 71 16v-127q-37 -20 -96 -20q-85 0 -137 48q-53 48 -53 136q0 69 39 138q40 70 94 104h-41v1057h164v-1057q-127 -90 -127 -201q0 -94 86 -94z" />
    <glyph glyph-name="j.ss01" horiz-adv-x="409" 
d="M283 1239q-33 -33 -78 -33t-78 33t-33 78t33 78q32 32 78 32t78 -32t32 -78t-32 -78zM43 -408q-58 0 -88 2v142h68q100 0 100 90v1231h164v-1245q0 -220 -244 -220z" />
    <glyph glyph-name="uni0137.ss01" horiz-adv-x="1032" 
d="M993 1057l-401 -381l430 -676h-191l-356 567l-188 -176v-391h-164v1458h164v-874l489 473h217zM549 -78q60 0 90 -41q31 -42 31 -112v-7q0 -217 -185 -229l-28 -2v92l22 2q78 6 84 92h-10q-51 0 -82 28t-31 77q0 45 31 73q30 27 78 27z" />
    <glyph glyph-name="uni013C.ss01" horiz-adv-x="409" 
d="M123 1458h164v-1458h-164v1458zM201 -78q60 0 90 -41q31 -42 31 -112v-7q0 -217 -185 -229l-28 -2v92l22 2q78 6 84 92h-10q-51 0 -82 28t-31 77q0 45 31 73q30 27 78 27z" />
    <glyph glyph-name="ldot.ss01" horiz-adv-x="825" 
d="M287 0h-164v1458h164v-1458zM616 606q-54 0 -88 34t-34 87q0 49 34 82t88 33q48 0 83 -33q34 -33 34 -82q0 -52 -34 -86q-35 -35 -83 -35z" />
    <glyph glyph-name="napostrophe.ss01" horiz-adv-x="1402" 
d="M195 1458q133 0 133 -170q0 -260 -226 -307l-20 -4v108l14 2q100 27 111 158h-12q-47 0 -80 30t-33 75q0 47 33 77q34 31 80 31zM907 1081q176 0 275 -96q98 -95 98 -270v-715h-164v698q0 236 -242 236q-111 0 -202 -86q-88 -85 -88 -250v-598h-164v1057h155v-158
q121 182 332 182z" />
    <glyph glyph-name="uni0146.ss01" horiz-adv-x="1105" 
d="M610 1081q176 0 275 -96q98 -95 98 -270v-715h-164v698q0 236 -241 236q-114 0 -203 -86q-88 -85 -88 -250v-598h-164v1057h156v-158q121 182 331 182zM545 -78q60 0 90 -41q31 -42 31 -112v-7q0 -217 -185 -229l-28 -2v92l22 2q78 6 84 92h-10q-51 0 -82 28t-31 77
q0 45 31 73q30 27 78 27z" />
    <glyph glyph-name="odieresis.ss01" horiz-adv-x="1167" 
d="M481 1239q-33 -33 -78 -33q-44 0 -77 33t-33 78t33 78q32 32 77 32q46 0 78 -32q33 -33 33 -78t-33 -78zM842 1239q-33 -33 -78 -33t-78 33t-33 78t33 78q32 32 78 32t78 -32t32 -78t-32 -78zM952 127q-146 -152 -368 -152q-223 0 -369 152q-143 149 -143 401
q0 253 143 402q145 151 369 151q223 0 368 -151q144 -150 144 -402q0 -251 -144 -401zM336 231q92 -108 248 -108t247 108q93 108 93 297q0 191 -93 299q-92 107 -247 107q-156 0 -248 -107t-92 -299q0 -190 92 -297z" />
    <glyph glyph-name="uni0157.ss01" horiz-adv-x="724" 
d="M618 1073q36 0 56 -2v-158h-41q-165 0 -255 -80q-91 -81 -91 -231v-602h-164v1057h156v-187q107 203 339 203zM201 -78q60 0 90 -41q31 -42 31 -112v-7q0 -217 -185 -229l-28 -2v92l22 2q78 6 84 92h-10q-51 0 -82 28t-31 77q0 45 31 73q30 27 78 27z" />
    <glyph glyph-name="uni0219.ss01" horiz-adv-x="956" 
d="M457 621l94 -19q195 -39 279 -110q85 -72 85 -201q0 -151 -111 -233q-112 -83 -308 -83q-425 0 -449 361h166q15 -120 79 -169q65 -50 204 -50q254 0 254 164q0 70 -53 108q-52 37 -189 64l-98 18q-330 61 -330 311q0 137 103 218t282 81q419 0 430 -350h-164
q-6 116 -69 162q-64 47 -197 47q-106 0 -164 -41q-57 -41 -57 -115q0 -70 49 -104q50 -35 164 -59zM494 -102q60 0 90 -41t30 -113v-6q0 -218 -184 -230l-29 -2v93l23 2q78 6 84 92h-10q-52 0 -82 27q-31 28 -31 77q0 45 31 73t78 28z" />
    <glyph glyph-name="uni021B.ss01" horiz-adv-x="636" 
d="M586 1057v-144h-217v-686q0 -90 120 -90h97v-137q-68 -6 -117 -6q-264 0 -264 219v700h-174v144h174v299h164v-299h217zM393 -78q60 0 90 -41q31 -42 31 -112v-7q0 -217 -184 -229l-29 -2v92l23 2q78 6 84 92h-11q-51 0 -82 28q-30 27 -30 77q0 46 30 73t78 27z" />
    <glyph glyph-name="udieresis.ss01" horiz-adv-x="1105" 
d="M440 1239q-33 -33 -78 -33q-44 0 -77 33t-33 78t33 78q32 32 77 32q46 0 78 -32q33 -33 33 -78t-33 -78zM801 1239q-33 -33 -78 -33t-78 33t-33 78t33 78q32 32 78 32t78 -32q33 -33 33 -78t-33 -78zM819 459v598h164v-1057h-156v158q-122 -183 -331 -183q-175 0 -275 97
q-98 95 -98 270v715h164v-699q0 -235 241 -235q114 0 203 86q88 85 88 250z" />
    <glyph glyph-name="wdieresis.ss01" horiz-adv-x="1593" 
d="M694 1239q-33 -33 -78 -33q-44 0 -77 33t-33 78t33 78q32 32 77 32q46 0 78 -32q33 -33 33 -78t-33 -78zM1055 1239q-33 -33 -78 -33t-78 33t-33 78t33 78q32 32 78 32t78 -32t32 -78t-32 -78zM1257 580l150 477h176l-352 -1057h-172l-156 489q-74 241 -106 359
q-41 -150 -109 -359l-153 -489h-173l-352 1057h176l150 -477q52 -164 115 -385q70 248 112 385l148 477h172l147 -477q33 -109 62 -205t41 -135.5t12 -40.5q20 76 112 381z" />
    <glyph glyph-name="ydieresis.ss01" horiz-adv-x="980" 
d="M389 1239q-33 -33 -78 -33t-78 33q-32 32 -32 78t32 78t78 32t78 -32q33 -33 33 -78t-33 -78zM750 1239q-33 -33 -78 -33t-78 33t-33 78t33 78q32 32 78 32t78 -32t32 -78t-32 -78zM643 618l150 439h178l-447 -1223q-46 -133 -129 -187q-84 -55 -215 -55q-37 0 -98 7v137
h96q142 0 193 131l37 98l-398 1092h180l150 -441q98 -290 152 -456q62 197 151 458z" />
    <glyph glyph-name="zdotaccent.ss01" horiz-adv-x="997" 
d="M578 1239q-33 -33 -78 -33t-78 33t-33 78t33 78q32 32 78 32t78 -32t32 -78t-32 -78zM502 143h424v-143h-854v123l483 622q3 4 33.5 41.5t48.5 61.5q13 17 26 33.5t20 25t9 11.5q-113 -5 -225 -5h-375v144h805v-123l-483 -623q-7 -9 -35.5 -44t-46.5 -58
q-13 -17 -26.5 -33.5t-20.5 -25t-9 -11.5q91 4 226 4z" />
    <glyph glyph-name="a.ss02" horiz-adv-x="1189" 
d="M903 907v150h164v-1057h-156v162q-119 -187 -356 -187q-223 0 -352 150q-131 151 -131 403q0 253 131 404q128 149 352 149q225 0 348 -174zM575 123q155 0 243 107q89 109 89 298q0 193 -88 299q-89 107 -244 107q-153 0 -241 -111q-90 -113 -90 -303q0 -189 88 -293
t243 -104z" />
    <glyph glyph-name="aacute.ss02" horiz-adv-x="1189" 
d="M684 1511h221l-252 -294h-145zM903 907v150h164v-1057h-156v162q-119 -187 -356 -187q-223 0 -352 150q-131 151 -131 403q0 253 131 404q128 149 352 149q225 0 348 -174zM575 123q155 0 243 107q89 109 89 298q0 193 -88 299q-89 107 -244 107q-153 0 -241 -111
q-90 -113 -90 -303q0 -189 88 -293t243 -104z" />
    <glyph glyph-name="abreve.ss02" horiz-adv-x="1189" 
d="M575 1206q-134 0 -222 83q-87 83 -93 222h141q6 -84 53 -128t121 -44q75 0 122 44t53 128h141q-11 -139 -96 -222q-86 -83 -220 -83zM903 907v150h164v-1057h-156v162q-119 -187 -356 -187q-223 0 -352 150q-131 151 -131 403q0 253 131 404q128 149 352 149
q225 0 348 -174zM575 123q155 0 243 107q89 109 89 298q0 193 -88 299q-89 107 -244 107q-153 0 -241 -111q-90 -113 -90 -303q0 -189 88 -293t243 -104z" />
    <glyph glyph-name="acircumflex.ss02" horiz-adv-x="1189" 
d="M768 1217l-193 198l-192 -198h-164l234 294h245l234 -294h-164zM903 907v150h164v-1057h-156v162q-119 -187 -356 -187q-223 0 -352 150q-131 151 -131 403q0 253 131 404q128 149 352 149q225 0 348 -174zM575 123q155 0 243 107q89 109 89 298q0 193 -88 299
q-89 107 -244 107q-153 0 -241 -111q-90 -113 -90 -303q0 -189 88 -293t243 -104z" />
    <glyph glyph-name="adieresis.ss02" horiz-adv-x="1189" 
d="M307 1417h174v-200h-174v200zM666 1417h174v-200h-174v200zM903 907v150h164v-1057h-156v162q-119 -187 -356 -187q-223 0 -352 150q-131 151 -131 403q0 253 131 404q128 149 352 149q225 0 348 -174zM575 123q155 0 243 107q89 109 89 298q0 193 -88 299
q-89 107 -244 107q-153 0 -241 -111q-90 -113 -90 -303q0 -189 88 -293t243 -104z" />
    <glyph glyph-name="agrave.ss02" horiz-adv-x="1189" 
d="M475 1511l176 -294h-145l-252 294h221zM903 907v150h164v-1057h-156v162q-119 -187 -356 -187q-223 0 -352 150q-131 151 -131 403q0 253 131 404q128 149 352 149q225 0 348 -174zM575 123q155 0 243 107q89 109 89 298q0 193 -88 299q-89 107 -244 107
q-153 0 -241 -111q-90 -113 -90 -303q0 -189 88 -293t243 -104z" />
    <glyph glyph-name="amacron.ss02" horiz-adv-x="1189" 
d="M279 1354h593v-137h-593v137zM903 907v150h164v-1057h-156v162q-119 -187 -356 -187q-223 0 -352 150q-131 151 -131 403q0 253 131 404q128 149 352 149q225 0 348 -174zM575 123q155 0 243 107q89 109 89 298q0 193 -88 299q-89 107 -244 107q-153 0 -241 -111
q-90 -113 -90 -303q0 -189 88 -293t243 -104z" />
    <glyph glyph-name="aogonek.ss02" horiz-adv-x="1189" 
d="M1067 1057v-1057q-213 -105 -213 -205q0 -40 29 -63t73 -23q62 0 111 21v-133q-57 -23 -139 -23q-98 0 -164 51t-66 139q0 69 59 136q58 66 154 100v162q-119 -187 -356 -187q-223 0 -352 150q-131 151 -131 403q0 253 131 404q128 149 352 149q225 0 348 -174v150h164z
M575 123q155 0 243 107q89 109 89 298q0 193 -88 299q-89 107 -244 107q-153 0 -241 -111q-90 -113 -90 -303q0 -189 88 -293t243 -104z" />
    <glyph glyph-name="aring.ss02" horiz-adv-x="1189" 
d="M762 1278q-78 -72 -187 -72q-107 0 -184 72q-76 69 -76 178t76 178q77 72 184 72q109 0 187 -72q74 -69 74 -178t-74 -178zM670 1550q-38 37 -95 37q-56 0 -94 -37q-39 -39 -39 -94q0 -54 39 -92q39 -39 94 -39q56 0 95 39q39 38 39 92q0 55 -39 94zM903 907v150h164
v-1057h-156v162q-119 -187 -356 -187q-223 0 -352 150q-131 151 -131 403q0 253 131 404q128 149 352 149q225 0 348 -174zM575 123q155 0 243 107q89 109 89 298q0 193 -88 299q-89 107 -244 107q-153 0 -241 -111q-90 -113 -90 -303q0 -189 88 -293t243 -104z" />
    <glyph glyph-name="aringacute.ss02" horiz-adv-x="1189" 
d="M684 2140h221l-252 -295h-145zM762 1278q-78 -72 -187 -72q-107 0 -184 72q-76 69 -76 178t76 178q77 72 184 72q109 0 187 -72q74 -69 74 -178t-74 -178zM670 1550q-38 37 -95 37q-56 0 -94 -37q-39 -39 -39 -94q0 -54 39 -92q39 -39 94 -39q56 0 95 39q39 38 39 92
q0 55 -39 94zM903 907v150h164v-1057h-156v162q-119 -187 -356 -187q-223 0 -352 150q-131 151 -131 403q0 253 131 404q128 149 352 149q225 0 348 -174zM575 123q155 0 243 107q89 109 89 298q0 193 -88 299q-89 107 -244 107q-153 0 -241 -111q-90 -113 -90 -303
q0 -189 88 -293t243 -104z" />
    <glyph glyph-name="atilde.ss02" horiz-adv-x="1189" 
d="M426 1319q-57 0 -57 -102h-140q0 251 185 251q66 0 178 -57q84 -45 129 -45q57 0 57 102h140q0 -251 -185 -251q-59 0 -186 59q-89 43 -121 43zM903 907v150h164v-1057h-156v162q-119 -187 -356 -187q-223 0 -352 150q-131 151 -131 403q0 253 131 404q128 149 352 149
q225 0 348 -174zM575 123q155 0 243 107q89 109 89 298q0 193 -88 299q-89 107 -244 107q-153 0 -241 -111q-90 -113 -90 -303q0 -189 88 -293t243 -104z" />
    <glyph glyph-name="adieresis.ss01.ss02" horiz-adv-x="1189" 
d="M473 1239q-33 -33 -78 -33t-78 33q-32 32 -32 78t32 78t78 32t78 -32q33 -33 33 -78t-33 -78zM834 1239q-33 -33 -78 -33t-78 33t-33 78t33 78q32 32 78 32t78 -32t32 -78t-32 -78zM903 907v150h164v-1057h-156v162q-119 -187 -356 -187q-223 0 -352 150
q-131 151 -131 403q0 253 131 404q128 149 352 149q225 0 348 -174zM575 123q155 0 243 107q89 109 89 298q0 193 -88 299q-89 107 -244 107q-153 0 -241 -111q-90 -113 -90 -303q0 -189 88 -293t243 -104z" />
    <glyph glyph-name="uni021B.ss01.ss05" horiz-adv-x="616" 
d="M369 1356v-299h196v-144h-196v-913h-164v913h-174v144h174v299h164zM283 -78q60 0 90 -41t30 -112v-7q0 -217 -184 -229l-29 -2v92l23 2q78 6 84 92h-10q-51 0 -82 28t-31 77q0 45 31 73q30 27 78 27z" />
    <glyph glyph-name="udieresis.ss01.ss05" horiz-adv-x="1105" 
d="M440 1239q-33 -33 -78 -33q-44 0 -77 33t-33 78t33 78q32 32 77 32q46 0 78 -32q33 -33 33 -78t-33 -78zM801 1239q-33 -33 -78 -33t-78 33t-33 78t33 78q32 32 78 32t78 -32q33 -33 33 -78t-33 -78zM819 459v598h164v-1057h-156v158q-122 -183 -331 -183q-175 0 -275 97
q-98 95 -98 270v715h164v-699q0 -235 241 -235q114 0 203 86q88 85 88 250z" />
    <glyph glyph-name="t.ss05" horiz-adv-x="616" 
d="M369 1057h196v-144h-196v-913h-164v913h-174v144h174v299h164v-299z" />
    <glyph glyph-name="tbar.ss05" horiz-adv-x="616" 
d="M565 1057v-144h-196v-303h196v-133h-196v-477h-164v477h-170v133h170v303h-174v144h174v299h164v-299h196z" />
    <glyph glyph-name="tcaron.ss05" horiz-adv-x="616" 
d="M510 1458h190l-143 -340h-125zM205 1356h164v-299h196v-144h-196v-913h-164v913h-174v144h174v299z" />
    <glyph glyph-name="uni0163.ss05" horiz-adv-x="616" 
d="M369 913v-913h-15l-78 -88h19q85 0 134 -45q50 -45 50 -117q0 -196 -280 -196q-63 0 -125 12v94q61 -8 119 -8q59 0 94 24t35 70q0 84 -117 84q-34 0 -58 -2v78l74 94h-16v913h-174v144h174v299h164v-299h196v-144h-196z" />
    <glyph glyph-name="uni021B.ss05" horiz-adv-x="616" 
d="M369 1356v-299h196v-144h-196v-913h-164v913h-174v144h174v299h164zM293 -332h-105v172h201v-211q0 -79 -40 -119q-41 -41 -132 -47l-29 -2v88l23 2q82 6 82 72v45z" />
    <glyph glyph-name="udieresis.ss01.ss06" horiz-adv-x="1105" 
d="M451 1239q-33 -33 -78 -33t-78 33t-33 78t33 78q32 32 78 32t78 -32t32 -78t-32 -78zM811 1239q-33 -33 -78 -33t-78 33q-32 32 -32 78t32 78t78 32t78 -32q33 -33 33 -78t-33 -78zM862 96q-124 -121 -313 -121q-190 0 -307 119q-119 119 -119 303v660h164v-662
q0 -130 71 -202q72 -74 191 -74q120 0 195 75t75 201v662h164v-660q0 -180 -121 -301z" />
    <glyph glyph-name="u.ss06" horiz-adv-x="1105" 
d="M862 96q-124 -121 -313 -121q-190 0 -307 119q-119 119 -119 303v660h164v-662q0 -130 71 -202q72 -74 191 -74q120 0 195 75t75 201v662h164v-660q0 -180 -121 -301z" />
    <glyph glyph-name="uacute.ss06" horiz-adv-x="1105" 
d="M631 1217h-146l177 294h221zM862 96q-124 -121 -313 -121q-190 0 -307 119q-119 119 -119 303v660h164v-662q0 -130 71 -202q72 -74 191 -74q120 0 195 75t75 201v662h164v-660q0 -180 -121 -301z" />
    <glyph glyph-name="ubreve.ss06" horiz-adv-x="1105" 
d="M553 1206q-134 0 -222 83q-87 83 -93 222h141q6 -85 52 -128q47 -44 122 -44t122 44q46 43 52 128h141q-10 -139 -96 -222t-219 -83zM862 96q-124 -121 -313 -121q-190 0 -307 119q-119 119 -119 303v660h164v-662q0 -130 71 -202q72 -74 191 -74q120 0 195 75t75 201
v662h164v-660q0 -180 -121 -301z" />
    <glyph glyph-name="ucircumflex.ss06" horiz-adv-x="1105" 
d="M745 1217l-192 198l-193 -198h-163l233 294h246l233 -294h-164zM819 395v662h164v-660q0 -180 -121 -301q-124 -121 -313 -121q-190 0 -307 119q-119 119 -119 303v660h164v-662q0 -130 71 -202q72 -74 191 -74q120 0 195 75t75 201z" />
    <glyph glyph-name="udieresis.ss06" horiz-adv-x="1105" 
d="M459 1217h-174v200h174v-200zM817 1217h-174v200h174v-200zM862 96q-124 -121 -313 -121q-190 0 -307 119q-119 119 -119 303v660h164v-662q0 -130 71 -202q72 -74 191 -74q120 0 195 75t75 201v662h164v-660q0 -180 -121 -301z" />
    <glyph glyph-name="ugrave.ss06" horiz-adv-x="1105" 
d="M629 1217h-146l-252 294h222zM862 96q-124 -121 -313 -121q-190 0 -307 119q-119 119 -119 303v660h164v-662q0 -130 71 -202q72 -74 191 -74q120 0 195 75t75 201v662h164v-660q0 -180 -121 -301z" />
    <glyph glyph-name="uhungarumlaut.ss06" horiz-adv-x="1105" 
d="M471 1217h-137l176 294h213zM807 1217h-137l176 294h213zM862 96q-124 -121 -313 -121q-190 0 -307 119q-119 119 -119 303v660h164v-662q0 -130 71 -202q72 -74 191 -74q120 0 195 75t75 201v662h164v-660q0 -180 -121 -301z" />
    <glyph glyph-name="umacron.ss06" horiz-adv-x="1105" 
d="M850 1217h-594v137h594v-137zM862 96q-124 -121 -313 -121q-190 0 -307 119q-119 119 -119 303v660h164v-662q0 -130 71 -202q72 -74 191 -74q120 0 195 75t75 201v662h164v-660q0 -180 -121 -301z" />
    <glyph glyph-name="uogonek.ss06" horiz-adv-x="1105" 
d="M819 395v662h164v-660q0 -128 -62 -227q-64 -102 -173 -152q-207 -105 -207 -202q0 -42 28 -64t74 -22q64 0 111 20v-133q-57 -23 -140 -23q-96 0 -163 52q-66 51 -66 139q0 113 123 192q-174 12 -279 129q-106 113 -106 291v660h164v-662q0 -130 71 -202q72 -74 191 -74
q120 0 195 75t75 201z" />
    <glyph glyph-name="uring.ss06" horiz-adv-x="1105" 
d="M739 1278q-78 -72 -186 -72q-107 0 -184 72q-76 69 -76 178t76 178q76 72 184 72t186 -72q74 -69 74 -178t-74 -178zM459 1364q39 -39 94 -39t94 39q39 38 39 92q0 55 -39 94q-38 37 -94 37t-94 -37q-39 -39 -39 -94q0 -54 39 -92zM862 96q-124 -121 -313 -121
q-190 0 -307 119q-119 119 -119 303v660h164v-662q0 -130 71 -202q72 -74 191 -74q120 0 195 75t75 201v662h164v-660q0 -180 -121 -301z" />
    <glyph glyph-name="utilde.ss06" horiz-adv-x="1105" 
d="M346 1217h-139q0 251 184 251q65 0 178 -57q84 -45 129 -45q58 0 58 102h139q0 -251 -184 -251q-60 0 -187 59q-87 43 -121 43q-57 0 -57 -102zM862 96q-124 -121 -313 -121q-190 0 -307 119q-119 119 -119 303v660h164v-662q0 -130 71 -202q72 -74 191 -74q120 0 195 75
t75 201v662h164v-660q0 -180 -121 -301z" />
    <glyph glyph-name="ydieresis.ss01.ss07" horiz-adv-x="980" 
d="M389 1239q-33 -33 -78 -33t-78 33q-32 32 -32 78t32 78t78 32t78 -32q33 -33 33 -78t-33 -78zM750 1239q-33 -33 -78 -33t-78 33t-33 78t33 78q32 32 78 32t78 -32t32 -78t-32 -78zM643 645l150 412h178l-400 -1022l-168 -436h-161l168 432l-400 1026h180l156 -424
q40 -108 146 -406q3 9 11.5 33t24.5 68.5t31 87.5q37 107 84 229z" />
    <glyph glyph-name="y.ss07" horiz-adv-x="980" 
d="M643 645l150 412h178l-400 -1022l-168 -436h-161l168 432l-400 1026h180l156 -424q40 -108 146 -406q3 9 11.5 33t24.5 68.5t31 87.5q37 107 84 229z" />
    <glyph glyph-name="yacute.ss07" horiz-adv-x="980" 
d="M600 1511h221l-252 -294h-145zM643 645l150 412h178l-400 -1022l-168 -436h-161l168 432l-400 1026h180l156 -424q40 -108 146 -406q3 9 11.5 33t24.5 68.5t31 87.5q37 107 84 229z" />
    <glyph glyph-name="ycircumflex.ss07" horiz-adv-x="980" 
d="M684 1217l-192 198l-193 -198h-164l234 294h245l234 -294h-164zM643 645l150 412h178l-400 -1022l-168 -436h-161l168 432l-400 1026h180l156 -424q40 -108 146 -406q3 9 11.5 33t24.5 68.5t31 87.5q37 107 84 229z" />
    <glyph glyph-name="ydieresis.ss07" horiz-adv-x="980" 
d="M223 1417h174v-200h-174v200zM582 1417h174v-200h-174v200zM643 645l150 412h178l-400 -1022l-168 -436h-161l168 432l-400 1026h180l156 -424q40 -108 146 -406q3 9 11.5 33t24.5 68.5t31 87.5q37 107 84 229z" />
    <glyph glyph-name="ygrave.ss07" horiz-adv-x="980" 
d="M391 1511l176 -294h-145l-252 294h221zM643 645l150 412h178l-400 -1022l-168 -436h-161l168 432l-400 1026h180l156 -424q40 -108 146 -406q3 9 11.5 33t24.5 68.5t31 87.5q37 107 84 229z" />
    <glyph glyph-name="l.ss08" horiz-adv-x="485" 
d="M360 -6q-237 0 -237 219v1245h164v-1231q0 -90 100 -90h78v-137q-60 -6 -105 -6z" />
    <glyph glyph-name="lacute.ss08" horiz-adv-x="485" 
d="M276 1546h-145l176 295h221zM360 -6q-237 0 -237 219v1245h164v-1231q0 -90 100 -90h78v-137q-60 -6 -105 -6z" />
    <glyph glyph-name="lcaron.ss08" horiz-adv-x="612" 
d="M360 -6q-237 0 -237 219v1245h164v-1231q0 -90 100 -90h78v-137q-60 -6 -105 -6zM489 1118h-124l77 340h191z" />
    <glyph glyph-name="uni013C.ss08" horiz-adv-x="485" 
d="M387 137h78v-137q-60 -6 -105 -6q-237 0 -237 219v1245h164v-1231q0 -90 100 -90zM211 -332h-105v172h201v-211q0 -79 -40 -119q-41 -41 -132 -47l-29 -2v88l23 2q82 6 82 72v45z" />
    <glyph glyph-name="ldot.ss08" horiz-adv-x="808" 
d="M360 -6q-237 0 -237 219v1245h164v-1231q0 -90 100 -90h78v-137q-60 -6 -105 -6zM717 623h-207v204h207v-204z" />
    <glyph glyph-name="lslash.ss08" horiz-adv-x="536" 
d="M438 137h78v-137q-57 -6 -104 -6q-238 0 -238 219v395l-174 -98v156l174 98v694h164v-602l172 96v-155l-172 -97v-473q0 -90 100 -90z" />
    <glyph glyph-name="uni013C.ss01.ss08" horiz-adv-x="485" 
d="M387 137h78v-137q-60 -6 -105 -6q-237 0 -237 219v1245h164v-1231q0 -90 100 -90zM201 -78q60 0 90 -41q31 -42 31 -112v-7q0 -217 -185 -229l-28 -2v92l22 2q78 6 84 92h-10q-51 0 -82 28t-31 77q0 45 31 73q30 27 78 27z" />
    <glyph glyph-name="ldot.ss01.ss08" horiz-adv-x="825" 
d="M360 -6q-237 0 -237 219v1245h164v-1231q0 -90 100 -90h78v-137q-60 -6 -105 -6zM616 606q-54 0 -88 34t-34 87q0 49 34 82t88 33q48 0 83 -33q34 -33 34 -82q0 -52 -34 -86q-35 -35 -83 -35z" />
    <glyph glyph-name="fi.ss01" horiz-adv-x="1044" 
d="M205 1057v108q0 297 295 297q45 0 104 -4v-139h-94q-141 0 -141 -150v-112h225v-144h-225v-913h-164v913h-174v144h174zM918 1239q-33 -33 -78 -33t-78 33t-33 78t33 78q32 32 78 32t78 -32t32 -78t-32 -78zM922 0h-164v1057h164v-1057z" />
    <glyph glyph-name="fl.ss08" horiz-adv-x="1099" 
d="M205 1057v108q0 297 295 297q45 0 104 -4v-139h-94q-141 0 -141 -150v-112h225v-144h-225v-913h-164v913h-174v144h174zM1001 137h78v-137q-60 -6 -104 -6q-238 0 -238 219v1245h164v-1231q0 -90 100 -90z" />
    <glyph glyph-name="ordfeminine.ss02" horiz-adv-x="1060" 
d="M807 1319v139h162v-921h-156v145q-105 -166 -309 -166q-193 0 -307 130q-115 132 -115 349q0 219 115 351q114 131 307 131q201 0 303 -158zM326 743q76 -88 204 -88q127 0 205 90q76 88 76 250q0 160 -76 251t-205 91q-128 0 -204 -93q-76 -92 -76 -255t76 -246z" />
    <glyph glyph-name="t.sups.ss05" horiz-adv-x="604" 
d="M373 1458h170v-133h-170v-788h-162v788h-150v133h150v262h162v-262z" />
    <glyph glyph-name="zero.ss09" horiz-adv-x="1957" 
d="M1909 -180h-1860v1818h1860v-1818zM702 373q99 -125 277 -125q177 0 276 125q99 127 99 356t-97 358q-99 125 -278 125q-182 0 -277 -125q-98 -123 -98 -358q0 -230 98 -356zM1188 729q0 -346 -209 -346t-209 346q0 348 209 348t209 -348z" />
    <glyph glyph-name="one.ss09" horiz-adv-x="1957" 
d="M1909 -180h-1860v1818h1860v-1818zM924 930v-666h174v932h-146q-30 -85 -87 -115t-167 -30v-121h226z" />
    <glyph glyph-name="two.ss09" horiz-adv-x="1957" 
d="M1909 -180h-1860v1818h1860v-1818zM637 350l-2 -59h686v135h-512q12 122 170 188l78 33q131 56 192 130q62 76 62 181q0 121 -86 199q-85 78 -242 78q-164 0 -249 -82t-89 -221h156q2 81 48 124q47 44 128 44q178 0 178 -146q0 -121 -162 -184l-63 -25
q-154 -62 -220 -156q-67 -96 -73 -239z" />
    <glyph glyph-name="three.ss09" horiz-adv-x="1957" 
d="M1909 -180h-1860v1818h1860v-1818zM981 248q160 0 256 78t96 206q0 84 -44 146q-43 62 -120 84q66 28 102 82q38 56 38 123q0 113 -87 179t-239 66q-151 0 -237 -70q-87 -71 -95 -200h154q15 143 178 143q82 0 127 -36q47 -38 47 -99q0 -141 -180 -141h-62v-117h58
q203 0 203 -155q0 -73 -54 -118q-53 -44 -141 -44q-203 0 -207 188h-156q1 -150 97 -233q94 -82 266 -82z" />
    <glyph glyph-name="four.ss09" horiz-adv-x="1957" 
d="M1909 -180h-1860v1818h1860v-1818zM1014 514v-225h164v225h135v135h-135v563h-168l-463 -538v-160h467zM1022 649h-336l336 387v-387z" />
    <glyph glyph-name="five.ss09" horiz-adv-x="1957" 
d="M1909 -180h-1860v1818h1860v-1818zM981 248q151 0 246 88q98 85 98 231q0 143 -84 231q-84 89 -221 89q-131 0 -201 -68l43 238h424v135h-547l-96 -533h158q51 105 180 105q87 0 139 -55q54 -57 54 -142q0 -82 -54 -138q-52 -54 -139 -54q-158 0 -195 143h-155
q18 -122 113 -196t237 -74z" />
    <glyph glyph-name="six.ss09" horiz-adv-x="1957" 
d="M1909 -180h-1860v1818h1860v-1818zM979 248q155 0 250 88q96 88 96 231q0 140 -90 230q-95 90 -234 90q-147 0 -239 -109v13q18 294 225 294q137 0 170 -118h156q-21 114 -108 180q-86 65 -218 65q-185 0 -279 -129q-96 -131 -96 -376q0 -281 146 -392q89 -67 221 -67z
M979 375q-85 0 -137 52q-54 54 -54 136q0 83 55 138t136 55q82 0 139 -55q56 -54 56 -138q0 -82 -55 -135t-140 -53z" />
    <glyph glyph-name="seven.ss09" horiz-adv-x="1957" 
d="M1909 -180h-1860v1818h1860v-1818zM817 244h170q1 257 79 444q76 183 245 340v139h-641v-135h489q-155 -139 -246 -348q-94 -214 -96 -440z" />
    <glyph glyph-name="eight.ss09" horiz-adv-x="1957" 
d="M1909 -180h-1860v1818h1860v-1818zM719 324q94 -76 260 -76q167 0 262 76q96 74 96 196q0 169 -166 238q121 72 121 203q0 114 -85 183q-84 68 -228 68q-145 0 -229 -68q-86 -69 -86 -183q0 -66 33 -118q36 -56 91 -85q-167 -67 -167 -238q0 -123 98 -196zM1106 846
q-52 -41 -127 -41q-78 0 -125 41t-47 106q0 66 47 105q45 39 125 39q81 0 127 -39q47 -41 47 -105q0 -65 -47 -106zM1128 416q-55 -43 -149 -43q-96 0 -148 43q-55 43 -55 121q0 77 55 122q52 43 148 43q94 0 149 -43q54 -48 54 -122q0 -76 -54 -121z" />
    <glyph glyph-name="nine.ss09" horiz-adv-x="1957" 
d="M1909 -180h-1860v1818h1860v-1818zM975 248q185 0 279 129q96 131 96 377q0 278 -148 391q-85 67 -219 67q-155 0 -250 -88q-96 -88 -96 -231q0 -139 92 -229q91 -91 232 -91q149 0 229 99l10 12v-8q-11 -154 -64 -227q-54 -74 -161 -74q-137 0 -170 119h-156
q21 -115 108 -181q86 -65 218 -65zM983 705q-86 0 -140 55q-55 57 -55 139q0 81 55 134q53 52 140 52q85 0 137 -52q54 -54 54 -134q0 -82 -55 -139q-54 -55 -136 -55z" />
    <glyph glyph-name="zero.ss10" horiz-adv-x="1957" 
d="M1909 -180h-1860v1818h1860v-1818zM213 1491v-1524h1532v1524h-1532zM1262 375q-94 -129 -283 -129t-283 129q-96 131 -96 354q0 230 97 358q98 130 282 130t282 -130q97 -128 97 -358q0 -223 -96 -354zM774 729q0 -342 205 -342t205 342q0 344 -205 344t-205 -344z" />
    <glyph glyph-name="one.ss10" horiz-adv-x="1957" 
d="M49 -180v1818h1860v-1818h-1860zM213 -33h1532v1524h-1532v-1524zM1100 264h-166v701q-70 -35 -232 -35v121q116 6 169 34q55 29 85 111h144v-932z" />
    <glyph glyph-name="two.ss10" horiz-adv-x="1957" 
d="M49 -180v1818h1860v-1818h-1860zM213 -33h1532v1524h-1532v-1524zM813 408h514v-144h-694l2 64q6 146 73 242t222 157l63 25q160 63 160 180q0 141 -174 141q-85 0 -128 -46q-44 -47 -44 -122h-162q1 140 88 227q85 85 252 85q156 0 244 -79t88 -202q0 -204 -256 -315
l-78 -33q-79 -34 -120 -77q-39 -41 -50 -103z" />
    <glyph glyph-name="three.ss10" horiz-adv-x="1957" 
d="M49 -180v1818h1860v-1818h-1860zM213 -33h1532v1524h-1532v-1524zM981 381q88 0 139 42t51 116q0 149 -198 149h-62v125h66q176 0 176 137q0 60 -46 96q-45 35 -124 35q-165 0 -172 -143h-166q7 135 96 207t242 72q152 0 242 -69t90 -181q0 -65 -36 -121t-97 -84
q73 -24 114 -85t41 -145q0 -128 -96 -207q-95 -79 -260 -79q-175 0 -269 84q-97 86 -98 237h164q0 -186 203 -186z" />
    <glyph glyph-name="four.ss10" horiz-adv-x="1957" 
d="M49 -180v1818h1860v-1818h-1860zM213 -33h1532v1524h-1532v-1524zM1223 264h-172v225h-467v166l465 541h174v-563h135v-144h-135v-225zM1059 633v373l-326 -373h326z" />
    <glyph glyph-name="five.ss10" horiz-adv-x="1957" 
d="M49 -180v1818h1860v-1818h-1860zM213 -33h1532v1524h-1532v-1524zM979 381q86 0 137 52t51 134q0 86 -52 139q-53 54 -136 54q-133 0 -180 -105h-162l96 541h553v-143h-422l-41 -224q70 62 193 62q140 0 226 -90q85 -89 85 -234t-98 -233t-250 -88q-143 0 -241 75
q-97 74 -113 201h161q15 -65 65 -103t128 -38z" />
    <glyph glyph-name="six.ss10" horiz-adv-x="1957" 
d="M49 -180v1818h1860v-1818h-1860zM213 -33h1532v1524h-1532v-1524zM766 313q-148 112 -148 394q0 245 96 378q96 132 281 132q135 0 224 -68q87 -66 108 -186h-164q-33 118 -168 118q-104 0 -157 -72q-53 -73 -64 -227q91 109 238 109q145 0 237 -92q90 -96 90 -232
q0 -145 -98 -233t-252 -88q-132 0 -223 67zM989 752q-80 0 -133 -55t-53 -134q0 -80 51 -131t135 -51q83 0 136 51t53 131q0 82 -53 135q-54 54 -136 54z" />
    <glyph glyph-name="seven.ss10" horiz-adv-x="1957" 
d="M49 -180v1818h1860v-1818h-1860zM213 -33h1532v1524h-1532v-1524zM981 264h-178q1 224 92 438q88 205 242 351h-482v143h650v-145q-169 -157 -245 -340q-78 -187 -79 -447z" />
    <glyph glyph-name="eight.ss10" horiz-adv-x="1957" 
d="M49 -180v1818h1860v-1818h-1860zM213 -33h1532v1524h-1532v-1524zM616 520q0 169 162 238q-119 69 -119 203q0 114 86 185t234 71q146 0 232 -71q85 -70 85 -185q0 -135 -116 -203q161 -69 161 -238q0 -122 -96 -198q-95 -76 -266 -76q-168 0 -265 76q-98 77 -98 198z
M1102 1055q-73 61 -188 26q-114 -34 -103 -129q0 -65 47 -104q46 -39 121 -39q77 0 123 39q47 39 47 104q0 62 -47 103zM831 422q51 -45 148 -45q96 0 147 45q52 44 52 117q0 72 -53 116q-52 43 -146 43t-146 -43q-53 -44 -53 -116q0 -73 51 -117z" />
    <glyph glyph-name="nine.ss10" horiz-adv-x="1957" 
d="M49 -180v1818h1860v-1818h-1860zM213 -33h1532v1524h-1532v-1524zM1184 674q-89 -107 -236 -107q-146 0 -235 95q-92 92 -92 229q0 146 98 234q100 89 252 89q132 0 221 -67q149 -112 149 -395q0 -244 -93 -376t-273 -132q-142 0 -232 66q-89 65 -110 186h162
q35 -117 180 -117q191 0 209 295zM971 1079q-85 0 -138 -51t-53 -131t54 -136q52 -54 137 -54q84 0 135 54t51 136q0 80 -51 131t-135 51z" />
    <glyph glyph-name="zero.zero" horiz-adv-x="1261" 
d="M236 1294q131 197 395 197q261 0 395 -197q133 -197 133 -565t-133 -565q-134 -197 -395 -197q-264 0 -395 197q-134 199 -134 565t134 565zM631 1335q-348 0 -348 -606q0 -177 30 -301l553 791q-85 116 -235 116zM631 123q348 0 348 606q0 199 -39 334l-561 -801
q90 -139 252 -139z" />
    <glyph glyph-name="zero.dnom" horiz-adv-x="770" 
d="M643 100q-88 -118 -258 -118q-171 0 -256 118q-88 113 -88 322q0 212 88 327t256 115t256 -115t88 -327q0 -204 -86 -322zM199 422q0 -311 186 -311t186 311q0 313 -186 313t-186 -313z" />
    <glyph glyph-name="one.dnom" horiz-adv-x="444" 
d="M262 846h131v-846h-151v637q-60 -33 -211 -33v111q105 5 153 29q50 26 78 102z" />
    <glyph glyph-name="two.dnom" horiz-adv-x="681" 
d="M184 129h467v-129h-631l3 57q6 131 66 218q61 88 202 145l57 22q146 60 146 164q0 129 -158 129q-78 0 -118 -42q-40 -41 -40 -111h-147q1 128 81 205t228 77q145 0 223 -71q80 -72 80 -183q0 -184 -233 -286l-72 -31q-74 -30 -109 -68t-45 -96z" />
    <glyph glyph-name="three.dnom" horiz-adv-x="714" 
d="M537 451q65 -22 103 -77t38 -130q0 -118 -88 -190t-236 -72q-158 0 -244 76q-89 78 -90 216h150q0 -170 184 -170q79 0 126 38q46 37 46 106q0 137 -180 137h-55v113h59q160 0 160 125q0 55 -41 87q-40 31 -113 31q-146 0 -157 -129h-150q7 121 89 187q80 65 218 65
q141 0 221 -61t80 -166q0 -125 -120 -186z" />
    <glyph glyph-name="four.dnom" horiz-adv-x="765" 
d="M612 334h123v-129h-123v-205h-155v205h-426v149l424 492h157v-512zM463 334v340l-293 -340h293z" />
    <glyph glyph-name="five.dnom" horiz-adv-x="720" 
d="M397 569q127 0 205 -83q78 -82 78 -212q0 -131 -90 -212q-89 -80 -228 -80q-132 0 -219 68t-102 183h147q30 -129 174 -129q78 0 125 49q48 50 48 121q0 75 -48 126t-125 51q-117 0 -161 -97h-148l86 492h504v-129h-385l-37 -203q67 55 176 55z" />
    <glyph glyph-name="six.dnom" horiz-adv-x="747" 
d="M410 569q129 0 213 -85q84 -86 84 -210q0 -130 -90 -212q-87 -80 -228 -80q-120 0 -203 61q-135 101 -135 358q0 223 87 343t257 120q124 0 203 -61q80 -62 98 -168h-149q-27 106 -152 106q-185 0 -200 -270q79 98 215 98zM389 104q78 0 125 47t47 119q0 75 -47 124
q-46 48 -125 48q-74 0 -122 -49t-48 -123q0 -71 47 -118q48 -48 123 -48z" />
    <glyph glyph-name="seven.dnom" horiz-adv-x="653" 
d="M31 717v129h592v-131q-156 -144 -224 -309q-70 -169 -71 -406h-162q1 204 84 395q84 194 221 322h-440z" />
    <glyph glyph-name="eight.dnom" horiz-adv-x="741" 
d="M553 449q147 -63 147 -218q0 -112 -88 -181q-87 -68 -241 -68q-155 0 -242 68q-88 69 -88 181q0 158 147 215q-108 68 -108 187q0 105 78 168t213 63q133 0 211 -63q77 -62 77 -168q0 -121 -106 -184zM481 719q-44 35 -110 35q-67 0 -111 -35q-43 -34 -43 -94
q0 -61 43 -95q42 -36 111 -36q68 0 110 36q43 34 43 95q0 60 -43 94zM238 143q47 -41 133 -41q88 0 135 41q48 40 46 106t-48 105q-45 39 -133 39t-133 -39q-48 -42 -48 -105q0 -64 48 -106z" />
    <glyph glyph-name="nine.dnom" horiz-adv-x="747" 
d="M561 803q135 -102 135 -359q0 -224 -85 -343t-249 -119q-128 0 -210 61q-83 62 -101 168h150q30 -107 161 -107q174 0 191 271q-79 -99 -215 -99q-129 0 -213 85t-84 210q0 131 89 212q88 81 228 81q121 0 203 -61zM358 403q74 0 122 50q48 49 48 122q0 72 -47 119
t-123 47q-79 0 -125 -46q-47 -47 -47 -120q0 -74 47 -123t125 -49z" />
    <glyph glyph-name="zero.numr" horiz-adv-x="770" 
d="M643 713q-89 -119 -258 -119q-170 0 -256 119q-88 113 -88 321q0 212 88 327q89 116 256 116t256 -116q88 -115 88 -327q0 -203 -86 -321zM199 1034q0 -311 186 -311t186 311q0 314 -186 314t-186 -314z" />
    <glyph glyph-name="one.numr" horiz-adv-x="444" 
d="M262 1458h131v-846h-157v605h-205v110q99 0 150 28q52 28 81 103z" />
    <glyph glyph-name="two.numr" horiz-adv-x="681" 
d="M184 741h467v-129h-631l3 58q6 131 66 218q60 86 202 144l57 23q146 60 146 164q0 129 -158 129q-78 0 -118 -42q-40 -41 -40 -112h-147q2 130 81 206q80 77 228 77q144 0 223 -72q80 -72 80 -182q0 -187 -233 -287l-72 -31q-76 -31 -109 -67q-35 -38 -45 -97z" />
    <glyph glyph-name="three.numr" horiz-adv-x="714" 
d="M537 1063q65 -22 103 -77t38 -130q0 -117 -88 -189q-90 -73 -236 -73q-156 0 -244 77q-89 78 -90 216h150q0 -170 184 -170q79 0 126 38q46 37 46 105q0 137 -180 137h-55v113h59q160 0 160 125q0 55 -41 87t-113 32q-146 0 -157 -129h-150q7 119 89 186q81 66 218 66
q139 0 221 -62q80 -61 80 -166q0 -59 -32 -107q-34 -51 -88 -79z" />
    <glyph glyph-name="four.numr" horiz-adv-x="765" 
d="M612 946h123v-129h-123v-205h-155v205h-426v150l424 491h157v-512zM463 946v340l-293 -340h293z" />
    <glyph glyph-name="five.numr" horiz-adv-x="720" 
d="M397 1182q127 0 205 -83t78 -212q0 -131 -90 -212t-228 -81q-130 0 -219 69q-87 68 -102 183h147q30 -129 174 -129q78 0 125 48q48 50 48 122q0 75 -48 126q-47 50 -125 50q-118 0 -161 -96h-148l86 491h504v-129h-385l-37 -203q68 56 176 56z" />
    <glyph glyph-name="six.numr" horiz-adv-x="747" 
d="M410 1182q129 0 213 -85t84 -210q0 -130 -90 -212q-89 -81 -228 -81q-120 0 -203 61q-135 102 -135 359q0 223 87 343t257 120q123 0 203 -62t98 -168h-149q-27 107 -152 107q-185 0 -200 -271q80 99 215 99zM389 717q79 0 125 46q47 47 47 120q0 75 -47 124
q-47 48 -125 48q-74 0 -122 -49q-48 -50 -48 -123q0 -72 47 -119t123 -47z" />
    </font>
</defs>
</svg>
