<svg width="150" height="40" viewBox="0 0 150 40" fill="none" xmlns="http://www.w3.org/2000/svg">
<path d="M13.6316 0.110769H0V39.8769H13.6316C26.0377 39.8769 35.0437 31.5161 35.0437 19.8853C35.0437 8.42068 26.0489 0.110769 13.6316 0.110769ZM13.6316 36.0709H4.08588V3.92345H13.6316C23.5978 3.92345 30.8364 10.6892 30.8364 20.0958C30.8364 29.5023 23.7665 36.0642 13.6316 36.0642V36.0709ZM65.4394 0.110769H69.5275V39.8769H65.4394V21.7883H41.5425V39.8769H37.4543V0.110769H41.5425V17.9778H65.4394V0.110769ZM136.635 0.110769V39.8769H133.573L106.851 6.64615V39.8769H103.8L77.0719 6.65723V39.8769H73.1007V0.110769H76.7144L102.878 32.606V0.110769H106.849L132.655 32.606V0.110769H136.635ZM142.095 0.522831H140.521V0H144.303V0.516185H142.729V4.65674H142.095V0.522831ZM144.834 0H145.693L147.177 3.91902L148.679 0H149.538V4.65231H148.947V0.784245L147.467 4.66338H146.937L145.453 0.784245V4.66338H144.857L144.834 0Z" fill="white"/>
</svg>
